<?xml version="1.0" standalone="no"?>
<!DOCTYPE svg PUBLIC "-//W3C//DTD SVG 1.1//EN" "http://www.w3.org/Graphics/SVG/1.1/DTD/svg11.dtd" >
<svg xmlns="http://www.w3.org/2000/svg" xmlns:xlink="http://www.w3.org/1999/xlink" version="1.1">
<metadata>
Created by FontForge 20201107 at Tue Dec  6 15:27:44 2016
 By 
Digitized data copyright 2012-2016, The Mozilla Foundation and Telefonica S.A.
</metadata>
<defs>
<font id="FiraSansExtraCondensed-Light" horiz-adv-x="460" >
  <font-face 
    font-family="Fira Sans Extra Condensed Light"
    font-weight="300"
    font-stretch="ultra-condensed"
    units-per-em="1000"
    panose-1="2 11 4 3 5 0 0 2 0 4"
    ascent="800"
    descent="-200"
    x-height="523"
    cap-height="685"
    bbox="-611 -350 1360 1053"
    underline-thickness="50"
    underline-position="-100"
    unicode-range="U+000D-FEFF"
  />
<missing-glyph horiz-adv-x="666" 
d="M543 1050v-1400h-420v1400h420zM489 998h-311v-1296h311v1296zM409.5 419q25.5 -32 25.5 -83q0 -53 -22.5 -82t-72.5 -36v-45q0 -11 -7.5 -17.5t-17.5 -6.5t-17.5 6.5t-7.5 17.5v84q53 3 72 19.5t19 57.5q0 33 -13 51t-48 18q-29 0 -52 -11q-8 -3 -13 -3q-11 0 -17.5 6.5
t-6.5 16.5q0 19 29.5 29t63.5 10q60 0 85.5 -32zM340 110q10 -10 10 -25q0 -16 -10 -26.5t-25 -10.5t-25 10.5t-10 26.5q0 15 10 25t25 10t25 -10z" />
    <glyph glyph-name="fi" unicode="fi" horiz-adv-x="467" 
d="M342 706l-20 -39q-26 13 -50 20.5t-52 7.5q-39 0 -57.5 -17.5t-18.5 -62.5v-92h239v-523h-56v477h-183v-477h-56v477h-71v46h71v95q0 59 33 92t96 33q65 0 125 -37z" />
    <glyph glyph-name="fl" unicode="fl" horiz-adv-x="485" 
d="M461 3q-23 -14 -51 -14q-37 0 -59 23.5t-22 64.5v599q-31 11 -54 15.5t-51 4.5q-42 0 -61 -18.5t-19 -59.5v-95h109l-7 -46h-102v-477h-56v477h-71v46h71v96q0 57 34 90.5t97 33.5q31 0 56 -5.5t56 -17.5l54 7v-648q0 -42 34 -42q14 0 28 6z" />
    <glyph glyph-name=".notdef" horiz-adv-x="666" 
d="M543 1050v-1400h-420v1400h420zM489 998h-311v-1296h311v1296zM409.5 419q25.5 -32 25.5 -83q0 -53 -22.5 -82t-72.5 -36v-45q0 -11 -7.5 -17.5t-17.5 -6.5t-17.5 6.5t-7.5 17.5v84q53 3 72 19.5t19 57.5q0 33 -13 51t-48 18q-29 0 -52 -11q-8 -3 -13 -3q-11 0 -17.5 6.5
t-6.5 16.5q0 19 29.5 29t63.5 10q60 0 85.5 -32zM340 110q10 -10 10 -25q0 -16 -10 -26.5t-25 -10.5t-25 10.5t-10 26.5q0 15 10 25t25 10t25 -10z" />
    <glyph glyph-name=".null" horiz-adv-x="0" 
 />
    <glyph glyph-name="nonmarkingreturn" unicode="&#xd;" horiz-adv-x="225" 
 />
    <glyph glyph-name="space" unicode=" " horiz-adv-x="225" 
 />
    <glyph glyph-name="exclam" unicode="!" horiz-adv-x="218" 
d="M138 685l-5 -468h-48l-6 468h59zM141.5 67q12.5 -13 12.5 -32t-12.5 -32.5t-32.5 -13.5t-32.5 13.5t-12.5 32.5t12.5 32t32.5 13t32.5 -13z" />
    <glyph glyph-name="quotedbl" unicode="&#x22;" horiz-adv-x="338" 
d="M69 434l-7 251h55l-7 -251h-41zM227 434l-7 251h55l-7 -251h-41z" />
    <glyph glyph-name="numbersign" unicode="#" horiz-adv-x="417" 
d="M405 452h-62l-30 -227h62v-44h-68l-24 -181h-48l24 181h-142l-24 -181h-48l24 181h-57v44h63l30 227h-63v45h69l22 168h48l-22 -168h142l22 168h48l-22 -168h56v-45zM265 225l30 227h-142l-30 -227h142z" />
    <glyph glyph-name="dollar" unicode="$" horiz-adv-x="433" 
d="M349.5 55.5q-41.5 -52.5 -109.5 -63.5v-142h-46v139q-51 2 -91 23.5t-75 59.5l32 33q33 -33 67 -50.5t78 -17.5q58 0 93.5 39t35.5 104q0 57 -27.5 89.5t-99.5 60.5q-84 32 -120.5 74.5t-36.5 107.5q0 62 40.5 108t103.5 54v144h46v-144q41 -4 73 -22t61 -50l-31 -33
q-31 31 -60.5 44.5t-65.5 13.5q-50 0 -80 -32t-30 -81t27.5 -80t98.5 -58q81 -32 119.5 -75t38.5 -120q0 -73 -41.5 -125.5z" />
    <glyph glyph-name="percent" unicode="%" horiz-adv-x="669" 
d="M507 703l40 -22l-380 -704l-40 22zM263.5 633.5q34.5 -42.5 34.5 -118.5q0 -77 -34 -120.5t-91 -43.5q-56 0 -90.5 43t-34.5 119q0 77 34 120t91 43q56 0 90.5 -42.5zM97 513q0 -120 76 -120t76 122q0 56 -18 88t-58 32q-76 0 -76 -122zM585.5 271q34.5 -43 34.5 -119
q0 -77 -33.5 -120t-90.5 -43q-56 0 -90.5 42.5t-34.5 118.5q0 78 34 121t91 43q55 0 89.5 -43zM419 150q0 -120 77 -120q76 0 76 122q0 120 -76 120q-77 0 -77 -122z" />
    <glyph glyph-name="ampersand" unicode="&#x26;" horiz-adv-x="596" 
d="M354.5 655q38.5 -41 38.5 -107q0 -57 -30.5 -99t-94.5 -86l164 -193q37 97 54 189l49 -13q-24 -115 -69 -209l102 -115l-42 -33l-91 107q-35 -52 -79.5 -79.5t-103.5 -27.5q-50 0 -90 22.5t-63 64t-23 95.5q0 63 29 108t90 91q-46 51 -65 88t-19 86q0 68 38.5 110
t103.5 42q63 0 101.5 -41zM189.5 623q-23.5 -29 -23.5 -78q0 -39 14.5 -69.5t56.5 -81.5q53 37 77.5 71.5t24.5 80.5q0 53 -23 79.5t-62 26.5q-41 0 -64.5 -29zM156.5 264q-22.5 -39 -22.5 -92q0 -63 33.5 -99.5t86.5 -36.5q49 0 84 23t65 69l-177 210q-47 -35 -69.5 -74z
" />
    <glyph glyph-name="quotesingle" unicode="'" horiz-adv-x="180" 
d="M69 434l-7 251h55l-7 -251h-41z" />
    <glyph glyph-name="parenleft" unicode="(" horiz-adv-x="265" 
d="M225 813q-45 -80 -71 -139.5t-41.5 -138.5t-15.5 -185q0 -107 15.5 -185.5t41.5 -138t71 -139.5l-36 -24q-49 81 -79.5 145.5t-49.5 148.5t-19 193t19 193t49.5 148.5t79.5 145.5z" />
    <glyph glyph-name="parenright" unicode=")" horiz-adv-x="265" 
d="M156 691q30 -64 49.5 -148t19.5 -193t-19.5 -193t-49.5 -148t-80 -146l-36 24q45 80 71 139.5t41.5 138.5t15.5 185q0 107 -15.5 185.5t-41.5 138t-71 139.5l36 24q50 -82 80 -146z" />
    <glyph glyph-name="asterisk" unicode="*" horiz-adv-x="373" 
d="M340 583l-124 -40l84 -122l-45 -26l-68 128l-68 -128l-45 25l84 122l-125 41l18 44l117 -52l-8 161h53l-8 -162l118 54z" />
    <glyph glyph-name="plus" unicode="+" horiz-adv-x="407" 
d="M229 504v-149h124v-49h-124v-148h-50v148h-124v49h124v149h50z" />
    <glyph glyph-name="comma" unicode="," horiz-adv-x="187" 
d="M127 67.5q12 -12.5 12 -32.5q0 -15 -6 -32t-8 -22l-47 -131h-37l35 145q-24 14 -24 40q0 20 12.5 32.5t31.5 12.5t31 -12.5z" />
    <glyph glyph-name="hyphen" unicode="-" horiz-adv-x="332" 
d="M56 289v48h221v-48h-221z" />
    <glyph glyph-name="period" unicode="." horiz-adv-x="186" 
d="M125.5 67q12.5 -13 12.5 -32t-12.5 -32.5t-32.5 -13.5t-32.5 13.5t-12.5 32.5t12.5 32t32.5 13t32.5 -13z" />
    <glyph glyph-name="slash" unicode="/" horiz-adv-x="426" 
d="M286 802l47 -9l-193 -892l-47 9z" />
    <glyph glyph-name="zero" unicode="0" horiz-adv-x="470" 
d="M366.5 592q43.5 -84 43.5 -260t-43.5 -259.5t-130.5 -83.5t-131.5 84.5t-44.5 259.5t44 259t132 84q87 0 130.5 -84zM147.5 560q-29.5 -69 -29.5 -227t29 -227.5t89 -69.5q59 0 87.5 69t28.5 227q0 159 -28.5 228t-87.5 69t-88.5 -69z" />
    <glyph glyph-name="one" unicode="1" horiz-adv-x="341" 
d="M241 665v-665h-55v602l-132 -99l-27 39l166 123h48z" />
    <glyph glyph-name="two" unicode="2" horiz-adv-x="386" 
d="M288.5 629.5q41.5 -46.5 41.5 -121.5q0 -64 -22 -121.5t-70.5 -129t-151.5 -207.5h259l-8 -50h-312v47q107 141 157.5 216t70.5 129t20 114q0 58 -27 90t-73 32q-37 0 -65 -18t-55 -56l-37 27q33 49 71.5 72t87.5 23q72 0 113.5 -46.5z" />
    <glyph glyph-name="three" unicode="3" horiz-adv-x="402" 
d="M295 629q42 -47 42 -119q0 -65 -31.5 -104t-88.5 -52q62 -6 99 -47.5t37 -117.5q0 -58 -22 -103.5t-61.5 -71t-92.5 -25.5q-51 0 -89.5 21t-72.5 65l36 28q30 -36 58 -51.5t67 -15.5q55 0 88 41t33 112q0 140 -132 140h-37l7 44h27q51 0 86.5 34.5t35.5 100.5
q0 58 -28.5 90t-77.5 32q-33 0 -60.5 -14t-56.5 -44l-32 29q34 38 71.5 56.5t81.5 18.5q71 0 113 -47z" />
    <glyph glyph-name="four" unicode="4" horiz-adv-x="429" 
d="M401 222v-47h-72v-175h-54v175h-239v43l165 458l48 -17l-156 -437h182l7 196h47v-196h72z" />
    <glyph glyph-name="five" unicode="5" horiz-adv-x="405" 
d="M338 618h-220v-228q22 15 44 23t49 8q70 0 112 -54.5t42 -152.5q0 -66 -22.5 -117.5t-63 -79.5t-94.5 -28q-50 0 -87.5 20t-70.5 60l36 31q27 -32 55 -47.5t66 -15.5q58 0 90.5 46.5t32.5 131.5q0 160 -110 160q-26 0 -46.5 -7.5t-44.5 -24.5h-41v322h281z" />
    <glyph glyph-name="six" unicode="6" horiz-adv-x="446" 
d="M359.5 380q41.5 -53 41.5 -156q0 -114 -45 -174.5t-119 -60.5q-92 0 -134.5 82t-42.5 228q0 180 53.5 278.5t148.5 98.5q57 0 104 -39l-24 -37q-38 29 -80 29q-66 0 -104 -76.5t-42 -212.5q26 44 61 68.5t77 24.5q64 0 105.5 -53zM318 84.5q28 48.5 28 137.5
q0 85 -27 125t-73 40q-39 0 -72 -29t-58 -81q2 -123 30.5 -182t90.5 -59q53 0 81 48.5z" />
    <glyph glyph-name="seven" unicode="7" horiz-adv-x="361" 
d="M334 665v-44l-215 -629l-50 17l209 608h-254v48h310z" />
    <glyph glyph-name="eight" unicode="8" horiz-adv-x="447" 
d="M374 279q30 -42 30 -107q0 -85 -49.5 -134t-132.5 -49q-82 0 -130.5 49.5t-48.5 132.5q0 132 124 186q-54 28 -77.5 63t-23.5 90q0 79 45.5 122.5t112.5 43.5q66 0 112 -42t46 -123q0 -53 -24.5 -90t-79.5 -69q66 -31 96 -73zM142 434q21 -27 76 -54l25 -12
q45 30 64.5 62.5t19.5 78.5q0 63 -27.5 93t-75.5 30q-47 0 -75 -30t-28 -93q0 -48 21 -75zM315 68.5q33 33.5 33 103.5q0 60 -25.5 92t-92.5 62l-28 13q-54 -26 -78.5 -66.5t-24.5 -101.5q0 -69 33.5 -102.5t90.5 -33.5q59 0 92 33.5z" />
    <glyph glyph-name="nine" unicode="9" horiz-adv-x="433" 
d="M381 408q0 -129 -31 -211t-91.5 -131t-159.5 -85l-13 43q113 42 171.5 112.5t65.5 197.5q-23 -40 -56 -62.5t-73 -22.5q-42 0 -77 25t-55.5 72.5t-20.5 111.5q0 105 47 161.5t123 56.5q170 0 170 -268zM269.5 320q29.5 25 55.5 75q0 125 -26 180t-87 55q-54 0 -84 -42.5
t-30 -130.5q0 -79 28 -120.5t77 -41.5q37 0 66.5 25z" />
    <glyph glyph-name="colon" unicode=":" horiz-adv-x="186" 
d="M125.5 67q12.5 -13 12.5 -32t-12.5 -32.5t-32.5 -13.5t-32.5 13.5t-12.5 32.5t12.5 32t32.5 13t32.5 -13zM125.5 458q12.5 -13 12.5 -32t-12.5 -32.5t-32.5 -13.5t-32.5 13.5t-12.5 32.5t12.5 32t32.5 13t32.5 -13z" />
    <glyph glyph-name="semicolon" unicode=";" horiz-adv-x="190" 
d="M127 67.5q12 -12.5 12 -32.5q0 -15 -6 -32t-8 -22l-47 -131h-37l35 145q-24 14 -24 40q0 20 12.5 32.5t31.5 12.5t31 -12.5zM125.5 458q12.5 -13 12.5 -32t-12.5 -32.5t-32.5 -13.5t-32.5 13.5t-12.5 32.5t12.5 32t32.5 13t32.5 -13z" />
    <glyph glyph-name="less" unicode="&#x3c;" horiz-adv-x="409" 
d="M337 524l24 -43l-266 -148l266 -151l-24 -43l-289 168v52z" />
    <glyph glyph-name="equal" unicode="=" horiz-adv-x="406" 
d="M55 394v47h296v-47h-296zM55 220v47h296v-47h-296z" />
    <glyph glyph-name="greater" unicode="&#x3e;" horiz-adv-x="409" 
d="M72 524l289 -165v-52l-289 -168l-24 43l266 151l-266 148z" />
    <glyph glyph-name="question" unicode="?" horiz-adv-x="381" 
d="M304.5 654q39.5 -42 39.5 -104q0 -35 -10.5 -60.5t-25.5 -42t-40 -38.5t-39.5 -38.5t-24.5 -40.5t-10 -57v-56h-53v60q0 41 11 69.5t27 46.5t42 40q34 28 50.5 52.5t16.5 64.5q0 45 -25.5 71.5t-68.5 26.5q-36 0 -64 -17t-56 -56l-37 29q33 47 72 69.5t87 22.5
q69 0 108.5 -42zM201.5 67q12.5 -13 12.5 -32t-12.5 -32.5t-32.5 -13.5t-32.5 13.5t-12.5 32.5t12.5 32t32.5 13t32.5 -13z" />
    <glyph glyph-name="at" unicode="@" horiz-adv-x="846" 
d="M620.5 645.5q76.5 -50.5 115.5 -138.5t39 -199q0 -145 -41.5 -220.5t-109.5 -75.5q-41 0 -66 28.5t-34 72.5q-18 -45 -48 -72t-72 -27q-66 0 -104 56.5t-38 161.5q0 126 48 189t126 63q61 0 121 -37v-257q0 -69 16.5 -101t49.5 -32q44 0 70.5 58.5t26.5 190.5
q0 157 -73.5 249.5t-209.5 92.5q-93 0 -163 -52.5t-108.5 -144.5t-38.5 -209q0 -127 37.5 -217t107 -136t164.5 -46q79 0 155 33l15 -45q-43 -18 -82 -27t-89 -9q-107 0 -189 52t-128 153t-46 242q0 129 45.5 232.5t128.5 162.5t191 59q107 0 183.5 -50.5zM465 84
q25 25 41 63v277q-20 8 -35.5 12t-34.5 4q-57 0 -88 -53t-31 -155q0 -173 91 -173q32 0 57 25z" />
    <glyph glyph-name="A" unicode="A" horiz-adv-x="478" 
d="M402 0l-48 188h-232l-48 -188h-57l186 685h72l186 -685h-59zM135 236h206l-103 401z" />
    <glyph glyph-name="B" unicode="B" horiz-adv-x="492" 
d="M451 189q0 -92 -56.5 -140.5t-157.5 -48.5h-149v685h122q104 0 159.5 -44.5t55.5 -126.5q0 -121 -120 -151q146 -23 146 -174zM145 637v-253h88q65 0 98.5 33.5t33.5 92.5q0 127 -149 127h-71zM391 189q0 76 -38 112t-114 36h-94v-288h93q153 0 153 140z" />
    <glyph glyph-name="C" unicode="C" horiz-adv-x="455" 
d="M363.5 680.5q34.5 -15.5 68.5 -47.5l-31 -36q-29 26 -55.5 37.5t-59.5 11.5q-78 0 -125 -71t-47 -232q0 -157 46.5 -230t125.5 -73q38 0 64 14t55 40l33 -36q-65 -69 -153 -69q-105 0 -168.5 89t-63.5 265q0 119 30.5 198t82.5 117t118 38q45 0 79.5 -15.5z" />
    <glyph glyph-name="D" unicode="D" horiz-adv-x="522" 
d="M396.5 613q72.5 -72 72.5 -265q0 -194 -73 -271t-183 -77h-125v685h116q120 0 192.5 -72zM145 636v-588h72q85 0 138 65t53 235q0 119 -27.5 182.5t-69.5 84.5t-99 21h-67z" />
    <glyph glyph-name="E" unicode="E" horiz-adv-x="420" 
d="M379 685l-6 -49h-228v-257h197v-48h-197v-282h239v-49h-296v685h291z" />
    <glyph glyph-name="F" unicode="F" horiz-adv-x="395" 
d="M88 0v685h286l-7 -49h-222v-269h192v-48h-192v-319h-57z" />
    <glyph glyph-name="G" unicode="G" horiz-adv-x="513" 
d="M376 679.5q36 -16.5 73 -51.5l-32 -34q-32 28 -60 40t-64 12q-77 0 -128 -70t-51 -231q0 -163 45 -234.5t130 -71.5q33 0 60 8.5t53 26.5v246h-106l-6 49h168v-324q-78 -56 -168 -56q-113 0 -175 87t-62 269q0 119 33 198t87.5 116t119.5 37q47 0 83 -16.5z" />
    <glyph glyph-name="H" unicode="H" horiz-adv-x="550" 
d="M404 0v336h-259v-336h-57v685h57v-300h259v300h58v-685h-58z" />
    <glyph glyph-name="I" unicode="I" horiz-adv-x="233" 
d="M145 685v-685h-57v685h57z" />
    <glyph glyph-name="J" unicode="J" horiz-adv-x="240" 
d="M157 91q0 -59 -14 -97t-42 -63.5t-77 -48.5l-16 41q38 22 57.5 43t26.5 50t7 78v591h58v-594z" />
    <glyph glyph-name="K" unicode="K" horiz-adv-x="463" 
d="M145 685v-685h-57v685h57zM443 685l-230 -315l245 -370h-66l-243 367l232 318h62z" />
    <glyph glyph-name="L" unicode="L" horiz-adv-x="392" 
d="M145 685v-633h233l-7 -52h-283v685h57z" />
    <glyph glyph-name="M" unicode="M" horiz-adv-x="644" 
d="M585 0h-54l-25 329q-11 139 -19 299l-137 -547h-55l-143 547q0 -67 -14 -261q0 -12 -2 -36l-23 -331h-54l52 685h78l134 -535l130 535h79z" />
    <glyph glyph-name="N" unicode="N" horiz-adv-x="551" 
d="M464 0h-76l-254 620q8 -94 8 -233v-387h-54v685h76l253 -620q-8 120 -8 201v419h55v-685z" />
    <glyph glyph-name="O" unicode="O" horiz-adv-x="570" 
d="M455 607.5q62 -88.5 62 -265.5q0 -174 -61.5 -263.5t-170.5 -89.5q-107 0 -169.5 89t-62.5 263t63 264.5t169 90.5q108 0 170 -88.5zM159 572q-45 -74 -45 -231q0 -155 45.5 -228.5t125.5 -73.5q83 0 127 72.5t44 230.5q0 304 -171 304q-81 0 -126 -74z" />
    <glyph glyph-name="P" unicode="P" horiz-adv-x="466" 
d="M377 634q59 -51 59 -154q0 -212 -239 -212h-52v-268h-57v685h110q120 0 179 -51zM331.5 353q43.5 37 43.5 126q0 84 -42 121t-134 37h-54v-321h53q90 0 133.5 37z" />
    <glyph glyph-name="Q" unicode="Q" horiz-adv-x="570" 
d="M541 -48l-40 -44q-44 48 -92 66t-126 18q-105 0 -167.5 88t-62.5 261q0 116 29 196t81 119.5t122 39.5q108 0 170 -89t62 -265q0 -140 -38 -214t-106 -104q101 -3 168 -72zM159.5 112.5q45.5 -73.5 125.5 -73.5q83 0 127 72.5t44 230.5q0 304 -171 304q-81 0 -126 -74
t-45 -231q0 -155 45.5 -228.5z" />
    <glyph glyph-name="R" unicode="R" horiz-adv-x="487" 
d="M398 0l-144 309l-32 -1h-77v-308h-57v685h122q223 0 223 -186q0 -67 -32 -113t-92 -66l153 -320h-64zM333.5 390.5q37.5 34.5 37.5 108.5q0 70 -37 104t-127 34h-62v-281h70q81 0 118.5 34.5z" />
    <glyph glyph-name="S" unicode="S" horiz-adv-x="444" 
d="M312 677q38 -19 73 -57l-33 -33q-31 31 -61.5 45t-68.5 14q-50 0 -81.5 -32.5t-31.5 -83.5t28.5 -82.5t101.5 -58.5q84 -32 123.5 -77t39.5 -125q0 -55 -24 -100t-67.5 -71.5t-99.5 -26.5t-100.5 22t-82.5 64l33 33q35 -34 69.5 -51.5t79.5 -17.5q60 0 96 40t36 106
q0 59 -28 93t-102 63q-86 33 -123.5 76.5t-37.5 110.5q0 45 22 83.5t61 61.5t88 23q52 0 90 -19z" />
    <glyph glyph-name="T" unicode="T" horiz-adv-x="409" 
d="M402 685l-7 -50h-161v-635h-58v635h-164v50h390z" />
    <glyph glyph-name="U" unicode="U" horiz-adv-x="531" 
d="M454 178q0 -82 -48.5 -135.5t-139.5 -53.5q-92 0 -140 53t-48 136v507h57v-502q0 -68 32.5 -105.5t98.5 -37.5t98 38t32 105v502h58v-507z" />
    <glyph glyph-name="V" unicode="V" horiz-adv-x="463" 
d="M445 685l-179 -685h-68l-181 685h59l157 -625l155 625h57z" />
    <glyph glyph-name="W" unicode="W" horiz-adv-x="676" 
d="M648 685l-120 -685h-75l-116 619l-116 -619h-73l-120 685h56l102 -631l118 631h67l119 -631l103 631h55z" />
    <glyph glyph-name="X" unicode="X" horiz-adv-x="426" 
d="M246 371l173 -371h-61l-148 332l-144 -332h-59l169 368l-153 317h61l127 -280l128 280h58z" />
    <glyph glyph-name="Y" unicode="Y" horiz-adv-x="434" 
d="M425 685l-178 -417v-268h-58v267l-180 418h62l148 -365l147 365h59z" />
    <glyph glyph-name="Z" unicode="Z" horiz-adv-x="423" 
d="M388 685v-48l-300 -585h296l-7 -52h-349v48l300 587h-271v50h331z" />
    <glyph glyph-name="bracketleft" unicode="[" horiz-adv-x="261" 
d="M209 806v-46h-91v-826h91v-46h-144v918h144z" />
    <glyph glyph-name="backslash" unicode="\" horiz-adv-x="426" 
d="M140 801l193 -891l-47 -9l-193 890z" />
    <glyph glyph-name="bracketright" unicode="]" horiz-adv-x="261" 
d="M196 806v-918h-145v46h92v826h-92v46h145z" />
    <glyph glyph-name="asciicircum" unicode="^" horiz-adv-x="438" 
d="M243 832l151 -305h-62l-114 249l-114 -249h-61l152 305h48z" />
    <glyph glyph-name="underscore" unicode="_" horiz-adv-x="431" 
d="M24 -121v50h383v-50h-383z" />
    <glyph glyph-name="grave" unicode="`" horiz-adv-x="241" 
d="M62 778l155 -102l-19 -30l-163 85z" />
    <glyph glyph-name="a" unicode="a" horiz-adv-x="443" 
d="M367.5 52.5q8.5 -15.5 26.5 -24.5l-12 -39q-32 8 -49 27t-22 55q-47 -82 -131 -82q-62 0 -99 43t-37 113q0 82 49.5 125.5t141.5 43.5h69v60q0 57 -22.5 85t-70.5 28q-55 0 -120 -28l-16 40q75 35 141 35q72 0 107.5 -40.5t35.5 -115.5v-278q0 -32 8.5 -47.5zM304 131
v142h-64q-70 0 -103.5 -31t-33.5 -95q0 -55 22.5 -84t63.5 -29q76 0 115 97z" />
    <glyph glyph-name="b" unicode="b" horiz-adv-x="476" 
d="M384 466.5q41 -67.5 41 -202.5q0 -131 -44 -203t-121 -72q-38 0 -69 21t-53 55l-5 -65h-49v736l56 6v-289q51 81 128 81q75 0 116 -67.5zM365 264q0 119 -27 171t-80 52q-37 0 -65.5 -23.5t-52.5 -65.5v-281q48 -81 111 -81q114 0 114 228z" />
    <glyph glyph-name="c" unicode="c" horiz-adv-x="382" 
d="M303 521.5q29 -12.5 57 -40.5l-27 -34q-22 20 -44.5 29.5t-49.5 9.5q-60 0 -94 -55t-34 -172q0 -221 127 -221q51 0 97 41l28 -34q-56 -56 -125 -56q-88 0 -137.5 67.5t-49.5 201.5q0 133 50 204.5t137 71.5q36 0 65 -12.5z" />
    <glyph glyph-name="d" unicode="d" horiz-adv-x="479" 
d="M395 736v-736h-49l-5 76q-45 -87 -125 -87q-78 0 -121.5 71t-43.5 199q0 83 21 145.5t59.5 96t89.5 33.5q73 0 118 -68v277zM289 60q28 24 50 70v278q-45 79 -110 79q-55 0 -87 -57.5t-32 -169.5q1 -112 30.5 -168t82.5 -56q38 0 66 24z" />
    <glyph glyph-name="e" unicode="e" horiz-adv-x="443" 
d="M395 239h-286q4 -108 37.5 -155t91.5 -47q34 0 60 11.5t54 36.5l28 -33q-31 -31 -65.5 -47t-77.5 -16q-87 0 -136.5 68.5t-49.5 199.5q0 133 47.5 205t130.5 72q82 0 125 -64.5t43 -188.5q0 -22 -2 -42zM342 299q0 94 -28 141t-85 47q-113 0 -120 -204h233v16z" />
    <glyph glyph-name="f" unicode="f" horiz-adv-x="268" 
d="M164.5 677.5q-18.5 -18.5 -18.5 -59.5v-95h113l-7 -46h-106v-477h-56v477h-73v46h73v96q0 57 33.5 90.5t90.5 33.5q51 0 102 -28l-19 -41q-40 22 -78 22q-36 0 -54.5 -18.5z" />
    <glyph glyph-name="g" unicode="g" horiz-adv-x="417" 
d="M410 513q-40 -15 -119 -15q75 -42 75 -143q0 -80 -42.5 -126t-116.5 -46q-29 0 -54 11q-33 -25 -33 -61q0 -57 73 -57h54q70 0 110 -36.5t40 -94.5q0 -68 -48.5 -109t-141.5 -41q-97 0 -139.5 37t-42.5 113h51q1 -56 29.5 -79.5t101.5 -23.5q134 0 134 100
q0 43 -26.5 65.5t-77.5 22.5h-44q-63 0 -93.5 25t-30.5 66q0 50 49 88q-74 47 -74 148q0 81 44.5 129t118.5 48q76 0 112.5 7.5t73.5 24.5zM100 357q0 -62 28.5 -97t76.5 -35q105 0 105 131q0 63 -26 98.5t-78 35.5q-106 0 -106 -133z" />
    <glyph glyph-name="h" unicode="h" horiz-adv-x="480" 
d="M368.5 493.5q31.5 -40.5 31.5 -110.5v-383h-56v376q0 112 -75 112q-71 0 -129 -113v-375h-56v736l56 7v-308q29 48 62 73.5t78 25.5q57 0 88.5 -40.5z" />
    <glyph glyph-name="i" unicode="i" horiz-adv-x="224" 
d="M140 523v-523h-56v523h56zM140 740q11 -12 11 -30q0 -16 -11 -28t-29 -12q-17 0 -28.5 12t-11.5 28q0 18 11 30t29 12t29 -12z" />
    <glyph glyph-name="j" unicode="j" horiz-adv-x="224" 
d="M140 -8q0 -55 -13.5 -90t-38.5 -58t-69 -47l-19 40q32 19 49.5 37t26 45.5t8.5 72.5v531h56v-531zM139 740q11 -12 11 -30q0 -16 -11 -28t-29 -12q-17 0 -28.5 12t-11.5 28q0 18 11 30t29 12t29 -12z" />
    <glyph glyph-name="k" unicode="k" horiz-adv-x="406" 
d="M140 743v-743h-56v736zM384 523l-179 -234l197 -289h-63l-194 286l179 237h60z" />
    <glyph glyph-name="l" unicode="l" horiz-adv-x="235" 
d="M101 12.5q-22 23.5 -22 64.5v659l56 7v-664q0 -42 34 -42q14 0 28 6l14 -40q-23 -14 -52 -14q-36 0 -58 23.5z" />
    <glyph glyph-name="m" unicode="m" horiz-adv-x="700" 
d="M590 492.5q30 -41.5 30 -109.5v-383h-55v376q0 56 -17.5 84t-50.5 28q-65 0 -117 -108v-380h-55v376q0 56 -18 84t-51 28q-65 0 -117 -108v-380h-55v523h48l5 -86q54 97 130 97q41 0 69 -27t38 -75q55 102 133 102q53 0 83 -41.5z" />
    <glyph glyph-name="n" unicode="n" horiz-adv-x="480" 
d="M368.5 493.5q31.5 -40.5 31.5 -110.5v-383h-56v376q0 112 -75 112q-71 0 -129 -113v-375h-56v523h48l6 -90q29 49 62 75t80 26q57 0 88.5 -40.5z" />
    <glyph glyph-name="o" unicode="o" horiz-adv-x="472" 
d="M373 465.5q48 -68.5 48 -202.5q0 -131 -49.5 -202.5t-136.5 -71.5t-135.5 71t-48.5 201q0 132 49 202.5t136 70.5q89 0 137 -68.5zM110 261q0 -225 125 -225q127 0 127 227q0 115 -32 169t-94 54q-126 0 -126 -225z" />
    <glyph glyph-name="p" unicode="p" horiz-adv-x="476" 
d="M385 466q40 -68 40 -202q0 -132 -43.5 -203.5t-121.5 -71.5q-38 0 -68 19t-52 51v-256l-56 -8v728h49l4 -73q51 84 132 84q76 0 116 -68zM365 264q0 116 -26.5 169.5t-79.5 53.5q-68 0 -119 -88v-284q46 -78 111 -78q114 0 114 227z" />
    <glyph glyph-name="q" unicode="q" horiz-adv-x="479" 
d="M395 523v-728l-56 8v268q-21 -37 -51.5 -59.5t-71.5 -22.5q-77 0 -121 71t-44 199q0 84 21 146t59 95.5t90 33.5q74 0 123 -73l3 62h48zM288.5 59.5q27.5 23.5 50.5 68.5v280q-44 79 -111 79q-53 0 -85.5 -57.5t-32.5 -169.5q1 -112 31 -168t83 -56q37 0 64.5 23.5z" />
    <glyph glyph-name="r" unicode="r" horiz-adv-x="310" 
d="M300 528l-10 -52q-18 5 -36 5q-43 0 -70 -37.5t-44 -113.5v-330h-56v523h48l5 -105q19 59 49 87.5t74 28.5q18 0 40 -6z" />
    <glyph glyph-name="s" unicode="s" horiz-adv-x="385" 
d="M334 476l-26 -34q-29 24 -54.5 35t-57.5 11q-41 0 -66.5 -24t-25.5 -66q0 -36 22.5 -58t82.5 -44q73 -27 105 -61.5t32 -94.5q0 -69 -45.5 -110t-113.5 -41q-90 0 -157 67l31 32q29 -26 58.5 -39.5t66.5 -13.5q46 0 74.5 27t28.5 76q0 31 -10 50.5t-34 35t-69 32.5
q-69 25 -98.5 58t-29.5 83q0 59 42 98t105 39q78 0 139 -58z" />
    <glyph glyph-name="t" unicode="t" horiz-adv-x="286" 
d="M288 22q-42 -33 -93 -33t-80.5 32t-29.5 86v370h-70v46h70v125l56 7v-132h110l-7 -46h-103v-370q0 -33 15 -51.5t45 -18.5q32 0 64 21z" />
    <glyph glyph-name="u" unicode="u" horiz-adv-x="476" 
d="M392 0h-48l-4 87q-51 -98 -136 -98q-58 0 -91.5 39t-33.5 104v391h56v-386q0 -50 20.5 -76t57.5 -26q39 0 69 28.5t54 78.5v381h56v-523z" />
    <glyph glyph-name="v" unicode="v" horiz-adv-x="398" 
d="M382 523l-146 -523h-68l-152 523h58l128 -474l124 474h56z" />
    <glyph glyph-name="w" unicode="w" horiz-adv-x="590" 
d="M564 523l-103 -523h-75l-91 470l-90 -470h-74l-105 523h55l88 -477l94 477h68l92 -477l88 477h53z" />
    <glyph glyph-name="x" unicode="x" horiz-adv-x="388" 
d="M226 280l151 -280h-61l-123 246l-123 -246h-59l150 278l-132 245h60l104 -212l106 212h59z" />
    <glyph glyph-name="y" unicode="y" horiz-adv-x="396" 
d="M234 -2q-24 -90 -64 -136.5t-117 -65.5l-7 44q43 12 68 31.5t40 48.5t30 80h-21l-147 523h57l127 -481l124 481h57z" />
    <glyph glyph-name="z" unicode="z" horiz-adv-x="349" 
d="M323 523v-44l-242 -430h240l-5 -49h-295v43l242 431h-222v49h282z" />
    <glyph glyph-name="braceleft" unicode="{" horiz-adv-x="267" 
d="M217 785q-39 0 -55 -18t-16 -59v-263q0 -47 -15.5 -66t-51.5 -30q37 -11 52.5 -30t15.5 -66v-263q0 -40 16 -58t54 -18v-43q-63 0 -92.5 29t-29.5 95v257q0 40 -14 56.5t-47 16.5v48q33 0 47 17t14 57v257q0 66 29 95t93 29v-43z" />
    <glyph glyph-name="bar" unicode="|" horiz-adv-x="331" 
d="M191 804v-904h-52v904h52z" />
    <glyph glyph-name="braceright" unicode="}" horiz-adv-x="267" 
d="M143 799q29 -29 29 -95v-257q0 -40 14 -57t47 -17v-48q-33 0 -47 -16.5t-14 -56.5v-257q0 -66 -29 -95t-93 -29v43q39 0 55 18t16 58v263q0 47 15 66t52 30q-37 11 -52 30t-15 66v263q0 41 -16 59t-54 18l-1 43q64 0 93 -29z" />
    <glyph glyph-name="asciitilde" unicode="~" horiz-adv-x="391" 
d="M224.5 275q-17.5 8 -39.5 23q-20 13 -31.5 18.5t-23.5 5.5q-18 0 -30 -11.5t-26 -34.5l-34 19q38 73 93 73q18 0 34 -7.5t40 -22.5q18 -13 30.5 -19t25.5 -6q17 0 29 11t25 32l34 -19q-17 -33 -38.5 -51.5t-51.5 -18.5q-19 0 -36.5 8z" />
    <glyph glyph-name="uni00A0" unicode="&#xa0;" horiz-adv-x="226" 
 />
    <glyph glyph-name="exclamdown" unicode="&#xa1;" horiz-adv-x="218" 
d="M141.5 460.5q12.5 -13.5 12.5 -32.5t-12.5 -32t-32.5 -13t-32.5 13t-12.5 32t12.5 32.5t32.5 13.5t32.5 -13.5zM133 251l6 -448h-59l6 448h47z" />
    <glyph glyph-name="cent" unicode="&#xa2;" horiz-adv-x="382" 
d="M258 -10v-140h-47v141q-76 10 -118 77t-42 190t43 193t118 81v148h46v-147q29 -3 53.5 -15.5t48.5 -36.5l-27 -34q-22 20 -44.5 29.5t-49.5 9.5q-60 0 -94 -55t-34 -172q0 -221 127 -221q51 0 97 41l28 -34q-48 -48 -105 -55z" />
    <glyph glyph-name="sterling" unicode="&#xa3;" horiz-adv-x="424" 
d="M150 93.5q-13 -25.5 -48 -44.5h274l-6 -49h-330v47q40 22 54 46t14 75v164h-54v41h54v137q0 73 39 119.5t106 46.5q42 0 75 -18.5t61 -56.5l-36 -28q-21 29 -43.5 43t-53.5 14q-45 0 -69 -31.5t-24 -87.5v-138h173v-41h-173v-163q0 -50 -13 -75.5z" />
    <glyph glyph-name="currency" unicode="&#xa4;" 
d="M391 104l-64 77q-40 -34 -99 -34q-55 0 -95 34l-63 -77l-34 30l68 80q-33 50 -33 127q0 74 31 124l-70 84l36 29l64 -78q40 34 96 34q57 0 98 -33l63 77l34 -30l-68 -80q33 -50 33 -127q0 -74 -31 -124l70 -84zM337 341q0 149 -108 149q-53 0 -80.5 -37.5t-27.5 -111.5
t27.5 -111.5t80.5 -37.5q108 0 108 149z" />
    <glyph glyph-name="yen" unicode="&#xa5;" horiz-adv-x="424" 
d="M415 665l-159 -327h96v-43h-111v-103h111v-42h-111v-150h-57v150h-110v42h110v103h-110v43h95l-160 327h60l145 -314l144 314h57z" />
    <glyph glyph-name="brokenbar" unicode="&#xa6;" horiz-adv-x="331" 
d="M191 804v-361h-52v361h52zM191 262v-362h-52v362h52z" />
    <glyph glyph-name="section" unicode="&#xa7;" horiz-adv-x="439" 
d="M342 123q11 -23 11 -55q0 -62 -40.5 -99t-104.5 -37q-78 0 -138 47l25 37q49 -38 111 -38q42 0 67 24t25 63q0 25 -8 41t-29.5 31t-64.5 33q-70 29 -99.5 60t-29.5 88q0 71 66 124q-24 19 -34.5 42.5t-10.5 55.5q0 61 40 98t102 37q40 0 70 -12.5t60 -36.5l-24 -36
q-51 39 -104 39q-42 0 -65.5 -23.5t-23.5 -63.5q0 -25 8 -42t30.5 -32t66.5 -34q65 -27 95 -59.5t30 -81.5q0 -40 -16.5 -71t-49.5 -57q24 -19 35 -42zM128 277q8 -18 29 -33t62 -32q41 -18 56 -26q24 21 34 45t10 56q0 35 -19.5 58.5t-75.5 47.5q-41 18 -60 29
q-44 -44 -44 -99q0 -28 8 -46z" />
    <glyph glyph-name="dieresis" unicode="&#xa8;" horiz-adv-x="293" 
d="M100.5 729q10.5 -11 10.5 -27q0 -17 -10.5 -28t-27.5 -11q-16 0 -26.5 11t-10.5 28q0 16 10.5 27t26.5 11q17 0 27.5 -11zM258.5 729q10.5 -11 10.5 -27q0 -17 -10.5 -28t-27.5 -11q-16 0 -26.5 11t-10.5 28q0 16 10.5 27t26.5 11q17 0 27.5 -11z" />
    <glyph glyph-name="copyright" unicode="&#xa9;" horiz-adv-x="663" 
d="M458 699q56 -36 88 -103.5t32 -160.5q0 -92 -32 -160.5t-88 -104.5t-126 -36t-126 36t-88.5 104t-32.5 161q0 92 32.5 160t88.5 104t126 36t126 -36zM225.5 666q-46.5 -31 -73 -90t-26.5 -141q0 -83 26.5 -142t73 -89.5t106.5 -30.5t106.5 31t73 90t26.5 141
q0 83 -26.5 142t-73 89.5t-106.5 30.5t-106.5 -31zM419 581l-22 -30q-16 12 -30 17.5t-33 5.5q-33 0 -55 -32.5t-22 -105.5q0 -138 79 -138q21 0 36 7t31 20l21 -31q-39 -39 -90 -39q-56 0 -90 46t-34 135q0 90 35.5 134.5t88.5 44.5q46 0 85 -34z" />
    <glyph glyph-name="ordfeminine" unicode="&#xaa;" horiz-adv-x="422" 
d="M268 521v45q0 38 -17.5 56t-57.5 18q-38 0 -90 -22l-15 41q60 26 112 26q61 0 91 -30t30 -86v-210q0 -20 6.5 -30.5t20.5 -16.5l-12 -38q-50 11 -60 59q-38 -59 -104 -59q-51 0 -80.5 32t-29.5 86q0 62 39 95.5t107 33.5h60zM268 382v99h-59q-47 0 -69 -20.5t-22 -65.5
q0 -38 17 -57.5t47 -19.5q56 0 86 64zM64 48h296v-47h-296v47z" />
    <glyph glyph-name="guillemotleft" unicode="&#xab;" horiz-adv-x="485" 
d="M200 519l35 -23l-116 -208l116 -209l-35 -22l-136 211v39zM387 519l35 -23l-116 -208l116 -209l-35 -22l-136 211v39z" />
    <glyph glyph-name="logicalnot" unicode="&#xac;" horiz-adv-x="412" 
d="M357 345v-175h-51v127h-251v48h302z" />
    <glyph glyph-name="uni00AD" unicode="&#xad;" horiz-adv-x="332" 
d="M56 289v48h221v-48h-221z" />
    <glyph glyph-name="registered" unicode="&#xae;" horiz-adv-x="524" 
d="M364.5 707q45.5 -29 71.5 -83t26 -126q0 -71 -26 -126t-72 -84.5t-102 -29.5t-101.5 29t-71.5 82.5t-26 125.5q0 71 26 126t71.5 85t101.5 30q57 0 102.5 -29zM346 317.5q37 24.5 58.5 71t21.5 109.5q0 95 -45.5 149t-118.5 54q-46 0 -83.5 -25t-59 -71.5t-21.5 -109.5
t21.5 -109t58.5 -69.5t84 -23.5t84 24.5zM292 482l61 -118h-42l-53 112h-29v-112h-37v272h58q46 0 70 -21t24 -58q0 -58 -52 -75zM229 509h31q47 0 47 48q0 45 -51 45h-27v-93z" />
    <glyph glyph-name="macron" unicode="&#xaf;" horiz-adv-x="262" 
d="M237 677h-202v44h202v-44z" />
    <glyph glyph-name="degree" unicode="&#xb0;" horiz-adv-x="418" 
d="M90 435.5q-37 39.5 -37 110.5q0 47 17.5 81t46.5 51.5t62 17.5q54 0 90.5 -40t36.5 -111q0 -70 -36.5 -109.5t-90.5 -39.5q-52 0 -89 39.5zM237 464q21 27 21 81q0 55 -21 82t-58 27q-35 0 -56.5 -27t-21.5 -81t22 -81.5t56 -27.5q37 0 58 27z" />
    <glyph glyph-name="plusminus" unicode="&#xb1;" horiz-adv-x="407" 
d="M55 0v47h296v-47h-296zM229 514v-149h124v-49h-124v-148h-50v148h-124v49h124v149h50z" />
    <glyph glyph-name="uni00B2" unicode="&#xb2;" horiz-adv-x="328" 
d="M238.5 711q28.5 -31 28.5 -80q0 -39 -14 -72t-43.5 -72.5t-97.5 -121.5h164l-6 -42h-210v40q70 84 101.5 126t44 73t12.5 67q0 34 -16 53t-44 19q-42 0 -76 -44l-30 24q24 32 50.5 46.5t59.5 14.5q48 0 76.5 -31z" />
    <glyph glyph-name="uni00B3" unicode="&#xb3;" horiz-adv-x="328" 
d="M240 715q28 -29 28 -76q0 -40 -20.5 -64.5t-56.5 -31.5q39 -2 63.5 -29t24.5 -74q0 -54 -33 -89.5t-89 -35.5q-65 0 -108 56l28 25q18 -22 37 -31t42 -9q35 0 54.5 23t19.5 62q0 80 -74 80h-25l6 39h17q28 0 47.5 19t19.5 56q0 33 -16.5 51.5t-44.5 18.5q-22 0 -40 -8.5
t-38 -27.5l-25 27q24 24 49.5 36t56.5 12q49 0 77 -29z" />
    <glyph glyph-name="acute" unicode="&#xb4;" horiz-adv-x="241" 
d="M190 778l26 -47l-163 -85l-19 30z" />
    <glyph glyph-name="uni00B5" unicode="&#xb5;" horiz-adv-x="480" 
d="M363 -9q-10 32 -15 55t-7 55q-24 -51 -55 -81.5t-73 -30.5q-58 0 -85 59q11 -61 11 -127v-118l-55 -6v726h56v-374q0 -58 21.5 -84t55.5 -26q72 0 118 117v367h56v-346q0 -96 23 -179z" />
    <glyph glyph-name="paragraph" unicode="&#xb6;" horiz-adv-x="588" 
d="M467 685v-882l-51 -9v844h-103v-835l-51 -9v501q-95 4 -139 57t-44 138q0 93 51 144t143 51h194z" />
    <glyph glyph-name="periodcentered" unicode="&#xb7;" horiz-adv-x="186" 
d="M125.5 351q12.5 -13 12.5 -32t-12.5 -32.5t-32.5 -13.5t-32.5 13.5t-12.5 32.5t12.5 32t32.5 13t32.5 -13z" />
    <glyph glyph-name="cedilla" unicode="&#xb8;" horiz-adv-x="218" 
d="M117 -66q76 -10 76 -76q0 -40 -25.5 -62t-63.5 -22t-69 20l19 33q22 -13 47 -13q20 0 32.5 11t12.5 33q0 24 -17.5 35t-56.5 11l9 112h36v-82z" />
    <glyph glyph-name="uni00B9" unicode="&#xb9;" horiz-adv-x="329" 
d="M215 737v-414h-46v362l-83 -59l-23 32l111 79h41z" />
    <glyph glyph-name="ordmasculine" unicode="&#xba;" horiz-adv-x="414" 
d="M319 634q39 -51 39 -153q0 -101 -39.5 -154t-111.5 -53t-111.5 52t-39.5 153q0 100 40 153t111 53q73 0 112 -51zM135.5 603q-24.5 -38 -24.5 -124q0 -84 24.5 -122.5t71.5 -38.5q48 0 72.5 38.5t24.5 124.5q0 85 -24 122.5t-72 37.5t-72.5 -38zM59 0v47h296v-47h-296z
" />
    <glyph glyph-name="guillemotright" unicode="&#xbb;" horiz-adv-x="485" 
d="M98 519l137 -212v-39l-137 -211l-34 22l116 209l-116 208zM285 519l137 -212v-39l-137 -211l-34 22l116 209l-116 208z" />
    <glyph glyph-name="onequarter" unicode="&#xbc;" horiz-adv-x="754" 
d="M215 685v-414h-46v362l-83 -59l-23 32l111 79h41zM526 747l38 -16l-333 -801l-39 16zM713 144v-40h-45v-104h-46v104h-155v36l106 281l40 -16l-99 -261h108l7 116h39v-116h45z" />
    <glyph glyph-name="onehalf" unicode="&#xbd;" horiz-adv-x="755" 
d="M215 685v-414h-46v362l-83 -59l-23 32l111 79h41zM526 747l38 -16l-333 -801l-39 16zM665.5 388q28.5 -31 28.5 -80q0 -39 -14 -72t-43.5 -72.5t-97.5 -121.5h164l-6 -42h-210v40q70 84 101.5 126t44 73t12.5 67q0 34 -16 53t-44 19q-42 0 -76 -44l-30 24
q24 32 50.5 46.5t59.5 14.5q48 0 76.5 -31z" />
    <glyph glyph-name="threequarters" unicode="&#xbe;" horiz-adv-x="753" 
d="M240 663q28 -29 28 -76q0 -40 -20.5 -64.5t-56.5 -31.5q39 -2 63.5 -29t24.5 -74q0 -54 -33 -89.5t-89 -35.5q-65 0 -108 56l28 25q18 -22 37 -31t42 -9q35 0 54.5 23t19.5 62q0 80 -74 80h-25l6 39h17q28 0 47.5 19t19.5 56q0 33 -16.5 51.5t-44.5 18.5q-22 0 -40 -8.5
t-38 -27.5l-25 27q24 24 49.5 36t56.5 12q49 0 77 -29zM525 747l38 -16l-333 -801l-39 16zM712 144v-40h-45v-104h-46v104h-155v36l106 281l40 -16l-99 -261h108l7 116h39v-116h45z" />
    <glyph glyph-name="questiondown" unicode="&#xbf;" horiz-adv-x="381" 
d="M180 395.5q-13 13.5 -13 32.5t13 32t33 13t32 -13t12 -32t-12 -32.5t-32 -13.5t-33 13.5zM76.5 -164.5q-39.5 42.5 -39.5 103.5q0 35 10.5 60.5t25.5 42t40 38.5q37 32 55.5 60t18.5 76v33h53v-37q0 -41 -11 -69.5t-27 -46.5t-42 -40q-33 -28 -49.5 -52.5t-16.5 -64.5
q0 -45 25.5 -71.5t68.5 -26.5q36 0 64 17t56 56l36 -29q-33 -47 -72 -69.5t-87 -22.5q-69 0 -108.5 42.5z" />
    <glyph glyph-name="Agrave" unicode="&#xc0;" horiz-adv-x="478" 
d="M402 0l-48 188h-232l-48 -188h-57l186 685h72l186 -685h-59zM135 236h206l-103 401zM172 883l155 -93l-17 -32l-164 76z" />
    <glyph glyph-name="Aacute" unicode="&#xc1;" horiz-adv-x="478" 
d="M402 0l-48 188h-232l-48 -188h-57l186 685h72l186 -685h-59zM135 236h206l-103 401zM306 884l25 -49l-165 -77l-16 32z" />
    <glyph glyph-name="Acircumflex" unicode="&#xc2;" horiz-adv-x="478" 
d="M402 0l-48 188h-232l-48 -188h-57l186 685h72l186 -685h-59zM135 236h206l-103 401zM139 764l-24 25l107 103h35l107 -103l-25 -25l-100 79z" />
    <glyph glyph-name="Atilde" unicode="&#xc3;" horiz-adv-x="478" 
d="M402 0l-48 188h-232l-48 -188h-57l186 685h72l186 -685h-59zM135 236h206l-103 401zM261.5 801.5q-12.5 6.5 -30.5 18.5q-25 19 -39 19q-13 0 -23 -9t-23 -31l-32 16q31 66 77 66q14 0 27 -6.5t28 -17.5t23.5 -15.5t18.5 -4.5q13 0 23.5 10t22.5 33l32 -15
q-27 -70 -76 -70q-16 0 -28.5 6.5z" />
    <glyph glyph-name="Adieresis" unicode="&#xc4;" horiz-adv-x="478" 
d="M402 0l-48 188h-232l-48 -188h-57l186 685h72l186 -685h-59zM135 236h206l-103 401zM193.5 855q10.5 -11 10.5 -27q0 -17 -10.5 -28t-27.5 -11q-16 0 -26.5 11t-10.5 28q0 16 10.5 27t26.5 11q17 0 27.5 -11zM351.5 855q10.5 -11 10.5 -27q0 -17 -10.5 -28t-27.5 -11
q-16 0 -26.5 11t-10.5 28q0 16 10.5 27t26.5 11q17 0 27.5 -11z" />
    <glyph glyph-name="Aring" unicode="&#xc5;" horiz-adv-x="478" 
d="M402 0l-48 188h-232l-48 -188h-57l186 685h72l186 -685h-59zM135 236h206l-103 401zM301 921.5q23 -24.5 23 -68.5q0 -45 -23 -69.5t-61 -24.5t-61 24.5t-23 69.5q0 44 23 68.5t61 24.5t61 -24.5zM207 898.5q-11 -13.5 -11 -45.5t11 -46t33 -14t33.5 14t11.5 46
t-11.5 45.5t-33.5 13.5t-33 -13.5z" />
    <glyph glyph-name="AE" unicode="&#xc6;" horiz-adv-x="648" 
d="M424 49h187v-49h-234l-36 184h-229l-56 -184h-58l221 685h354l-7 -49h-261l52 -257h209v-48h-199zM127 233h204l-79 406z" />
    <glyph glyph-name="Ccedilla" unicode="&#xc7;" horiz-adv-x="455" 
d="M298 -11v-55q76 -10 76 -76q0 -40 -25.5 -62t-63.5 -22t-69 20l19 33q22 -13 47 -13q20 0 32.5 11t12.5 33q0 24 -17.5 35t-56.5 11l7 86q-95 11 -151 99.5t-56 253.5q0 119 30.5 198t82.5 117t118 38q45 0 79.5 -15.5t68.5 -47.5l-31 -36q-29 26 -55.5 37.5t-59.5 11.5
q-78 0 -125 -71t-47 -232q0 -157 46.5 -230t125.5 -73q38 0 64 14t55 40l33 -36q-60 -64 -140 -69z" />
    <glyph glyph-name="Egrave" unicode="&#xc8;" horiz-adv-x="420" 
d="M379 685l-6 -49h-228v-257h197v-48h-197v-282h239v-49h-296v685h291zM169 883l155 -93l-17 -32l-164 76z" />
    <glyph glyph-name="Eacute" unicode="&#xc9;" horiz-adv-x="420" 
d="M379 685l-6 -49h-228v-257h197v-48h-197v-282h239v-49h-296v685h291zM303 884l25 -49l-165 -77l-16 32z" />
    <glyph glyph-name="Ecircumflex" unicode="&#xca;" horiz-adv-x="420" 
d="M379 685l-6 -49h-228v-257h197v-48h-197v-282h239v-49h-296v685h291zM136 764l-24 25l107 103h35l107 -103l-25 -25l-100 79z" />
    <glyph glyph-name="Edieresis" unicode="&#xcb;" horiz-adv-x="420" 
d="M379 685l-6 -49h-228v-257h197v-48h-197v-282h239v-49h-296v685h291zM190.5 855q10.5 -11 10.5 -27q0 -17 -10.5 -28t-27.5 -11q-16 0 -26.5 11t-10.5 28q0 16 10.5 27t26.5 11q17 0 27.5 -11zM348.5 855q10.5 -11 10.5 -27q0 -17 -10.5 -28t-27.5 -11q-16 0 -26.5 11
t-10.5 28q0 16 10.5 27t26.5 11q17 0 27.5 -11z" />
    <glyph glyph-name="Igrave" unicode="&#xcc;" horiz-adv-x="233" 
d="M145 685v-685h-57v685h57zM48 883l155 -93l-17 -32l-164 76z" />
    <glyph glyph-name="Iacute" unicode="&#xcd;" horiz-adv-x="233" 
d="M145 685v-685h-57v685h57zM182 884l25 -49l-165 -77l-16 32z" />
    <glyph glyph-name="Icircumflex" unicode="&#xce;" horiz-adv-x="233" 
d="M145 685v-685h-57v685h57zM15 764l-24 25l107 103h35l107 -103l-25 -25l-100 79z" />
    <glyph glyph-name="Idieresis" unicode="&#xcf;" horiz-adv-x="233" 
d="M145 685v-685h-57v685h57zM69.5 855q10.5 -11 10.5 -27q0 -17 -10.5 -28t-27.5 -11q-16 0 -26.5 11t-10.5 28q0 16 10.5 27t26.5 11q17 0 27.5 -11zM227.5 855q10.5 -11 10.5 -27q0 -17 -10.5 -28t-27.5 -11q-16 0 -26.5 11t-10.5 28q0 16 10.5 27t26.5 11q17 0 27.5 -11
z" />
    <glyph glyph-name="Eth" unicode="&#xd0;" horiz-adv-x="529" 
d="M403.5 613q72.5 -72 72.5 -265q0 -194 -73 -271t-183 -77h-125v329h-75v47h75v309h116q120 0 192.5 -72zM362 113q53 65 53 235q0 119 -27.5 182.5t-69.5 84.5t-99 21h-67v-260h135v-47h-135v-281h72q85 0 138 65z" />
    <glyph glyph-name="Ntilde" unicode="&#xd1;" horiz-adv-x="551" 
d="M464 0h-76l-254 620q8 -94 8 -233v-387h-54v685h76l253 -620q-8 120 -8 201v419h55v-685zM304.5 801.5q-12.5 6.5 -30.5 18.5q-25 19 -39 19q-13 0 -23 -9t-23 -31l-32 16q31 66 77 66q14 0 27 -6.5t28 -17.5t23.5 -15.5t18.5 -4.5q13 0 23.5 10t22.5 33l32 -15
q-27 -70 -76 -70q-16 0 -28.5 6.5z" />
    <glyph glyph-name="Ograve" unicode="&#xd2;" horiz-adv-x="570" 
d="M455 607.5q62 -88.5 62 -265.5q0 -174 -61.5 -263.5t-170.5 -89.5q-107 0 -169.5 89t-62.5 263t63 264.5t169 90.5q108 0 170 -88.5zM159 572q-45 -74 -45 -231q0 -155 45.5 -228.5t125.5 -73.5q83 0 127 72.5t44 230.5q0 304 -171 304q-81 0 -126 -74zM217 883l155 -93
l-17 -32l-164 76z" />
    <glyph glyph-name="Oacute" unicode="&#xd3;" horiz-adv-x="570" 
d="M455 607.5q62 -88.5 62 -265.5q0 -174 -61.5 -263.5t-170.5 -89.5q-107 0 -169.5 89t-62.5 263t63 264.5t169 90.5q108 0 170 -88.5zM159 572q-45 -74 -45 -231q0 -155 45.5 -228.5t125.5 -73.5q83 0 127 72.5t44 230.5q0 304 -171 304q-81 0 -126 -74zM351 884l25 -49
l-165 -77l-16 32z" />
    <glyph glyph-name="Ocircumflex" unicode="&#xd4;" horiz-adv-x="570" 
d="M455 607.5q62 -88.5 62 -265.5q0 -174 -61.5 -263.5t-170.5 -89.5q-107 0 -169.5 89t-62.5 263t63 264.5t169 90.5q108 0 170 -88.5zM159 572q-45 -74 -45 -231q0 -155 45.5 -228.5t125.5 -73.5q83 0 127 72.5t44 230.5q0 304 -171 304q-81 0 -126 -74zM184 764l-24 25
l107 103h35l107 -103l-25 -25l-100 79z" />
    <glyph glyph-name="Otilde" unicode="&#xd5;" horiz-adv-x="570" 
d="M455 607.5q62 -88.5 62 -265.5q0 -174 -61.5 -263.5t-170.5 -89.5q-107 0 -169.5 89t-62.5 263t63 264.5t169 90.5q108 0 170 -88.5zM159 572q-45 -74 -45 -231q0 -155 45.5 -228.5t125.5 -73.5q83 0 127 72.5t44 230.5q0 304 -171 304q-81 0 -126 -74zM306.5 801.5
q-12.5 6.5 -30.5 18.5q-25 19 -39 19q-13 0 -23 -9t-23 -31l-32 16q31 66 77 66q14 0 27 -6.5t28 -17.5t23.5 -15.5t18.5 -4.5q13 0 23.5 10t22.5 33l32 -15q-27 -70 -76 -70q-16 0 -28.5 6.5z" />
    <glyph glyph-name="Odieresis" unicode="&#xd6;" horiz-adv-x="570" 
d="M455 607.5q62 -88.5 62 -265.5q0 -174 -61.5 -263.5t-170.5 -89.5q-107 0 -169.5 89t-62.5 263t63 264.5t169 90.5q108 0 170 -88.5zM159 572q-45 -74 -45 -231q0 -155 45.5 -228.5t125.5 -73.5q83 0 127 72.5t44 230.5q0 304 -171 304q-81 0 -126 -74zM238.5 855
q10.5 -11 10.5 -27q0 -17 -10.5 -28t-27.5 -11q-16 0 -26.5 11t-10.5 28q0 16 10.5 27t26.5 11q17 0 27.5 -11zM396.5 855q10.5 -11 10.5 -27q0 -17 -10.5 -28t-27.5 -11q-16 0 -26.5 11t-10.5 28q0 16 10.5 27t26.5 11q17 0 27.5 -11z" />
    <glyph glyph-name="multiply" unicode="&#xd7;" horiz-adv-x="406" 
d="M305 470l38 -29l-106 -134l106 -134l-38 -28l-102 131l-102 -131l-37 28l105 134l-105 134l37 29l102 -132z" />
    <glyph glyph-name="Oslash" unicode="&#xd8;" horiz-adv-x="570" 
d="M484 551.5q33 -82.5 33 -209.5q0 -174 -61.5 -263.5t-170.5 -89.5q-30 0 -62 8l-28 -116l-49 13l33 123q-60 35 -93 116.5t-33 207.5q0 116 29 196t81 119.5t122 39.5q31 0 60 -8l30 122l49 -14l-33 -127q60 -35 93 -117.5zM200 65l136 574q-22 7 -51 7q-82 0 -127 -74
t-45 -231q0 -215 87 -276zM412.5 113q43.5 74 43.5 236q0 213 -85 272l-137 -574q21 -8 51 -8q84 0 127.5 74z" />
    <glyph glyph-name="Ugrave" unicode="&#xd9;" horiz-adv-x="531" 
d="M454 178q0 -82 -48.5 -135.5t-139.5 -53.5q-92 0 -140 53t-48 136v507h57v-502q0 -68 32.5 -105.5t98.5 -37.5t98 38t32 105v502h58v-507zM198 883l155 -93l-17 -32l-164 76z" />
    <glyph glyph-name="Uacute" unicode="&#xda;" horiz-adv-x="531" 
d="M454 178q0 -82 -48.5 -135.5t-139.5 -53.5q-92 0 -140 53t-48 136v507h57v-502q0 -68 32.5 -105.5t98.5 -37.5t98 38t32 105v502h58v-507zM332 884l25 -49l-165 -77l-16 32z" />
    <glyph glyph-name="Ucircumflex" unicode="&#xdb;" horiz-adv-x="531" 
d="M454 178q0 -82 -48.5 -135.5t-139.5 -53.5q-92 0 -140 53t-48 136v507h57v-502q0 -68 32.5 -105.5t98.5 -37.5t98 38t32 105v502h58v-507zM165 764l-24 25l107 103h35l107 -103l-25 -25l-100 79z" />
    <glyph glyph-name="Udieresis" unicode="&#xdc;" horiz-adv-x="531" 
d="M454 178q0 -82 -48.5 -135.5t-139.5 -53.5q-92 0 -140 53t-48 136v507h57v-502q0 -68 32.5 -105.5t98.5 -37.5t98 38t32 105v502h58v-507zM219.5 855q10.5 -11 10.5 -27q0 -17 -10.5 -28t-27.5 -11q-16 0 -26.5 11t-10.5 28q0 16 10.5 27t26.5 11q17 0 27.5 -11z
M377.5 855q10.5 -11 10.5 -27q0 -17 -10.5 -28t-27.5 -11q-16 0 -26.5 11t-10.5 28q0 16 10.5 27t26.5 11q17 0 27.5 -11z" />
    <glyph glyph-name="Yacute" unicode="&#xdd;" horiz-adv-x="434" 
d="M425 685l-178 -417v-268h-58v267l-180 418h62l148 -365l147 365h59zM283 884l25 -49l-165 -77l-16 32z" />
    <glyph glyph-name="Thorn" unicode="&#xde;" horiz-adv-x="466" 
d="M378 511.5q58 -50.5 58 -155.5q0 -219 -234 -219h-57v-137h-57v685h57v-123h57q118 0 176 -50.5zM332 223q43 38 43 132q0 84 -41.5 121.5t-131.5 37.5h-57v-329h55q89 0 132 38z" />
    <glyph glyph-name="germandbls" unicode="&#xdf;" horiz-adv-x="480" 
d="M342 705.5q38 -37.5 38 -95.5q0 -40 -14.5 -65.5t-41.5 -53.5q-20 -21 -29 -34.5t-9 -32.5q0 -23 13.5 -40t44.5 -44q31 -26 50.5 -48t34 -56t14.5 -81q0 -74 -38 -120t-98 -46q-46 0 -81 21l18 40q28 -14 57 -14q39 0 62 31t23 88q0 39 -12 67.5t-29 48t-45 43.5
q-33 29 -49 51.5t-16 55.5q0 25 10.5 42t31.5 40q25 27 37.5 49t12.5 56q0 43 -23 66t-62 23q-47 0 -74.5 -33.5t-27.5 -95.5v-568h-56v570q0 78 43.5 125.5t114.5 47.5q62 0 100 -37.5z" />
    <glyph glyph-name="agrave" unicode="&#xe0;" horiz-adv-x="443" 
d="M367.5 52.5q8.5 -15.5 26.5 -24.5l-12 -39q-32 8 -49 27t-22 55q-47 -82 -131 -82q-62 0 -99 43t-37 113q0 82 49.5 125.5t141.5 43.5h69v60q0 57 -22.5 85t-70.5 28q-55 0 -120 -28l-16 40q75 35 141 35q72 0 107.5 -40.5t35.5 -115.5v-278q0 -32 8.5 -47.5zM304 131
v142h-64q-70 0 -103.5 -31t-33.5 -95q0 -55 22.5 -84t63.5 -29q76 0 115 97zM155 778l155 -102l-19 -30l-163 85z" />
    <glyph glyph-name="aacute" unicode="&#xe1;" horiz-adv-x="443" 
d="M367.5 52.5q8.5 -15.5 26.5 -24.5l-12 -39q-32 8 -49 27t-22 55q-47 -82 -131 -82q-62 0 -99 43t-37 113q0 82 49.5 125.5t141.5 43.5h69v60q0 57 -22.5 85t-70.5 28q-55 0 -120 -28l-16 40q75 35 141 35q72 0 107.5 -40.5t35.5 -115.5v-278q0 -32 8.5 -47.5zM304 131
v142h-64q-70 0 -103.5 -31t-33.5 -95q0 -55 22.5 -84t63.5 -29q76 0 115 97zM274 778l26 -47l-163 -85l-19 30z" />
    <glyph glyph-name="acircumflex" unicode="&#xe2;" horiz-adv-x="443" 
d="M367.5 52.5q8.5 -15.5 26.5 -24.5l-12 -39q-32 8 -49 27t-22 55q-47 -82 -131 -82q-62 0 -99 43t-37 113q0 82 49.5 125.5t141.5 43.5h69v60q0 57 -22.5 85t-70.5 28q-55 0 -120 -28l-16 40q75 35 141 35q72 0 107.5 -40.5t35.5 -115.5v-278q0 -32 8.5 -47.5zM304 131
v142h-64q-70 0 -103.5 -31t-33.5 -95q0 -55 22.5 -84t63.5 -29q76 0 115 97zM114 646l-24 25l107 108h35l107 -108l-25 -25l-100 84z" />
    <glyph glyph-name="atilde" unicode="&#xe3;" horiz-adv-x="443" 
d="M367.5 52.5q8.5 -15.5 26.5 -24.5l-12 -39q-32 8 -49 27t-22 55q-47 -82 -131 -82q-62 0 -99 43t-37 113q0 82 49.5 125.5t141.5 43.5h69v60q0 57 -22.5 85t-70.5 28q-55 0 -120 -28l-16 40q75 35 141 35q72 0 107.5 -40.5t35.5 -115.5v-278q0 -32 8.5 -47.5zM304 131
v142h-64q-70 0 -103.5 -31t-33.5 -95q0 -55 22.5 -84t63.5 -29q76 0 115 97zM236.5 675.5q-12.5 6.5 -30.5 18.5q-25 19 -39 19q-13 0 -23 -9t-23 -31l-32 16q31 66 77 66q14 0 27 -6.5t28 -17.5t23.5 -15.5t18.5 -4.5q13 0 23.5 10t22.5 33l32 -15q-27 -70 -76 -70
q-16 0 -28.5 6.5z" />
    <glyph glyph-name="adieresis" unicode="&#xe4;" horiz-adv-x="443" 
d="M367.5 52.5q8.5 -15.5 26.5 -24.5l-12 -39q-32 8 -49 27t-22 55q-47 -82 -131 -82q-62 0 -99 43t-37 113q0 82 49.5 125.5t141.5 43.5h69v60q0 57 -22.5 85t-70.5 28q-55 0 -120 -28l-16 40q75 35 141 35q72 0 107.5 -40.5t35.5 -115.5v-278q0 -32 8.5 -47.5zM304 131
v142h-64q-70 0 -103.5 -31t-33.5 -95q0 -55 22.5 -84t63.5 -29q76 0 115 97zM162.5 729q10.5 -11 10.5 -27q0 -17 -10.5 -28t-27.5 -11q-16 0 -26.5 11t-10.5 28q0 16 10.5 27t26.5 11q17 0 27.5 -11zM320.5 729q10.5 -11 10.5 -27q0 -17 -10.5 -28t-27.5 -11
q-16 0 -26.5 11t-10.5 28q0 16 10.5 27t26.5 11q17 0 27.5 -11z" />
    <glyph glyph-name="aring" unicode="&#xe5;" horiz-adv-x="443" 
d="M367.5 52.5q8.5 -15.5 26.5 -24.5l-12 -39q-32 8 -49 27t-22 55q-47 -82 -131 -82q-62 0 -99 43t-37 113q0 82 49.5 125.5t141.5 43.5h69v60q0 57 -22.5 85t-70.5 28q-55 0 -120 -28l-16 40q75 35 141 35q72 0 107.5 -40.5t35.5 -115.5v-278q0 -32 8.5 -47.5zM304 131
v142h-64q-70 0 -103.5 -31t-33.5 -95q0 -55 22.5 -84t63.5 -29q76 0 115 97zM276 795.5q23 -24.5 23 -68.5q0 -45 -23 -69.5t-61 -24.5t-61 24.5t-23 69.5q0 44 23 68.5t61 24.5t61 -24.5zM182 772.5q-11 -13.5 -11 -45.5t11 -46t33 -14t33.5 14t11.5 46t-11.5 45.5
t-33.5 13.5t-33 -13.5z" />
    <glyph glyph-name="ae" unicode="&#xe6;" horiz-adv-x="697" 
d="M649 239h-286q4 -103 39 -152.5t92 -49.5q33 0 59 12t54 37l27 -33q-31 -31 -66 -47.5t-78 -16.5q-53 0 -92.5 27t-62.5 78q-33 -56 -69.5 -80.5t-83.5 -24.5q-63 0 -100.5 43t-37.5 113q0 82 50 125.5t140 43.5h71v51q0 63 -22.5 92.5t-74.5 29.5q-47 0 -116 -29l-14 41
q76 35 137 35q56 0 87.5 -25t43.5 -74q47 99 139 99q80 0 123 -65t43 -188q0 -22 -2 -42zM595 299q0 188 -110 188q-53 0 -85.5 -50.5t-36.5 -153.5h232v16zM259.5 59.5q29.5 25.5 59.5 81.5q-14 53 -14 115v17h-67q-66 0 -100.5 -31.5t-34.5 -94.5q0 -54 23.5 -83.5
t64.5 -29.5q39 0 68.5 25.5z" />
    <glyph glyph-name="ccedilla" unicode="&#xe7;" horiz-adv-x="382" 
d="M324 -142q0 -40 -25.5 -62t-63.5 -22t-69 20l19 33q22 -13 47 -13q20 0 32.5 11t12.5 33q0 24 -17.5 35t-56.5 11l7 87q-76 10 -117.5 77t-41.5 190q0 133 50 204.5t137 71.5q36 0 65 -12.5t57 -40.5l-27 -34q-22 20 -44.5 29.5t-49.5 9.5q-60 0 -94 -55t-34 -172
q0 -221 127 -221q51 0 97 41l28 -34q-52 -52 -115 -56v-55q76 -10 76 -76z" />
    <glyph glyph-name="egrave" unicode="&#xe8;" horiz-adv-x="443" 
d="M395 239h-286q4 -108 37.5 -155t91.5 -47q34 0 60 11.5t54 36.5l28 -33q-31 -31 -65.5 -47t-77.5 -16q-87 0 -136.5 68.5t-49.5 199.5q0 133 47.5 205t130.5 72q82 0 125 -64.5t43 -188.5q0 -22 -2 -42zM342 299q0 94 -28 141t-85 47q-113 0 -120 -204h233v16zM169 778
l155 -102l-19 -30l-163 85z" />
    <glyph glyph-name="eacute" unicode="&#xe9;" horiz-adv-x="443" 
d="M395 239h-286q4 -108 37.5 -155t91.5 -47q34 0 60 11.5t54 36.5l28 -33q-31 -31 -65.5 -47t-77.5 -16q-87 0 -136.5 68.5t-49.5 199.5q0 133 47.5 205t130.5 72q82 0 125 -64.5t43 -188.5q0 -22 -2 -42zM342 299q0 94 -28 141t-85 47q-113 0 -120 -204h233v16zM288 778
l26 -47l-163 -85l-19 30z" />
    <glyph glyph-name="ecircumflex" unicode="&#xea;" horiz-adv-x="443" 
d="M395 239h-286q4 -108 37.5 -155t91.5 -47q34 0 60 11.5t54 36.5l28 -33q-31 -31 -65.5 -47t-77.5 -16q-87 0 -136.5 68.5t-49.5 199.5q0 133 47.5 205t130.5 72q82 0 125 -64.5t43 -188.5q0 -22 -2 -42zM342 299q0 94 -28 141t-85 47q-113 0 -120 -204h233v16zM128 646
l-24 25l107 108h35l107 -108l-25 -25l-100 84z" />
    <glyph glyph-name="edieresis" unicode="&#xeb;" horiz-adv-x="443" 
d="M395 239h-286q4 -108 37.5 -155t91.5 -47q34 0 60 11.5t54 36.5l28 -33q-31 -31 -65.5 -47t-77.5 -16q-87 0 -136.5 68.5t-49.5 199.5q0 133 47.5 205t130.5 72q82 0 125 -64.5t43 -188.5q0 -22 -2 -42zM342 299q0 94 -28 141t-85 47q-113 0 -120 -204h233v16zM176.5 729
q10.5 -11 10.5 -27q0 -17 -10.5 -28t-27.5 -11q-16 0 -26.5 11t-10.5 28q0 16 10.5 27t26.5 11q17 0 27.5 -11zM334.5 729q10.5 -11 10.5 -27q0 -17 -10.5 -28t-27.5 -11q-16 0 -26.5 11t-10.5 28q0 16 10.5 27t26.5 11q17 0 27.5 -11z" />
    <glyph glyph-name="igrave" unicode="&#xec;" horiz-adv-x="224" 
d="M140 523v-523h-56v523h56zM52 778l155 -102l-19 -30l-163 85z" />
    <glyph glyph-name="iacute" unicode="&#xed;" horiz-adv-x="224" 
d="M140 523v-523h-56v523h56zM171 778l26 -47l-163 -85l-19 30z" />
    <glyph glyph-name="icircumflex" unicode="&#xee;" horiz-adv-x="224" 
d="M140 523v-523h-56v523h56zM11 646l-24 25l107 108h35l107 -108l-25 -25l-100 84z" />
    <glyph glyph-name="idieresis" unicode="&#xef;" horiz-adv-x="224" 
d="M140 523v-523h-56v523h56zM59.5 729q10.5 -11 10.5 -27q0 -17 -10.5 -28t-27.5 -11q-16 0 -26.5 11t-10.5 28q0 16 10.5 27t26.5 11q17 0 27.5 -11zM217.5 729q10.5 -11 10.5 -27q0 -17 -10.5 -28t-27.5 -11q-16 0 -26.5 11t-10.5 28q0 16 10.5 27t26.5 11q17 0 27.5 -11
z" />
    <glyph glyph-name="eth" unicode="&#xf0;" horiz-adv-x="461" 
d="M372 509.5q33 -91.5 33 -228.5q0 -143 -48 -217.5t-131 -74.5q-81 0 -128 64t-47 180q0 65 19.5 118.5t56 85t86.5 31.5q40 0 71.5 -18.5t57.5 -55.5q-9 76 -33.5 132t-72.5 103l-64 -78l-39 19l70 85q-55 34 -99 45l11 43q58 -13 119 -54l58 72l35 -26l-59 -72
q71 -62 104 -153.5zM316 98q32 62 32 185q0 34 -1 49q-53 90 -125 90q-55 0 -84 -51.5t-29 -137.5q0 -96 30.5 -146.5t86.5 -50.5q58 0 90 62z" />
    <glyph glyph-name="ntilde" unicode="&#xf1;" horiz-adv-x="480" 
d="M368.5 493.5q31.5 -40.5 31.5 -110.5v-383h-56v376q0 112 -75 112q-71 0 -129 -113v-375h-56v523h48l6 -90q29 49 62 75t80 26q57 0 88.5 -40.5zM265.5 675.5q-12.5 6.5 -30.5 18.5q-25 19 -39 19q-13 0 -23 -9t-23 -31l-32 16q31 66 77 66q14 0 27 -6.5t28 -17.5
t23.5 -15.5t18.5 -4.5q13 0 23.5 10t22.5 33l32 -15q-27 -70 -76 -70q-16 0 -28.5 6.5z" />
    <glyph glyph-name="ograve" unicode="&#xf2;" horiz-adv-x="472" 
d="M373 465.5q48 -68.5 48 -202.5q0 -131 -49.5 -202.5t-136.5 -71.5t-135.5 71t-48.5 201q0 132 49 202.5t136 70.5q89 0 137 -68.5zM110 261q0 -225 125 -225q127 0 127 227q0 115 -32 169t-94 54q-126 0 -126 -225zM176 778l155 -102l-19 -30l-163 85z" />
    <glyph glyph-name="oacute" unicode="&#xf3;" horiz-adv-x="472" 
d="M373 465.5q48 -68.5 48 -202.5q0 -131 -49.5 -202.5t-136.5 -71.5t-135.5 71t-48.5 201q0 132 49 202.5t136 70.5q89 0 137 -68.5zM110 261q0 -225 125 -225q127 0 127 227q0 115 -32 169t-94 54q-126 0 -126 -225zM295 778l26 -47l-163 -85l-19 30z" />
    <glyph glyph-name="ocircumflex" unicode="&#xf4;" horiz-adv-x="472" 
d="M373 465.5q48 -68.5 48 -202.5q0 -131 -49.5 -202.5t-136.5 -71.5t-135.5 71t-48.5 201q0 132 49 202.5t136 70.5q89 0 137 -68.5zM110 261q0 -225 125 -225q127 0 127 227q0 115 -32 169t-94 54q-126 0 -126 -225zM135 646l-24 25l107 108h35l107 -108l-25 -25l-100 84z
" />
    <glyph glyph-name="otilde" unicode="&#xf5;" horiz-adv-x="472" 
d="M373 465.5q48 -68.5 48 -202.5q0 -131 -49.5 -202.5t-136.5 -71.5t-135.5 71t-48.5 201q0 132 49 202.5t136 70.5q89 0 137 -68.5zM110 261q0 -225 125 -225q127 0 127 227q0 115 -32 169t-94 54q-126 0 -126 -225zM257.5 675.5q-12.5 6.5 -30.5 18.5q-25 19 -39 19
q-13 0 -23 -9t-23 -31l-32 16q31 66 77 66q14 0 27 -6.5t28 -17.5t23.5 -15.5t18.5 -4.5q13 0 23.5 10t22.5 33l32 -15q-27 -70 -76 -70q-16 0 -28.5 6.5z" />
    <glyph glyph-name="odieresis" unicode="&#xf6;" horiz-adv-x="472" 
d="M373 465.5q48 -68.5 48 -202.5q0 -131 -49.5 -202.5t-136.5 -71.5t-135.5 71t-48.5 201q0 132 49 202.5t136 70.5q89 0 137 -68.5zM110 261q0 -225 125 -225q127 0 127 227q0 115 -32 169t-94 54q-126 0 -126 -225zM183.5 729q10.5 -11 10.5 -27q0 -17 -10.5 -28
t-27.5 -11q-16 0 -26.5 11t-10.5 28q0 16 10.5 27t26.5 11q17 0 27.5 -11zM341.5 729q10.5 -11 10.5 -27q0 -17 -10.5 -28t-27.5 -11q-16 0 -26.5 11t-10.5 28q0 16 10.5 27t26.5 11q17 0 27.5 -11z" />
    <glyph glyph-name="divide" unicode="&#xf7;" horiz-adv-x="406" 
d="M235.5 145q12.5 -13 12.5 -32t-12.5 -32.5t-32.5 -13.5t-32.5 13.5t-12.5 32.5t12.5 32t32.5 13t32.5 -13zM235.5 581q12.5 -13 12.5 -32t-12.5 -32.5t-32.5 -13.5t-32.5 13.5t-12.5 32.5t12.5 32t32.5 13t32.5 -13zM55 308v47h296v-47h-296z" />
    <glyph glyph-name="oslash" unicode="&#xf8;" horiz-adv-x="472" 
d="M397.5 418q23.5 -62 23.5 -155q0 -131 -49.5 -202.5t-136.5 -71.5q-25 0 -48 6l-33 -120l-46 13l37 126q-46 30 -70 93t-24 154q0 132 49 202.5t136 70.5q26 0 50 -6l33 120l45 -13l-35 -126q45 -29 68.5 -91zM164 60l112 421q-18 6 -40 6q-127 0 -127 -226
q0 -152 55 -201zM330.5 90.5q32.5 54.5 32.5 172.5q0 80 -13.5 128.5t-41.5 72.5l-111 -423q20 -5 38 -5q63 0 95.5 54.5z" />
    <glyph glyph-name="ugrave" unicode="&#xf9;" horiz-adv-x="476" 
d="M392 0h-48l-4 87q-51 -98 -136 -98q-58 0 -91.5 39t-33.5 104v391h56v-386q0 -50 20.5 -76t57.5 -26q39 0 69 28.5t54 78.5v381h56v-523zM176 778l155 -102l-19 -30l-163 85z" />
    <glyph glyph-name="uacute" unicode="&#xfa;" horiz-adv-x="476" 
d="M392 0h-48l-4 87q-51 -98 -136 -98q-58 0 -91.5 39t-33.5 104v391h56v-386q0 -50 20.5 -76t57.5 -26q39 0 69 28.5t54 78.5v381h56v-523zM295 778l26 -47l-163 -85l-19 30z" />
    <glyph glyph-name="ucircumflex" unicode="&#xfb;" horiz-adv-x="476" 
d="M392 0h-48l-4 87q-51 -98 -136 -98q-58 0 -91.5 39t-33.5 104v391h56v-386q0 -50 20.5 -76t57.5 -26q39 0 69 28.5t54 78.5v381h56v-523zM135 646l-24 25l107 108h35l107 -108l-25 -25l-100 84z" />
    <glyph glyph-name="udieresis" unicode="&#xfc;" horiz-adv-x="476" 
d="M392 0h-48l-4 87q-51 -98 -136 -98q-58 0 -91.5 39t-33.5 104v391h56v-386q0 -50 20.5 -76t57.5 -26q39 0 69 28.5t54 78.5v381h56v-523zM183.5 729q10.5 -11 10.5 -27q0 -17 -10.5 -28t-27.5 -11q-16 0 -26.5 11t-10.5 28q0 16 10.5 27t26.5 11q17 0 27.5 -11z
M341.5 729q10.5 -11 10.5 -27q0 -17 -10.5 -28t-27.5 -11q-16 0 -26.5 11t-10.5 28q0 16 10.5 27t26.5 11q17 0 27.5 -11z" />
    <glyph glyph-name="yacute" unicode="&#xfd;" horiz-adv-x="396" 
d="M234 -2q-24 -90 -64 -136.5t-117 -65.5l-7 44q43 12 68 31.5t40 48.5t30 80h-21l-147 523h57l127 -481l124 481h57zM259 778l26 -47l-163 -85l-19 30z" />
    <glyph glyph-name="thorn" unicode="&#xfe;" horiz-adv-x="476" 
d="M385 466q40 -68 40 -202q0 -132 -43.5 -203.5t-121.5 -71.5q-38 0 -68.5 19.5t-51.5 52.5v-256l-56 -10v941l56 7v-290q50 81 129 81q76 0 116 -68zM365 264q0 116 -26.5 169.5t-80.5 53.5q-67 0 -118 -88v-284q46 -78 111 -78q114 0 114 227z" />
    <glyph glyph-name="ydieresis" unicode="&#xff;" horiz-adv-x="396" 
d="M234 -2q-24 -90 -64 -136.5t-117 -65.5l-7 44q43 12 68 31.5t40 48.5t30 80h-21l-147 523h57l127 -481l124 481h57zM147.5 729q10.5 -11 10.5 -27q0 -17 -10.5 -28t-27.5 -11q-16 0 -26.5 11t-10.5 28q0 16 10.5 27t26.5 11q17 0 27.5 -11zM305.5 729q10.5 -11 10.5 -27
q0 -17 -10.5 -28t-27.5 -11q-16 0 -26.5 11t-10.5 28q0 16 10.5 27t26.5 11q17 0 27.5 -11z" />
    <glyph glyph-name="Amacron" unicode="&#x100;" horiz-adv-x="478" 
d="M402 0l-48 188h-232l-48 -188h-57l186 685h72l186 -685h-59zM135 236h206l-103 401zM341 803h-202v44h202v-44z" />
    <glyph glyph-name="amacron" unicode="&#x101;" horiz-adv-x="443" 
d="M367.5 52.5q8.5 -15.5 26.5 -24.5l-12 -39q-32 8 -49 27t-22 55q-47 -82 -131 -82q-62 0 -99 43t-37 113q0 82 49.5 125.5t141.5 43.5h69v60q0 57 -22.5 85t-70.5 28q-55 0 -120 -28l-16 40q75 35 141 35q72 0 107.5 -40.5t35.5 -115.5v-278q0 -32 8.5 -47.5zM304 131
v142h-64q-70 0 -103.5 -31t-33.5 -95q0 -55 22.5 -84t63.5 -29q76 0 115 97zM316 677h-202v44h202v-44z" />
    <glyph glyph-name="Abreve" unicode="&#x102;" horiz-adv-x="478" 
d="M402 0l-48 188h-232l-48 -188h-57l186 685h72l186 -685h-59zM135 236h206l-103 401zM165 791.5q-30 26.5 -35 72.5l36 9q8 -29 26.5 -45.5t46.5 -16.5t47.5 16.5t27.5 45.5l36 -9q-5 -46 -35.5 -72.5t-75.5 -26.5q-44 0 -74 26.5z" />
    <glyph glyph-name="abreve" unicode="&#x103;" horiz-adv-x="443" 
d="M367.5 52.5q8.5 -15.5 26.5 -24.5l-12 -39q-32 8 -49 27t-22 55q-47 -82 -131 -82q-62 0 -99 43t-37 113q0 82 49.5 125.5t141.5 43.5h69v60q0 57 -22.5 85t-70.5 28q-55 0 -120 -28l-16 40q75 35 141 35q72 0 107.5 -40.5t35.5 -115.5v-278q0 -32 8.5 -47.5zM304 131
v142h-64q-70 0 -103.5 -31t-33.5 -95q0 -55 22.5 -84t63.5 -29q76 0 115 97zM139.5 682q-29.5 29 -34.5 81l36 8q16 -73 73 -73q59 0 74 73l37 -8q-5 -52 -35 -81t-76 -29q-45 0 -74.5 29z" />
    <glyph glyph-name="Aogonek" unicode="&#x104;" horiz-adv-x="478" 
d="M364 -56.5q-22 -26.5 -22 -63.5q0 -51 51 -51q20 0 47 6l-5 -45q-28 -7 -48 -7q-45 0 -69.5 25t-24.5 66q0 43 26 75.5t80 60.5l-45 178h-232l-48 -188h-57l186 685h72l186 -685h-20q-55 -30 -77 -56.5zM135 236h206l-103 401z" />
    <glyph glyph-name="aogonek" unicode="&#x105;" horiz-adv-x="443" 
d="M382 -11h-1v0q-55 -30 -77 -56.5t-22 -63.5q0 -51 51 -51q20 0 47 6l-5 -45q-28 -7 -48 -7q-45 0 -69.5 25t-24.5 66q0 45 28.5 78.5t86.5 61.5q-30 19 -37 68q-47 -82 -131 -82q-62 0 -99 43t-37 113q0 82 49.5 125.5t141.5 43.5h69v60q0 57 -22.5 85t-70.5 28
q-55 0 -120 -28l-16 40q75 35 141 35q72 0 107.5 -40.5t35.5 -115.5v-278q0 -32 8.5 -47.5t26.5 -24.5zM304 131v142h-64q-70 0 -103.5 -31t-33.5 -95q0 -55 22.5 -84t63.5 -29q76 0 115 97z" />
    <glyph glyph-name="Cacute" unicode="&#x106;" horiz-adv-x="455" 
d="M363.5 680.5q34.5 -15.5 68.5 -47.5l-31 -36q-29 26 -55.5 37.5t-59.5 11.5q-78 0 -125 -71t-47 -232q0 -157 46.5 -230t125.5 -73q38 0 64 14t55 40l33 -36q-65 -69 -153 -69q-105 0 -168.5 89t-63.5 265q0 119 30.5 198t82.5 117t118 38q45 0 79.5 -15.5zM351 884
l25 -49l-165 -77l-16 32z" />
    <glyph glyph-name="cacute" unicode="&#x107;" horiz-adv-x="382" 
d="M303 521.5q29 -12.5 57 -40.5l-27 -34q-22 20 -44.5 29.5t-49.5 9.5q-60 0 -94 -55t-34 -172q0 -221 127 -221q51 0 97 41l28 -34q-56 -56 -125 -56q-88 0 -137.5 67.5t-49.5 201.5q0 133 50 204.5t137 71.5q36 0 65 -12.5zM296 778l26 -47l-163 -85l-19 30z" />
    <glyph glyph-name="Ccircumflex" unicode="&#x108;" horiz-adv-x="455" 
d="M363.5 680.5q34.5 -15.5 68.5 -47.5l-31 -36q-29 26 -55.5 37.5t-59.5 11.5q-78 0 -125 -71t-47 -232q0 -157 46.5 -230t125.5 -73q38 0 64 14t55 40l33 -36q-65 -69 -153 -69q-105 0 -168.5 89t-63.5 265q0 119 30.5 198t82.5 117t118 38q45 0 79.5 -15.5zM184 764
l-24 25l107 103h35l107 -103l-25 -25l-100 79z" />
    <glyph glyph-name="ccircumflex" unicode="&#x109;" horiz-adv-x="382" 
d="M303 521.5q29 -12.5 57 -40.5l-27 -34q-22 20 -44.5 29.5t-49.5 9.5q-60 0 -94 -55t-34 -172q0 -221 127 -221q51 0 97 41l28 -34q-56 -56 -125 -56q-88 0 -137.5 67.5t-49.5 201.5q0 133 50 204.5t137 71.5q36 0 65 -12.5zM136 646l-24 25l107 108h35l107 -108l-25 -25
l-100 84z" />
    <glyph glyph-name="Cdotaccent" unicode="&#x10a;" horiz-adv-x="455" 
d="M363.5 680.5q34.5 -15.5 68.5 -47.5l-31 -36q-29 26 -55.5 37.5t-59.5 11.5q-78 0 -125 -71t-47 -232q0 -157 46.5 -230t125.5 -73q38 0 64 14t55 40l33 -36q-65 -69 -153 -69q-105 0 -168.5 89t-63.5 265q0 119 30.5 198t82.5 117t118 38q45 0 79.5 -15.5zM314 866
q11 -12 11 -30q0 -16 -11 -28t-29 -12q-17 0 -28.5 12t-11.5 28q0 18 11 30t29 12t29 -12z" />
    <glyph glyph-name="cdotaccent" unicode="&#x10b;" horiz-adv-x="382" 
d="M303 521.5q29 -12.5 57 -40.5l-27 -34q-22 20 -44.5 29.5t-49.5 9.5q-60 0 -94 -55t-34 -172q0 -221 127 -221q51 0 97 41l28 -34q-56 -56 -125 -56q-88 0 -137.5 67.5t-49.5 201.5q0 133 50 204.5t137 71.5q36 0 65 -12.5zM265 740q11 -12 11 -30q0 -16 -11 -28t-29 -12
q-17 0 -28.5 12t-11.5 28q0 18 11 30t29 12t29 -12z" />
    <glyph glyph-name="Ccaron" unicode="&#x10c;" horiz-adv-x="455" 
d="M363.5 680.5q34.5 -15.5 68.5 -47.5l-31 -36q-29 26 -55.5 37.5t-59.5 11.5q-78 0 -125 -71t-47 -232q0 -157 46.5 -230t125.5 -73q38 0 64 14t55 40l33 -36q-65 -69 -153 -69q-105 0 -168.5 89t-63.5 265q0 119 30.5 198t82.5 117t118 38q45 0 79.5 -15.5zM386 885
l23 -25l-107 -104h-35l-107 104l23 25l102 -80z" />
    <glyph glyph-name="ccaron" unicode="&#x10d;" horiz-adv-x="382" 
d="M303 521.5q29 -12.5 57 -40.5l-27 -34q-22 20 -44.5 29.5t-49.5 9.5q-60 0 -94 -55t-34 -172q0 -221 127 -221q51 0 97 41l28 -34q-56 -56 -125 -56q-88 0 -137.5 67.5t-49.5 201.5q0 133 50 204.5t137 71.5q36 0 65 -12.5zM337 767l24 -26l-107 -107h-35l-107 107l24 26
l101 -87z" />
    <glyph glyph-name="Dcaron" unicode="&#x10e;" horiz-adv-x="522" 
d="M396.5 613q72.5 -72 72.5 -265q0 -194 -73 -271t-183 -77h-125v685h116q120 0 192.5 -72zM145 636v-588h72q85 0 138 65t53 235q0 119 -27.5 182.5t-69.5 84.5t-99 21h-67zM347 885l23 -25l-107 -104h-35l-107 104l23 25l102 -80z" />
    <glyph glyph-name="dcaron" unicode="&#x10f;" horiz-adv-x="479" 
d="M395 736v-736h-49l-5 76q-45 -87 -125 -87q-78 0 -121.5 71t-43.5 199q0 83 21 145.5t59.5 96t89.5 33.5q73 0 118 -68v277zM289 60q28 24 50 70v278q-45 79 -110 79q-55 0 -87 -57.5t-32 -169.5q1 -112 30.5 -168t82.5 -56q38 0 66 24zM475 573l33 162l-50 7l-16 -164z
" />
    <glyph glyph-name="Dcroat" unicode="&#x110;" horiz-adv-x="529" 
d="M403.5 613q72.5 -72 72.5 -265q0 -194 -73 -271t-183 -77h-125v329h-75v47h75v309h116q120 0 192.5 -72zM362 113q53 65 53 235q0 119 -27.5 182.5t-69.5 84.5t-99 21h-67v-260h135v-47h-135v-281h72q85 0 138 65z" />
    <glyph glyph-name="dcroat" unicode="&#x111;" horiz-adv-x="483" 
d="M456 662v-45h-61v-617h-49l-5 76q-45 -87 -125 -87q-78 0 -121.5 71t-43.5 199q0 83 21 145.5t59.5 96t89.5 33.5q73 0 118 -68v151h-132v45h132v81l56 -7v-74h61zM289 60q28 24 50 70v278q-45 79 -110 79q-55 0 -87 -57.5t-32 -169.5q1 -112 30.5 -168t82.5 -56
q38 0 66 24z" />
    <glyph glyph-name="Emacron" unicode="&#x112;" horiz-adv-x="420" 
d="M379 685l-6 -49h-228v-257h197v-48h-197v-282h239v-49h-296v685h291zM338 803h-202v44h202v-44z" />
    <glyph glyph-name="emacron" unicode="&#x113;" horiz-adv-x="443" 
d="M395 239h-286q4 -108 37.5 -155t91.5 -47q34 0 60 11.5t54 36.5l28 -33q-31 -31 -65.5 -47t-77.5 -16q-87 0 -136.5 68.5t-49.5 199.5q0 133 47.5 205t130.5 72q82 0 125 -64.5t43 -188.5q0 -22 -2 -42zM342 299q0 94 -28 141t-85 47q-113 0 -120 -204h233v16zM330 677
h-202v44h202v-44z" />
    <glyph glyph-name="Ebreve" unicode="&#x114;" horiz-adv-x="420" 
d="M379 685l-6 -49h-228v-257h197v-48h-197v-282h239v-49h-296v685h291zM162 791.5q-30 26.5 -35 72.5l36 9q8 -29 26.5 -45.5t46.5 -16.5t47.5 16.5t27.5 45.5l36 -9q-5 -46 -35.5 -72.5t-75.5 -26.5q-44 0 -74 26.5z" />
    <glyph glyph-name="ebreve" unicode="&#x115;" horiz-adv-x="443" 
d="M395 239h-286q4 -108 37.5 -155t91.5 -47q34 0 60 11.5t54 36.5l28 -33q-31 -31 -65.5 -47t-77.5 -16q-87 0 -136.5 68.5t-49.5 199.5q0 133 47.5 205t130.5 72q82 0 125 -64.5t43 -188.5q0 -22 -2 -42zM342 299q0 94 -28 141t-85 47q-113 0 -120 -204h233v16zM153.5 682
q-29.5 29 -34.5 81l36 8q16 -73 73 -73q59 0 74 73l37 -8q-5 -52 -35 -81t-76 -29q-45 0 -74.5 29z" />
    <glyph glyph-name="Edotaccent" unicode="&#x116;" horiz-adv-x="420" 
d="M379 685l-6 -49h-228v-257h197v-48h-197v-282h239v-49h-296v685h291zM266 866q11 -12 11 -30q0 -16 -11 -28t-29 -12q-17 0 -28.5 12t-11.5 28q0 18 11 30t29 12t29 -12z" />
    <glyph glyph-name="edotaccent" unicode="&#x117;" horiz-adv-x="443" 
d="M395 239h-286q4 -108 37.5 -155t91.5 -47q34 0 60 11.5t54 36.5l28 -33q-31 -31 -65.5 -47t-77.5 -16q-87 0 -136.5 68.5t-49.5 199.5q0 133 47.5 205t130.5 72q82 0 125 -64.5t43 -188.5q0 -22 -2 -42zM342 299q0 94 -28 141t-85 47q-113 0 -120 -204h233v16zM257 740
q11 -12 11 -30q0 -16 -11 -28t-29 -12q-17 0 -28.5 12t-11.5 28q0 18 11 30t29 12t29 -12z" />
    <glyph glyph-name="Eogonek" unicode="&#x118;" horiz-adv-x="420" 
d="M384 49v-49h-27q-55 -30 -77 -56.5t-22 -63.5q0 -51 51 -51q20 0 47 6l-5 -45q-28 -7 -48 -7q-45 0 -69.5 25t-24.5 66q0 40 22 70.5t66 55.5h-209v685h291l-6 -49h-228v-257h197v-48h-197v-282h239z" />
    <glyph glyph-name="eogonek" unicode="&#x119;" horiz-adv-x="443" 
d="M395 239h-286q4 -108 37.5 -155t91.5 -47q34 0 60 11.5t54 36.5l28 -33q-35 -35 -68 -48q-54 -29 -76 -55.5t-22 -61.5q0 -25 13.5 -38.5t39.5 -13.5q19 0 46 6l-5 -46q-28 -7 -49 -7q-44 0 -68.5 25.5t-24.5 65.5q0 67 71 110q-87 0 -136.5 68.5t-49.5 199.5
q0 133 47.5 205t130.5 72q82 0 125 -64.5t43 -188.5q0 -22 -2 -42zM342 299q0 94 -28 141t-85 47q-113 0 -120 -204h233v16z" />
    <glyph glyph-name="Ecaron" unicode="&#x11a;" horiz-adv-x="420" 
d="M379 685l-6 -49h-228v-257h197v-48h-197v-282h239v-49h-296v685h291zM338 885l23 -25l-107 -104h-35l-107 104l23 25l102 -80z" />
    <glyph glyph-name="ecaron" unicode="&#x11b;" horiz-adv-x="443" 
d="M395 239h-286q4 -108 37.5 -155t91.5 -47q34 0 60 11.5t54 36.5l28 -33q-31 -31 -65.5 -47t-77.5 -16q-87 0 -136.5 68.5t-49.5 199.5q0 133 47.5 205t130.5 72q82 0 125 -64.5t43 -188.5q0 -22 -2 -42zM342 299q0 94 -28 141t-85 47q-113 0 -120 -204h233v16zM329 767
l24 -26l-107 -107h-35l-107 107l24 26l101 -87z" />
    <glyph glyph-name="Gcircumflex" unicode="&#x11c;" horiz-adv-x="513" 
d="M376 679.5q36 -16.5 73 -51.5l-32 -34q-32 28 -60 40t-64 12q-77 0 -128 -70t-51 -231q0 -163 45 -234.5t130 -71.5q33 0 60 8.5t53 26.5v246h-106l-6 49h168v-324q-78 -56 -168 -56q-113 0 -175 87t-62 269q0 119 33 198t87.5 116t119.5 37q47 0 83 -16.5zM189 764
l-24 25l107 103h35l107 -103l-25 -25l-100 79z" />
    <glyph glyph-name="gcircumflex" unicode="&#x11d;" horiz-adv-x="417" 
d="M410 513q-40 -15 -119 -15q75 -42 75 -143q0 -80 -42.5 -126t-116.5 -46q-29 0 -54 11q-33 -25 -33 -61q0 -57 73 -57h54q70 0 110 -36.5t40 -94.5q0 -68 -48.5 -109t-141.5 -41q-97 0 -139.5 37t-42.5 113h51q1 -56 29.5 -79.5t101.5 -23.5q134 0 134 100
q0 43 -26.5 65.5t-77.5 22.5h-44q-63 0 -93.5 25t-30.5 66q0 50 49 88q-74 47 -74 148q0 81 44.5 129t118.5 48q76 0 112.5 7.5t73.5 24.5zM100 357q0 -62 28.5 -97t76.5 -35q105 0 105 131q0 63 -26 98.5t-78 35.5q-106 0 -106 -133zM108 646l-24 25l107 108h35l107 -108
l-25 -25l-100 84z" />
    <glyph glyph-name="Gbreve" unicode="&#x11e;" horiz-adv-x="513" 
d="M376 679.5q36 -16.5 73 -51.5l-32 -34q-32 28 -60 40t-64 12q-77 0 -128 -70t-51 -231q0 -163 45 -234.5t130 -71.5q33 0 60 8.5t53 26.5v246h-106l-6 49h168v-324q-78 -56 -168 -56q-113 0 -175 87t-62 269q0 119 33 198t87.5 116t119.5 37q47 0 83 -16.5zM215 791.5
q-30 26.5 -35 72.5l36 9q8 -29 26.5 -45.5t46.5 -16.5t47.5 16.5t27.5 45.5l36 -9q-5 -46 -35.5 -72.5t-75.5 -26.5q-44 0 -74 26.5z" />
    <glyph glyph-name="gbreve" unicode="&#x11f;" horiz-adv-x="417" 
d="M410 513q-40 -15 -119 -15q75 -42 75 -143q0 -80 -42.5 -126t-116.5 -46q-29 0 -54 11q-33 -25 -33 -61q0 -57 73 -57h54q70 0 110 -36.5t40 -94.5q0 -68 -48.5 -109t-141.5 -41q-97 0 -139.5 37t-42.5 113h51q1 -56 29.5 -79.5t101.5 -23.5q134 0 134 100
q0 43 -26.5 65.5t-77.5 22.5h-44q-63 0 -93.5 25t-30.5 66q0 50 49 88q-74 47 -74 148q0 81 44.5 129t118.5 48q76 0 112.5 7.5t73.5 24.5zM100 357q0 -62 28.5 -97t76.5 -35q105 0 105 131q0 63 -26 98.5t-78 35.5q-106 0 -106 -133zM133.5 682q-29.5 29 -34.5 81l36 8
q16 -73 73 -73q59 0 74 73l37 -8q-5 -52 -35 -81t-76 -29q-45 0 -74.5 29z" />
    <glyph glyph-name="Gdotaccent" unicode="&#x120;" horiz-adv-x="513" 
d="M376 679.5q36 -16.5 73 -51.5l-32 -34q-32 28 -60 40t-64 12q-77 0 -128 -70t-51 -231q0 -163 45 -234.5t130 -71.5q33 0 60 8.5t53 26.5v246h-106l-6 49h168v-324q-78 -56 -168 -56q-113 0 -175 87t-62 269q0 119 33 198t87.5 116t119.5 37q47 0 83 -16.5zM319 866
q11 -12 11 -30q0 -16 -11 -28t-29 -12q-17 0 -28.5 12t-11.5 28q0 18 11 30t29 12t29 -12z" />
    <glyph glyph-name="gdotaccent" unicode="&#x121;" horiz-adv-x="417" 
d="M410 513q-40 -15 -119 -15q75 -42 75 -143q0 -80 -42.5 -126t-116.5 -46q-29 0 -54 11q-33 -25 -33 -61q0 -57 73 -57h54q70 0 110 -36.5t40 -94.5q0 -68 -48.5 -109t-141.5 -41q-97 0 -139.5 37t-42.5 113h51q1 -56 29.5 -79.5t101.5 -23.5q134 0 134 100
q0 43 -26.5 65.5t-77.5 22.5h-44q-63 0 -93.5 25t-30.5 66q0 50 49 88q-74 47 -74 148q0 81 44.5 129t118.5 48q76 0 112.5 7.5t73.5 24.5zM100 357q0 -62 28.5 -97t76.5 -35q105 0 105 131q0 63 -26 98.5t-78 35.5q-106 0 -106 -133zM237 740q11 -12 11 -30q0 -16 -11 -28
t-29 -12q-17 0 -28.5 12t-11.5 28q0 18 11 30t29 12t29 -12z" />
    <glyph glyph-name="Gcommaaccent" unicode="&#x122;" horiz-adv-x="513" 
d="M376 679.5q36 -16.5 73 -51.5l-32 -34q-32 28 -60 40t-64 12q-77 0 -128 -70t-51 -231q0 -163 45 -234.5t130 -71.5q33 0 60 8.5t53 26.5v246h-106l-6 49h168v-324q-78 -56 -168 -56q-113 0 -175 87t-62 269q0 119 33 198t87.5 116t119.5 37q47 0 83 -16.5zM309 -96.5
q11 -11.5 11 -29.5q0 -12 -5 -27.5t-14 -38.5l-33 -86h-33l29 114q-24 13 -24 38q0 18 11 29.5t29 11.5t29 -11.5z" />
    <glyph glyph-name="gcommaaccent" unicode="&#x123;" horiz-adv-x="417" 
d="M410 513q-40 -15 -119 -15q75 -42 75 -143q0 -80 -42.5 -126t-116.5 -46q-29 0 -54 11q-33 -25 -33 -61q0 -57 73 -57h54q70 0 110 -36.5t40 -94.5q0 -68 -48.5 -109t-141.5 -41q-97 0 -139.5 37t-42.5 113h51q1 -56 29.5 -79.5t101.5 -23.5q134 0 134 100
q0 43 -26.5 65.5t-77.5 22.5h-44q-63 0 -93.5 25t-30.5 66q0 50 49 88q-74 47 -74 148q0 81 44.5 129t118.5 48q76 0 112.5 7.5t73.5 24.5zM100 357q0 -62 28.5 -97t76.5 -35q105 0 105 131q0 63 -26 98.5t-78 35.5q-106 0 -106 -133zM181 600.5q-11 11.5 -11 29.5
q0 12 5 27.5t14 38.5l33 86h33l-29 -114q24 -13 24 -38q0 -18 -11 -29.5t-29 -11.5t-29 11.5z" />
    <glyph glyph-name="Hcircumflex" unicode="&#x124;" horiz-adv-x="550" 
d="M404 0v336h-259v-336h-57v685h57v-300h259v300h58v-685h-58zM173 764l-24 25l107 103h35l107 -103l-25 -25l-100 79z" />
    <glyph glyph-name="hcircumflex" unicode="&#x125;" horiz-adv-x="480" 
d="M368.5 493.5q31.5 -40.5 31.5 -110.5v-383h-56v376q0 112 -75 112q-71 0 -129 -113v-375h-56v736l56 7v-308q29 48 62 73.5t78 25.5q57 0 88.5 -40.5zM141 815l-24 25l107 103h35l107 -103l-25 -25l-100 79z" />
    <glyph glyph-name="Hbar" unicode="&#x126;" horiz-adv-x="552" 
d="M516 557v-43h-52v-514h-58v336h-259v-336h-57v514h-54v43h54v128h57v-128h259v128h58v-128h52zM406 385v129h-259v-129h259z" />
    <glyph glyph-name="hbar" unicode="&#x127;" horiz-adv-x="484" 
d="M372.5 493.5q31.5 -40.5 31.5 -110.5v-383h-56v376q0 112 -75 112q-71 0 -129 -113v-375h-56v618h-61v45h61v73l56 7v-80h133v-45h-133v-183q29 48 62 73.5t78 25.5q57 0 88.5 -40.5z" />
    <glyph glyph-name="Itilde" unicode="&#x128;" horiz-adv-x="233" 
d="M145 685v-685h-57v685h57zM137.5 801.5q-12.5 6.5 -30.5 18.5q-25 19 -39 19q-13 0 -23 -9t-23 -31l-32 16q31 66 77 66q14 0 27 -6.5t28 -17.5t23.5 -15.5t18.5 -4.5q13 0 23.5 10t22.5 33l32 -15q-27 -70 -76 -70q-16 0 -28.5 6.5z" />
    <glyph glyph-name="itilde" unicode="&#x129;" horiz-adv-x="224" 
d="M140 523v-523h-56v523h56zM133.5 675.5q-12.5 6.5 -30.5 18.5q-25 19 -39 19q-13 0 -23 -9t-23 -31l-32 16q31 66 77 66q14 0 27 -6.5t28 -17.5t23.5 -15.5t18.5 -4.5q13 0 23.5 10t22.5 33l32 -15q-27 -70 -76 -70q-16 0 -28.5 6.5z" />
    <glyph glyph-name="Imacron" unicode="&#x12a;" horiz-adv-x="233" 
d="M145 685v-685h-57v685h57zM217 803h-202v44h202v-44z" />
    <glyph glyph-name="imacron" unicode="&#x12b;" horiz-adv-x="224" 
d="M140 523v-523h-56v523h56zM213 677h-202v44h202v-44z" />
    <glyph glyph-name="Ibreve" unicode="&#x12c;" horiz-adv-x="233" 
d="M145 685v-685h-57v685h57zM41 791.5q-30 26.5 -35 72.5l36 9q8 -29 26.5 -45.5t46.5 -16.5t47.5 16.5t27.5 45.5l36 -9q-5 -46 -35.5 -72.5t-75.5 -26.5q-44 0 -74 26.5z" />
    <glyph glyph-name="ibreve" unicode="&#x12d;" horiz-adv-x="224" 
d="M140 523v-523h-56v523h56zM36.5 682q-29.5 29 -34.5 81l36 8q16 -73 73 -73q59 0 74 73l37 -8q-5 -52 -35 -81t-76 -29q-45 0 -74.5 29z" />
    <glyph glyph-name="Iogonek" unicode="&#x12e;" horiz-adv-x="233" 
d="M145 685v-685h-8q-55 -30 -77 -56.5t-22 -63.5q0 -51 51 -51q20 0 47 6l-5 -45q-28 -7 -48 -7q-45 0 -69.5 25t-24.5 66q0 42 24.5 73.5t74.5 58.5v679h57z" />
    <glyph glyph-name="iogonek" unicode="&#x12f;" horiz-adv-x="224" 
d="M82.5 682q-11.5 12 -11.5 28q0 18 11 30t29 12t29 -12t11 -30q0 -16 -11 -28t-29 -12q-17 0 -28.5 12zM84 523h56v-523h-3q-55 -30 -77 -56.5t-22 -63.5q0 -51 51 -51q20 0 47 6l-5 -45q-28 -7 -48 -7q-45 0 -69.5 25t-24.5 66t23.5 72t71.5 58v519z" />
    <glyph glyph-name="Idotaccent" unicode="&#x130;" horiz-adv-x="233" 
d="M145 685v-685h-57v685h57zM145 866q11 -12 11 -30q0 -16 -11 -28t-29 -12q-17 0 -28.5 12t-11.5 28q0 18 11 30t29 12t29 -12z" />
    <glyph glyph-name="dotlessi" unicode="&#x131;" horiz-adv-x="224" 
d="M140 523v-523h-56v523h56z" />
    <glyph glyph-name="IJ" unicode="&#x132;" horiz-adv-x="473" 
d="M145 685v-685h-57v685h57zM390 91q0 -59 -14 -97t-42 -63.5t-77 -48.5l-16 41q38 22 57.5 43t26.5 50t7 78v591h58v-594z" />
    <glyph glyph-name="ij" unicode="&#x133;" horiz-adv-x="448" 
d="M140 523v-523h-56v523h56zM140 740q11 -12 11 -30q0 -16 -11 -28t-29 -12q-17 0 -28.5 12t-11.5 28q0 18 11 30t29 12t29 -12zM364 -8q0 -55 -13.5 -90t-38.5 -58t-69 -47l-19 40q32 19 49.5 37t26 45.5t8.5 72.5v531h56v-531zM364 740q11 -12 11 -30q0 -16 -11 -28
t-29 -12q-17 0 -28.5 12t-11.5 28q0 18 11 30t29 12t29 -12z" />
    <glyph glyph-name="Jcircumflex" unicode="&#x134;" horiz-adv-x="240" 
d="M157 91q0 -59 -14 -97t-42 -63.5t-77 -48.5l-16 41q38 22 57.5 43t26.5 50t7 78v591h58v-594zM26 764l-24 25l107 103h35l107 -103l-25 -25l-100 79z" />
    <glyph glyph-name="jcircumflex" unicode="&#x135;" horiz-adv-x="224" 
d="M140 -8q0 -55 -13.5 -90t-38.5 -58t-69 -47l-19 40q32 19 49.5 37t26 45.5t8.5 72.5v531h56v-531zM10 646l-24 25l107 108h35l107 -108l-25 -25l-100 84z" />
    <glyph glyph-name="Kcommaaccent" unicode="&#x136;" horiz-adv-x="463" 
d="M145 685v-685h-57v685h57zM443 685l-230 -315l245 -370h-66l-243 367l232 318h62zM282 -96.5q11 -11.5 11 -29.5q0 -12 -5 -27.5t-14 -38.5l-33 -86h-33l29 114q-24 13 -24 38q0 18 11 29.5t29 11.5t29 -11.5z" />
    <glyph glyph-name="kcommaaccent" unicode="&#x137;" horiz-adv-x="406" 
d="M140 743v-743h-56v736zM384 523l-179 -234l197 -289h-63l-194 286l179 237h60zM247 -96.5q11 -11.5 11 -29.5q0 -12 -5 -27.5t-14 -38.5l-33 -86h-33l29 114q-24 13 -24 38q0 18 11 29.5t29 11.5t29 -11.5z" />
    <glyph glyph-name="kgreenlandic" unicode="&#x138;" horiz-adv-x="406" 
d="M140 523v-523h-56v523h56zM384 523l-179 -244l197 -279h-63l-194 276l179 247h60z" />
    <glyph glyph-name="Lacute" unicode="&#x139;" horiz-adv-x="392" 
d="M145 685v-633h233l-7 -52h-283v685h57zM183 884l25 -49l-165 -77l-16 32z" />
    <glyph glyph-name="lacute" unicode="&#x13a;" horiz-adv-x="235" 
d="M101 12.5q-22 23.5 -22 64.5v659l56 7v-664q0 -42 34 -42q14 0 28 6l14 -40q-23 -14 -52 -14q-36 0 -58 23.5zM173 935l25 -49l-165 -77l-16 32z" />
    <glyph glyph-name="Lcommaaccent" unicode="&#x13b;" horiz-adv-x="392" 
d="M145 685v-633h233l-7 -52h-283v685h57zM259 -96.5q11 -11.5 11 -29.5q0 -12 -5 -27.5t-14 -38.5l-33 -86h-33l29 114q-24 13 -24 38q0 18 11 29.5t29 11.5t29 -11.5z" />
    <glyph glyph-name="lcommaaccent" unicode="&#x13c;" horiz-adv-x="235" 
d="M101 12.5q-22 23.5 -22 64.5v659l56 7v-664q0 -42 34 -42q14 0 28 6l14 -40q-23 -14 -52 -14q-36 0 -58 23.5zM176 -96.5q11 -11.5 11 -29.5q0 -12 -5 -27.5t-14 -38.5l-33 -86h-33l29 114q-24 13 -24 38q0 18 11 29.5t29 11.5t29 -11.5z" />
    <glyph glyph-name="Lcaron" unicode="&#x13d;" horiz-adv-x="392" 
d="M145 685v-633h233l-7 -52h-283v685h57zM229 522l33 162l-50 7l-16 -164z" />
    <glyph glyph-name="lcaron" unicode="&#x13e;" horiz-adv-x="235" 
d="M101 12.5q-22 23.5 -22 64.5v659l56 7v-664q0 -42 34 -42q14 0 28 6l14 -40q-23 -14 -52 -14q-36 0 -58 23.5zM215 573l33 162l-50 7l-16 -164z" />
    <glyph glyph-name="Ldot" unicode="&#x13f;" horiz-adv-x="392" 
d="M145 685v-633h233l-7 -52h-283v685h57zM334 397q11 -12 11 -30q0 -16 -11 -28t-29 -12q-17 0 -28.5 12t-11.5 28q0 18 11 30t29 12t29 -12z" />
    <glyph glyph-name="ldot" unicode="&#x140;" horiz-adv-x="255" 
d="M101 12.5q-22 23.5 -22 64.5v659l56 7v-664q0 -42 34 -42q14 0 28 6l14 -40q-23 -14 -52 -14q-36 0 -58 23.5zM264 405q11 -12 11 -30q0 -16 -11 -28t-29 -12q-17 0 -28.5 12t-11.5 28q0 18 11 30t29 12t29 -12z" />
    <glyph glyph-name="Lslash" unicode="&#x141;" horiz-adv-x="403" 
d="M157 52h233l-7 -52h-283v281l-53 -39l-22 38l74 55l1 1v349h57v-307l144 107l22 -38l-166 -123v-272z" />
    <glyph glyph-name="lslash" unicode="&#x142;" horiz-adv-x="252" 
d="M205 43l14 -40q-23 -14 -52 -14q-36 0 -58 23.5t-22 64.5v246l-46 -33l-21 35l67 50v361l56 7v-328l77 54l21 -36l-98 -70v-284q0 -42 34 -42q14 0 28 6z" />
    <glyph glyph-name="Nacute" unicode="&#x143;" horiz-adv-x="551" 
d="M464 0h-76l-254 620q8 -94 8 -233v-387h-54v685h76l253 -620q-8 120 -8 201v419h55v-685zM349 884l25 -49l-165 -77l-16 32z" />
    <glyph glyph-name="nacute" unicode="&#x144;" horiz-adv-x="480" 
d="M368.5 493.5q31.5 -40.5 31.5 -110.5v-383h-56v376q0 112 -75 112q-71 0 -129 -113v-375h-56v523h48l6 -90q29 49 62 75t80 26q57 0 88.5 -40.5zM303 778l26 -47l-163 -85l-19 30z" />
    <glyph glyph-name="Ncommaaccent" unicode="&#x145;" horiz-adv-x="551" 
d="M464 0h-76l-254 620q8 -94 8 -233v-387h-54v685h76l253 -620q-8 120 -8 201v419h55v-685zM305 -96.5q11 -11.5 11 -29.5q0 -12 -5 -27.5t-14 -38.5l-33 -86h-33l29 114q-24 13 -24 38q0 18 11 29.5t29 11.5t29 -11.5z" />
    <glyph glyph-name="ncommaaccent" unicode="&#x146;" horiz-adv-x="480" 
d="M368.5 493.5q31.5 -40.5 31.5 -110.5v-383h-56v376q0 112 -75 112q-71 0 -129 -113v-375h-56v523h48l6 -90q29 49 62 75t80 26q57 0 88.5 -40.5zM268 -96.5q11 -11.5 11 -29.5q0 -12 -5 -27.5t-14 -38.5l-33 -86h-33l29 114q-24 13 -24 38q0 18 11 29.5t29 11.5t29 -11.5
z" />
    <glyph glyph-name="Ncaron" unicode="&#x147;" horiz-adv-x="551" 
d="M464 0h-76l-254 620q8 -94 8 -233v-387h-54v685h76l253 -620q-8 120 -8 201v419h55v-685zM384 885l23 -25l-107 -104h-35l-107 104l23 25l102 -80z" />
    <glyph glyph-name="ncaron" unicode="&#x148;" horiz-adv-x="480" 
d="M368.5 493.5q31.5 -40.5 31.5 -110.5v-383h-56v376q0 112 -75 112q-71 0 -129 -113v-375h-56v523h48l6 -90q29 49 62 75t80 26q57 0 88.5 -40.5zM344 767l24 -26l-107 -107h-35l-107 107l24 26l101 -87z" />
    <glyph glyph-name="napostrophe" unicode="&#x149;" horiz-adv-x="556" 
d="M114.5 732.5q10.5 -11.5 10.5 -29.5q0 -10 -4.5 -26t-13.5 -40l-29 -89h-33l24 118q-24 11 -24 37q0 18 11.5 29.5t29.5 11.5t28.5 -11.5zM444.5 493.5q31.5 -40.5 31.5 -110.5v-383h-56v376q0 112 -75 112q-71 0 -129 -113v-375h-56v523h48l6 -90q29 49 62 75t80 26
q57 0 88.5 -40.5z" />
    <glyph glyph-name="Eng" unicode="&#x14a;" horiz-adv-x="551" 
d="M464 685v-774q0 -56 -30 -86t-77 -30q-49 0 -89 34l26 36q29 -22 60 -22q52 0 52 67v90h-18l-254 620q8 -94 8 -233v-387h-54v685h76l253 -620q-8 120 -8 201v419h55z" />
    <glyph glyph-name="eng" unicode="&#x14b;" horiz-adv-x="480" 
d="M368.5 493.5q31.5 -40.5 31.5 -110.5v-474q0 -54 -29.5 -84t-76.5 -30q-51 0 -89 34l25 35q14 -11 28 -16.5t32 -5.5q54 0 54 66v468q0 112 -75 112q-71 0 -129 -113v-375h-56v523h48l6 -90q29 49 62 75t80 26q57 0 88.5 -40.5z" />
    <glyph glyph-name="Omacron" unicode="&#x14c;" horiz-adv-x="570" 
d="M455 607.5q62 -88.5 62 -265.5q0 -174 -61.5 -263.5t-170.5 -89.5q-107 0 -169.5 89t-62.5 263t63 264.5t169 90.5q108 0 170 -88.5zM159 572q-45 -74 -45 -231q0 -155 45.5 -228.5t125.5 -73.5q83 0 127 72.5t44 230.5q0 304 -171 304q-81 0 -126 -74zM386 803h-202v44
h202v-44z" />
    <glyph glyph-name="omacron" unicode="&#x14d;" horiz-adv-x="472" 
d="M373 465.5q48 -68.5 48 -202.5q0 -131 -49.5 -202.5t-136.5 -71.5t-135.5 71t-48.5 201q0 132 49 202.5t136 70.5q89 0 137 -68.5zM110 261q0 -225 125 -225q127 0 127 227q0 115 -32 169t-94 54q-126 0 -126 -225zM337 677h-202v44h202v-44z" />
    <glyph glyph-name="Obreve" unicode="&#x14e;" horiz-adv-x="570" 
d="M455 607.5q62 -88.5 62 -265.5q0 -174 -61.5 -263.5t-170.5 -89.5q-107 0 -169.5 89t-62.5 263t63 264.5t169 90.5q108 0 170 -88.5zM159 572q-45 -74 -45 -231q0 -155 45.5 -228.5t125.5 -73.5q83 0 127 72.5t44 230.5q0 304 -171 304q-81 0 -126 -74zM210 791.5
q-30 26.5 -35 72.5l36 9q8 -29 26.5 -45.5t46.5 -16.5t47.5 16.5t27.5 45.5l36 -9q-5 -46 -35.5 -72.5t-75.5 -26.5q-44 0 -74 26.5z" />
    <glyph glyph-name="obreve" unicode="&#x14f;" horiz-adv-x="472" 
d="M373 465.5q48 -68.5 48 -202.5q0 -131 -49.5 -202.5t-136.5 -71.5t-135.5 71t-48.5 201q0 132 49 202.5t136 70.5q89 0 137 -68.5zM110 261q0 -225 125 -225q127 0 127 227q0 115 -32 169t-94 54q-126 0 -126 -225zM160.5 682q-29.5 29 -34.5 81l36 8q16 -73 73 -73
q59 0 74 73l37 -8q-5 -52 -35 -81t-76 -29q-45 0 -74.5 29z" />
    <glyph glyph-name="Ohungarumlaut" unicode="&#x150;" horiz-adv-x="570" 
d="M455 607.5q62 -88.5 62 -265.5q0 -174 -61.5 -263.5t-170.5 -89.5q-107 0 -169.5 89t-62.5 263t63 264.5t169 90.5q108 0 170 -88.5zM159 572q-45 -74 -45 -231q0 -155 45.5 -228.5t125.5 -73.5q83 0 127 72.5t44 230.5q0 304 -171 304q-81 0 -126 -74zM377 935l46 -25
l-78 -141l-33 15zM268 934l46 -24l-72 -137l-33 15z" />
    <glyph glyph-name="ohungarumlaut" unicode="&#x151;" horiz-adv-x="472" 
d="M373 465.5q48 -68.5 48 -202.5q0 -131 -49.5 -202.5t-136.5 -71.5t-135.5 71t-48.5 201q0 132 49 202.5t136 70.5q89 0 137 -68.5zM110 261q0 -225 125 -225q127 0 127 227q0 115 -32 169t-94 54q-126 0 -126 -225zM331 809l46 -25l-78 -141l-33 15zM222 808l46 -24
l-72 -137l-33 15z" />
    <glyph glyph-name="OE" unicode="&#x152;" horiz-adv-x="717" 
d="M681 0h-346q-28 -11 -60 -11q-65 0 -115 40.5t-78.5 120t-28.5 191.5t28.5 192t79 121.5t114.5 41.5q32 0 62 -11h339l-6 -49h-263q86 -78 93 -256h139v-50h-138q-4 -197 -96 -281h276v-49zM159 115q45 -76 118 -76q76 0 119.5 76.5t43.5 231.5q0 149 -44 224t-119 75
t-119 -76.5t-44 -228.5q0 -150 45 -226z" />
    <glyph glyph-name="oe" unicode="&#x153;" horiz-adv-x="754" 
d="M706 239h-286q4 -103 38.5 -152.5t90.5 -49.5q34 0 60.5 12t54.5 37l27 -33q-32 -32 -66.5 -48t-76.5 -16q-55 0 -95 33.5t-63 93.5q-23 -60 -62.5 -93.5t-92.5 -33.5q-87 0 -135.5 70.5t-48.5 201.5t49 202t136 71q54 0 93.5 -32.5t62.5 -91.5q23 59 60.5 91.5
t89.5 32.5q80 0 123 -66.5t43 -186.5q0 -22 -2 -42zM653 299q0 91 -28 139.5t-84 48.5q-53 0 -85.5 -50.5t-36.5 -153.5h234v16zM328.5 94q32.5 58 32.5 169q0 110 -32 166.5t-93 56.5q-126 0 -126 -225t125 -225q61 0 93.5 58z" />
    <glyph glyph-name="Racute" unicode="&#x154;" horiz-adv-x="487" 
d="M398 0l-144 309l-32 -1h-77v-308h-57v685h122q223 0 223 -186q0 -67 -32 -113t-92 -66l153 -320h-64zM333.5 390.5q37.5 34.5 37.5 108.5q0 70 -37 104t-127 34h-62v-281h70q81 0 118.5 34.5zM306 884l25 -49l-165 -77l-16 32z" />
    <glyph glyph-name="racute" unicode="&#x155;" horiz-adv-x="310" 
d="M300 528l-10 -52q-18 5 -36 5q-43 0 -70 -37.5t-44 -113.5v-330h-56v523h48l5 -105q19 59 49 87.5t74 28.5q18 0 40 -6zM251 778l26 -47l-163 -85l-19 30z" />
    <glyph glyph-name="Rcommaaccent" unicode="&#x156;" horiz-adv-x="487" 
d="M398 0l-144 309l-32 -1h-77v-308h-57v685h122q223 0 223 -186q0 -67 -32 -113t-92 -66l153 -320h-64zM333.5 390.5q37.5 34.5 37.5 108.5q0 70 -37 104t-127 34h-62v-281h70q81 0 118.5 34.5zM281 -96.5q11 -11.5 11 -29.5q0 -12 -5 -27.5t-14 -38.5l-33 -86h-33l29 114
q-24 13 -24 38q0 18 11 29.5t29 11.5t29 -11.5z" />
    <glyph glyph-name="rcommaaccent" unicode="&#x157;" horiz-adv-x="310" 
d="M300 528l-10 -52q-18 5 -36 5q-43 0 -70 -37.5t-44 -113.5v-330h-56v523h48l5 -105q19 59 49 87.5t74 28.5q18 0 40 -6zM140 -96.5q11 -11.5 11 -29.5q0 -12 -5 -27.5t-14 -38.5l-33 -86h-33l29 114q-24 13 -24 38q0 18 11 29.5t29 11.5t29 -11.5z" />
    <glyph glyph-name="Rcaron" unicode="&#x158;" horiz-adv-x="487" 
d="M398 0l-144 309l-32 -1h-77v-308h-57v685h122q223 0 223 -186q0 -67 -32 -113t-92 -66l153 -320h-64zM333.5 390.5q37.5 34.5 37.5 108.5q0 70 -37 104t-127 34h-62v-281h70q81 0 118.5 34.5zM341 885l23 -25l-107 -104h-35l-107 104l23 25l102 -80z" />
    <glyph glyph-name="rcaron" unicode="&#x159;" horiz-adv-x="310" 
d="M300 528l-10 -52q-18 5 -36 5q-43 0 -70 -37.5t-44 -113.5v-330h-56v523h48l5 -105q19 59 49 87.5t74 28.5q18 0 40 -6zM292 767l24 -26l-107 -107h-35l-107 107l24 26l101 -87z" />
    <glyph glyph-name="Sacute" unicode="&#x15a;" horiz-adv-x="444" 
d="M312 677q38 -19 73 -57l-33 -33q-31 31 -61.5 45t-68.5 14q-50 0 -81.5 -32.5t-31.5 -83.5t28.5 -82.5t101.5 -58.5q84 -32 123.5 -77t39.5 -125q0 -55 -24 -100t-67.5 -71.5t-99.5 -26.5t-100.5 22t-82.5 64l33 33q35 -34 69.5 -51.5t79.5 -17.5q60 0 96 40t36 106
q0 59 -28 93t-102 63q-86 33 -123.5 76.5t-37.5 110.5q0 45 22 83.5t61 61.5t88 23q52 0 90 -19zM290 884l25 -49l-165 -77l-16 32z" />
    <glyph glyph-name="sacute" unicode="&#x15b;" horiz-adv-x="385" 
d="M334 476l-26 -34q-29 24 -54.5 35t-57.5 11q-41 0 -66.5 -24t-25.5 -66q0 -36 22.5 -58t82.5 -44q73 -27 105 -61.5t32 -94.5q0 -69 -45.5 -110t-113.5 -41q-90 0 -157 67l31 32q29 -26 58.5 -39.5t66.5 -13.5q46 0 74.5 27t28.5 76q0 31 -10 50.5t-34 35t-69 32.5
q-69 25 -98.5 58t-29.5 83q0 59 42 98t105 39q78 0 139 -58zM257 778l26 -47l-163 -85l-19 30z" />
    <glyph glyph-name="Scircumflex" unicode="&#x15c;" horiz-adv-x="444" 
d="M312 677q38 -19 73 -57l-33 -33q-31 31 -61.5 45t-68.5 14q-50 0 -81.5 -32.5t-31.5 -83.5t28.5 -82.5t101.5 -58.5q84 -32 123.5 -77t39.5 -125q0 -55 -24 -100t-67.5 -71.5t-99.5 -26.5t-100.5 22t-82.5 64l33 33q35 -34 69.5 -51.5t79.5 -17.5q60 0 96 40t36 106
q0 59 -28 93t-102 63q-86 33 -123.5 76.5t-37.5 110.5q0 45 22 83.5t61 61.5t88 23q52 0 90 -19zM123 764l-24 25l107 103h35l107 -103l-25 -25l-100 79z" />
    <glyph glyph-name="scircumflex" unicode="&#x15d;" horiz-adv-x="385" 
d="M334 476l-26 -34q-29 24 -54.5 35t-57.5 11q-41 0 -66.5 -24t-25.5 -66q0 -36 22.5 -58t82.5 -44q73 -27 105 -61.5t32 -94.5q0 -69 -45.5 -110t-113.5 -41q-90 0 -157 67l31 32q29 -26 58.5 -39.5t66.5 -13.5q46 0 74.5 27t28.5 76q0 31 -10 50.5t-34 35t-69 32.5
q-69 25 -98.5 58t-29.5 83q0 59 42 98t105 39q78 0 139 -58zM97 646l-24 25l107 108h35l107 -108l-25 -25l-100 84z" />
    <glyph glyph-name="Scedilla" unicode="&#x15e;" horiz-adv-x="444" 
d="M355 53q-47 -56 -123 -63v-56q76 -10 76 -76q0 -40 -25.5 -62t-63.5 -22t-69 20l19 33q22 -13 47 -13q20 0 32.5 11t12.5 33q0 24 -17.5 35t-56.5 11l7 86q-50 3 -90.5 25t-75.5 60l33 33q35 -34 69.5 -51.5t79.5 -17.5q60 0 96 40t36 106q0 59 -28 93t-102 63
q-86 33 -123.5 76.5t-37.5 110.5q0 45 22 83.5t61 61.5t88 23q52 0 90 -19t73 -57l-33 -33q-31 31 -61.5 45t-68.5 14q-50 0 -81.5 -32.5t-31.5 -83.5t28.5 -82.5t101.5 -58.5q84 -32 123.5 -77t39.5 -125q0 -78 -47 -134z" />
    <glyph glyph-name="scedilla" unicode="&#x15f;" horiz-adv-x="385" 
d="M307 36.5q-39 -40.5 -99 -46.5v-56q76 -10 76 -76q0 -40 -25.5 -62t-63.5 -22t-69 20l19 33q22 -13 47 -13q20 0 32.5 11t12.5 33q0 24 -17.5 35t-56.5 11l7 86q-79 5 -140 66l31 32q29 -26 58.5 -39.5t66.5 -13.5q46 0 74.5 27t28.5 76q0 31 -10 50.5t-34 35t-69 32.5
q-69 25 -98.5 58t-29.5 83q0 59 42 98t105 39q78 0 139 -58l-26 -34q-29 24 -54.5 35t-57.5 11q-41 0 -66.5 -24t-25.5 -66q0 -36 22.5 -58t82.5 -44q73 -27 105 -61.5t32 -94.5q0 -63 -39 -103.5z" />
    <glyph glyph-name="Scaron" unicode="&#x160;" horiz-adv-x="444" 
d="M312 677q38 -19 73 -57l-33 -33q-31 31 -61.5 45t-68.5 14q-50 0 -81.5 -32.5t-31.5 -83.5t28.5 -82.5t101.5 -58.5q84 -32 123.5 -77t39.5 -125q0 -55 -24 -100t-67.5 -71.5t-99.5 -26.5t-100.5 22t-82.5 64l33 33q35 -34 69.5 -51.5t79.5 -17.5q60 0 96 40t36 106
q0 59 -28 93t-102 63q-86 33 -123.5 76.5t-37.5 110.5q0 45 22 83.5t61 61.5t88 23q52 0 90 -19zM325 885l23 -25l-107 -104h-35l-107 104l23 25l102 -80z" />
    <glyph glyph-name="scaron" unicode="&#x161;" horiz-adv-x="385" 
d="M334 476l-26 -34q-29 24 -54.5 35t-57.5 11q-41 0 -66.5 -24t-25.5 -66q0 -36 22.5 -58t82.5 -44q73 -27 105 -61.5t32 -94.5q0 -69 -45.5 -110t-113.5 -41q-90 0 -157 67l31 32q29 -26 58.5 -39.5t66.5 -13.5q46 0 74.5 27t28.5 76q0 31 -10 50.5t-34 35t-69 32.5
q-69 25 -98.5 58t-29.5 83q0 59 42 98t105 39q78 0 139 -58zM298 767l24 -26l-107 -107h-35l-107 107l24 26l101 -87z" />
    <glyph glyph-name="uni0162" unicode="&#x162;" horiz-adv-x="409" 
d="M292 -88.5q19 -19.5 19 -51.5q0 -41 -25.5 -63.5t-65.5 -22.5t-67 20l17 36q23 -16 47 -16q21 0 34 11.5t13 34.5q0 22 -18 33t-56 11l8 96h-22v635h-164v50h390l-7 -50h-161v-700q39 -4 58 -23.5z" />
    <glyph glyph-name="uni0163" unicode="&#x163;" horiz-adv-x="286" 
d="M279 -142q0 -40 -25.5 -62t-63.5 -22t-69 20l19 33q22 -13 47 -13q20 0 32.5 11t12.5 33q0 24 -17.5 35t-56.5 11l7 88q-38 9 -59 39t-21 76v370h-70v46h70v125l56 7v-132h110l-7 -46h-103v-370q0 -33 15 -51.5t45 -18.5q32 0 64 21l23 -36q-40 -30 -85 -33v-55
q76 -10 76 -76z" />
    <glyph glyph-name="Tcaron" unicode="&#x164;" horiz-adv-x="409" 
d="M402 685l-7 -50h-161v-635h-58v635h-164v50h390zM306 885l23 -25l-107 -104h-35l-107 104l23 25l102 -80z" />
    <glyph glyph-name="tcaron" unicode="&#x165;" horiz-adv-x="286" 
d="M243 739l-33 -162l-33 5l16 164zM288 22q-42 -33 -93 -33t-80.5 32t-29.5 86v370h-70v46h70v125l56 7v-132h110l-7 -46h-103v-370q0 -33 15 -51.5t45 -18.5q32 0 64 21z" />
    <glyph glyph-name="Tbar" unicode="&#x166;" horiz-adv-x="409" 
d="M395 634h-161v-250h100v-46h-100v-339h-58v339h-101v46h101v250h-164v50h390z" />
    <glyph glyph-name="tbar" unicode="&#x167;" horiz-adv-x="286" 
d="M288 22q-42 -33 -93 -33t-80.5 32t-29.5 86v197h-68v45h68v128h-70v46h70v125l56 7v-132h110l-7 -46h-103v-128h99v-45h-99v-197q0 -33 15 -51.5t45 -18.5q32 0 64 21z" />
    <glyph glyph-name="Utilde" unicode="&#x168;" horiz-adv-x="531" 
d="M454 178q0 -82 -48.5 -135.5t-139.5 -53.5q-92 0 -140 53t-48 136v507h57v-502q0 -68 32.5 -105.5t98.5 -37.5t98 38t32 105v502h58v-507zM287.5 801.5q-12.5 6.5 -30.5 18.5q-25 19 -39 19q-13 0 -23 -9t-23 -31l-32 16q31 66 77 66q14 0 27 -6.5t28 -17.5t23.5 -15.5
t18.5 -4.5q13 0 23.5 10t22.5 33l32 -15q-27 -70 -76 -70q-16 0 -28.5 6.5z" />
    <glyph glyph-name="utilde" unicode="&#x169;" horiz-adv-x="476" 
d="M392 0h-48l-4 87q-51 -98 -136 -98q-58 0 -91.5 39t-33.5 104v391h56v-386q0 -50 20.5 -76t57.5 -26q39 0 69 28.5t54 78.5v381h56v-523zM257.5 675.5q-12.5 6.5 -30.5 18.5q-25 19 -39 19q-13 0 -23 -9t-23 -31l-32 16q31 66 77 66q14 0 27 -6.5t28 -17.5t23.5 -15.5
t18.5 -4.5q13 0 23.5 10t22.5 33l32 -15q-27 -70 -76 -70q-16 0 -28.5 6.5z" />
    <glyph glyph-name="Umacron" unicode="&#x16a;" horiz-adv-x="531" 
d="M454 178q0 -82 -48.5 -135.5t-139.5 -53.5q-92 0 -140 53t-48 136v507h57v-502q0 -68 32.5 -105.5t98.5 -37.5t98 38t32 105v502h58v-507zM367 803h-202v44h202v-44z" />
    <glyph glyph-name="umacron" unicode="&#x16b;" horiz-adv-x="476" 
d="M392 0h-48l-4 87q-51 -98 -136 -98q-58 0 -91.5 39t-33.5 104v391h56v-386q0 -50 20.5 -76t57.5 -26q39 0 69 28.5t54 78.5v381h56v-523zM337 677h-202v44h202v-44z" />
    <glyph glyph-name="Ubreve" unicode="&#x16c;" horiz-adv-x="531" 
d="M454 178q0 -82 -48.5 -135.5t-139.5 -53.5q-92 0 -140 53t-48 136v507h57v-502q0 -68 32.5 -105.5t98.5 -37.5t98 38t32 105v502h58v-507zM191 791.5q-30 26.5 -35 72.5l36 9q8 -29 26.5 -45.5t46.5 -16.5t47.5 16.5t27.5 45.5l36 -9q-5 -46 -35.5 -72.5t-75.5 -26.5
q-44 0 -74 26.5z" />
    <glyph glyph-name="ubreve" unicode="&#x16d;" horiz-adv-x="476" 
d="M392 0h-48l-4 87q-51 -98 -136 -98q-58 0 -91.5 39t-33.5 104v391h56v-386q0 -50 20.5 -76t57.5 -26q39 0 69 28.5t54 78.5v381h56v-523zM160.5 682q-29.5 29 -34.5 81l36 8q16 -73 73 -73q59 0 74 73l37 -8q-5 -52 -35 -81t-76 -29q-45 0 -74.5 29z" />
    <glyph glyph-name="Uring" unicode="&#x16e;" horiz-adv-x="531" 
d="M454 178q0 -82 -48.5 -135.5t-139.5 -53.5q-92 0 -140 53t-48 136v507h57v-502q0 -68 32.5 -105.5t98.5 -37.5t98 38t32 105v502h58v-507zM327 921.5q23 -24.5 23 -68.5q0 -45 -23 -69.5t-61 -24.5t-61 24.5t-23 69.5q0 44 23 68.5t61 24.5t61 -24.5zM233 898.5
q-11 -13.5 -11 -45.5t11 -46t33 -14t33.5 14t11.5 46t-11.5 45.5t-33.5 13.5t-33 -13.5z" />
    <glyph glyph-name="uring" unicode="&#x16f;" horiz-adv-x="476" 
d="M392 0h-48l-4 87q-51 -98 -136 -98q-58 0 -91.5 39t-33.5 104v391h56v-386q0 -50 20.5 -76t57.5 -26q39 0 69 28.5t54 78.5v381h56v-523zM297 795.5q23 -24.5 23 -68.5q0 -45 -23 -69.5t-61 -24.5t-61 24.5t-23 69.5q0 44 23 68.5t61 24.5t61 -24.5zM203 772.5
q-11 -13.5 -11 -45.5t11 -46t33 -14t33.5 14t11.5 46t-11.5 45.5t-33.5 13.5t-33 -13.5z" />
    <glyph glyph-name="Uhungarumlaut" unicode="&#x170;" horiz-adv-x="531" 
d="M454 178q0 -82 -48.5 -135.5t-139.5 -53.5q-92 0 -140 53t-48 136v507h57v-502q0 -68 32.5 -105.5t98.5 -37.5t98 38t32 105v502h58v-507zM358 935l46 -25l-78 -141l-33 15zM249 934l46 -24l-72 -137l-33 15z" />
    <glyph glyph-name="uhungarumlaut" unicode="&#x171;" horiz-adv-x="476" 
d="M392 0h-48l-4 87q-51 -98 -136 -98q-58 0 -91.5 39t-33.5 104v391h56v-386q0 -50 20.5 -76t57.5 -26q39 0 69 28.5t54 78.5v381h56v-523zM331 809l46 -25l-78 -141l-33 15zM222 808l46 -24l-72 -137l-33 15z" />
    <glyph glyph-name="Uogonek" unicode="&#x172;" horiz-adv-x="531" 
d="M454 685v-507q0 -66 -31.5 -115t-92.5 -66q-52 -28 -73.5 -54t-21.5 -61q0 -25 13.5 -38.5t39.5 -13.5q19 0 46 6l-5 -46q-28 -7 -49 -7q-44 0 -68.5 25.5t-24.5 65.5q0 72 79 115q-92 0 -140 53t-48 136v507h57v-502q0 -68 32.5 -105.5t98.5 -37.5t98 38t32 105v502h58z
" />
    <glyph glyph-name="uogonek" unicode="&#x173;" horiz-adv-x="476" 
d="M392 523v-523h-1q-55 -30 -77 -56.5t-22 -63.5q0 -51 51 -51q20 0 47 6l-5 -45q-28 -7 -48 -7q-45 0 -69.5 25t-24.5 66q0 42 25 74t76 59l-4 80q-51 -98 -136 -98q-58 0 -91.5 39t-33.5 104v391h56v-386q0 -50 20.5 -76t57.5 -26q39 0 69 28.5t54 78.5v381h56z" />
    <glyph glyph-name="Wcircumflex" unicode="&#x174;" horiz-adv-x="676" 
d="M648 685l-120 -685h-75l-116 619l-116 -619h-73l-120 685h56l102 -631l118 631h67l119 -631l103 631h55zM237 764l-24 25l107 103h35l107 -103l-25 -25l-100 79z" />
    <glyph glyph-name="wcircumflex" unicode="&#x175;" horiz-adv-x="590" 
d="M564 523l-103 -523h-75l-91 470l-90 -470h-74l-105 523h55l88 -477l94 477h68l92 -477l88 477h53zM195 646l-24 25l107 108h35l107 -108l-25 -25l-100 84z" />
    <glyph glyph-name="Ycircumflex" unicode="&#x176;" horiz-adv-x="434" 
d="M425 685l-178 -417v-268h-58v267l-180 418h62l148 -365l147 365h59zM116 764l-24 25l107 103h35l107 -103l-25 -25l-100 79z" />
    <glyph glyph-name="ycircumflex" unicode="&#x177;" horiz-adv-x="396" 
d="M234 -2q-24 -90 -64 -136.5t-117 -65.5l-7 44q43 12 68 31.5t40 48.5t30 80h-21l-147 523h57l127 -481l124 481h57zM99 646l-24 25l107 108h35l107 -108l-25 -25l-100 84z" />
    <glyph glyph-name="Ydieresis" unicode="&#x178;" horiz-adv-x="434" 
d="M425 685l-178 -417v-268h-58v267l-180 418h62l148 -365l147 365h59zM170.5 855q10.5 -11 10.5 -27q0 -17 -10.5 -28t-27.5 -11q-16 0 -26.5 11t-10.5 28q0 16 10.5 27t26.5 11q17 0 27.5 -11zM328.5 855q10.5 -11 10.5 -27q0 -17 -10.5 -28t-27.5 -11q-16 0 -26.5 11
t-10.5 28q0 16 10.5 27t26.5 11q17 0 27.5 -11z" />
    <glyph glyph-name="Zacute" unicode="&#x179;" horiz-adv-x="423" 
d="M388 685v-48l-300 -585h296l-7 -52h-349v48l300 587h-271v50h331zM282 884l25 -49l-165 -77l-16 32z" />
    <glyph glyph-name="zacute" unicode="&#x17a;" horiz-adv-x="349" 
d="M323 523v-44l-242 -430h240l-5 -49h-295v43l242 431h-222v49h282zM238 778l26 -47l-163 -85l-19 30z" />
    <glyph glyph-name="Zdotaccent" unicode="&#x17b;" horiz-adv-x="423" 
d="M388 685v-48l-300 -585h296l-7 -52h-349v48l300 587h-271v50h331zM245 866q11 -12 11 -30q0 -16 -11 -28t-29 -12q-17 0 -28.5 12t-11.5 28q0 18 11 30t29 12t29 -12z" />
    <glyph glyph-name="zdotaccent" unicode="&#x17c;" horiz-adv-x="349" 
d="M323 523v-44l-242 -430h240l-5 -49h-295v43l242 431h-222v49h282zM207 740q11 -12 11 -30q0 -16 -11 -28t-29 -12q-17 0 -28.5 12t-11.5 28q0 18 11 30t29 12t29 -12z" />
    <glyph glyph-name="Zcaron" unicode="&#x17d;" horiz-adv-x="423" 
d="M388 685v-48l-300 -585h296l-7 -52h-349v48l300 587h-271v50h331zM317 885l23 -25l-107 -104h-35l-107 104l23 25l102 -80z" />
    <glyph glyph-name="zcaron" unicode="&#x17e;" horiz-adv-x="349" 
d="M323 523v-44l-242 -430h240l-5 -49h-295v43l242 431h-222v49h282zM279 767l24 -26l-107 -107h-35l-107 107l24 26l101 -87z" />
    <glyph glyph-name="longs" unicode="&#x17f;" horiz-adv-x="268" 
d="M316 715l-19 -41q-40 22 -78 22q-36 0 -54.5 -18.5t-18.5 -59.5v-618h-56v477h-73v46h73v96q0 57 33.5 90.5t90.5 33.5q51 0 102 -28z" />
    <glyph glyph-name="uni0180" unicode="&#x180;" horiz-adv-x="480" 
d="M388 466.5q41 -67.5 41 -202.5q0 -131 -44 -203t-121 -72q-38 0 -69 21t-53 55l-5 -65h-49v617h-61v45h61v74l56 6v-80h133v-45h-133v-164q51 81 128 81q75 0 116 -67.5zM369 264q0 119 -27 171t-80 52q-37 0 -65.5 -23.5t-52.5 -65.5v-281q48 -81 111 -81q114 0 114 228
z" />
    <glyph glyph-name="uni0181" unicode="&#x181;" horiz-adv-x="548" 
d="M506 189q0 -92 -56.5 -140.5t-157.5 -48.5h-149v637h-19q-61 0 -61 -63q0 -37 21 -77l-40 -20q-15 24 -23.5 46.5t-8.5 54.5q0 48 28.5 77.5t84.5 29.5h140q104 0 159.5 -44.5t55.5 -126.5q0 -121 -120 -151q146 -23 146 -174zM200 637v-253h88q65 0 98.5 33.5t33.5 92.5
q0 127 -149 127h-71zM446 189q0 76 -38 112t-114 36h-94v-288h93q153 0 153 140z" />
    <glyph glyph-name="uni0182" unicode="&#x182;" horiz-adv-x="472" 
d="M381.5 366.5q54.5 -50.5 54.5 -151.5q0 -110 -56.5 -162.5t-159.5 -52.5h-132v685h291l-8 -49h-226v-219h81q101 0 155.5 -50.5zM338 87.5q37 38.5 37 127.5q0 80 -37.5 117t-112.5 37h-80v-320h82q74 0 111 38.5z" />
    <glyph glyph-name="uni0183" unicode="&#x183;" horiz-adv-x="476" 
d="M384 466.5q41 -67.5 41 -202.5q0 -131 -44 -203t-121 -72q-38 0 -69 21t-53 55l-5 -65h-49v736h249l-8 -46h-185v-237q51 81 128 81q75 0 116 -67.5zM365 264q0 119 -27 171t-80 52q-37 0 -65.5 -23.5t-52.5 -65.5v-281q48 -81 111 -81q114 0 114 228z" />
    <glyph glyph-name="uni0184" unicode="&#x184;" horiz-adv-x="464" 
d="M380 371q56 -51 56 -154q0 -217 -216 -217h-132v551l-45 34q34 39 52 100h50v-263h74q105 0 161 -51zM337 88q38 39 38 129q0 83 -38 120t-117 37h-75v-325h79q75 0 113 39z" />
    <glyph glyph-name="uni0185" unicode="&#x185;" horiz-adv-x="417" 
d="M388 177q0 -88 -47 -132.5t-127 -44.5h-128v399l-44 34q31 35 52 90h48v-177h62q184 0 184 -169zM299.5 77q30.5 31 30.5 100q0 62 -28 92.5t-96 30.5h-64v-254h67q60 0 90.5 31z" />
    <glyph glyph-name="uni0186" unicode="&#x186;" horiz-adv-x="455" 
d="M344.5 608.5q57.5 -87.5 57.5 -265.5q0 -117 -29.5 -196.5t-81 -118.5t-118.5 -39q-50 0 -87.5 19t-68.5 51l32 34q31 -27 58 -40t65 -13q76 0 122.5 74t46.5 229q0 303 -159 303q-36 0 -67 -12t-62 -37l-29 36q35 31 73.5 47t86.5 16q103 0 160.5 -87.5z" />
    <glyph glyph-name="uni0187" unicode="&#x187;" horiz-adv-x="455" 
d="M569 791l-24 -36q-15 11 -28.5 17t-30.5 6q-54 0 -54 -73v-72l-30 -33q-30 24 -56.5 35t-59.5 11q-78 0 -125 -71t-47 -232q0 -157 46.5 -230t125.5 -73q38 0 64 14t55 40l33 -36q-65 -69 -153 -69q-105 0 -168.5 89t-63.5 265q0 119 30.5 198t82.5 117t117 38
q54 0 95 -30v37q0 58 28 89.5t75 31.5q49 0 88 -33z" />
    <glyph glyph-name="uni0188" unicode="&#x188;" horiz-adv-x="382" 
d="M498 709l-24 -35q-15 11 -28.5 16.5t-31.5 5.5q-54 0 -54 -72v-143l-24 -31q-26 18 -48 27t-49 9q-60 0 -94 -55t-34 -172q0 -221 127 -221q51 0 97 41l28 -34q-56 -56 -125 -56q-88 0 -137.5 67.5t-49.5 201.5q0 133 50 204.5t137 71.5q39 0 68 -18v106q0 58 28 89.5
t76 31.5q50 0 88 -34z" />
    <glyph glyph-name="uni0189" unicode="&#x189;" horiz-adv-x="529" 
d="M403.5 613q72.5 -72 72.5 -265q0 -194 -73 -271t-183 -77h-125v329h-75v47h75v309h116q120 0 192.5 -72zM362 113q53 65 53 235q0 119 -27.5 182.5t-69.5 84.5t-99 21h-67v-260h135v-47h-135v-281h72q85 0 138 65z" />
    <glyph glyph-name="uni018A" unicode="&#x18a;" horiz-adv-x="578" 
d="M451.5 613q72.5 -72 72.5 -265q0 -194 -73 -271t-183 -77h-125v637h-19q-61 0 -61 -63q0 -37 21 -77l-40 -20q-15 24 -23.5 46.5t-8.5 54.5q0 48 28.5 77.5t84.5 29.5h134q120 0 192.5 -72zM410 113q53 65 53 235q0 119 -27.5 182.5t-69.5 84.5t-99 21h-67v-588h72
q85 0 138 65z" />
    <glyph glyph-name="uni018B" unicode="&#x18b;" horiz-adv-x="472" 
d="M384 0h-132q-103 0 -159.5 50.5t-56.5 155.5q0 103 57 157t164 54h69v219h-230v49h288v-685zM326 49v320h-68q-82 0 -121.5 -39.5t-39.5 -123.5q0 -85 39 -121t120 -36h70z" />
    <glyph glyph-name="uni018C" unicode="&#x18c;" horiz-adv-x="479" 
d="M395 0h-49l-5 76q-45 -87 -125 -87q-78 0 -121.5 71t-43.5 199q0 83 21 145.5t59.5 96t89.5 33.5q73 0 118 -68v224h-189v46h245v-736zM289 60q28 24 50 70v278q-45 79 -110 79q-55 0 -87 -57.5t-32 -169.5q1 -112 30.5 -168t82.5 -56q38 0 66 24z" />
    <glyph glyph-name="uni018D" unicode="&#x18d;" horiz-adv-x="468" 
d="M352.5 -2.5q20.5 -30.5 20.5 -73.5q0 -58 -38.5 -96t-105.5 -38q-40 0 -71.5 12.5t-61.5 36.5l27 35q27 -20 50.5 -29t54.5 -9q43 0 65.5 23.5t22.5 63.5q0 26 -8.5 44t-31 35t-66.5 38q-84 40 -121.5 96.5t-37.5 156.5q0 114 48.5 177.5t136.5 63.5q85 0 133 -61
t48 -179q0 -88 -34.5 -147.5t-97.5 -92.5q47 -26 67.5 -56.5zM122 193.5q12 -39.5 42 -68t85 -54.5q53 32 81.5 86t28.5 137q0 193 -123 193q-126 0 -126 -194q0 -60 12 -99.5z" />
    <glyph glyph-name="uni018E" unicode="&#x18e;" horiz-adv-x="420" 
d="M42 685h291v-685h-297v49h239v282h-197v48h197v257h-233v49z" />
    <glyph glyph-name="uni018F" unicode="&#x18f;" horiz-adv-x="532" 
d="M423 614q56 -82 56 -268t-58 -271.5t-161 -85.5q-217 0 -217 343q0 11 2 41h375q-4 150 -44.5 211.5t-116.5 61.5q-43 0 -78.5 -16t-71.5 -50l-32 34q41 42 85.5 62t99.5 20q105 0 161 -82zM374.5 103.5q41.5 65.5 45.5 221.5h-319q0 -154 41 -220.5t117 -66.5
q74 0 115.5 65.5z" />
    <glyph glyph-name="uni0190" unicode="&#x190;" horiz-adv-x="429" 
d="M318 675q41 -21 79 -63l-33 -33q-61 67 -133 67q-53 0 -82.5 -34t-29.5 -89q0 -62 33 -96.5t88 -34.5h51l-7 -50h-45q-66 1 -101.5 -37t-35.5 -109q0 -76 36 -116t99 -40q43 0 76.5 18t63.5 54l36 -30q-72 -93 -177 -93q-56 0 -100.5 24.5t-69.5 71.5t-25 111
q0 77 36.5 121t91.5 53q-51 13 -80.5 51.5t-29.5 102.5q0 76 45.5 124t122.5 48q50 0 91 -21z" />
    <glyph glyph-name="uni0191" unicode="&#x191;" horiz-adv-x="395" 
d="M145 636v-269h192v-48h-192v-318h1v-90q0 -56 -30 -86t-77 -30q-49 0 -89 34l26 36q29 -22 60 -22q52 0 52 67v775h286l-7 -49h-222z" />
    <glyph glyph-name="florin" unicode="&#x192;" horiz-adv-x="271" 
d="M166 677.5q-18 -18.5 -18 -59.5v-95h113l-8 -46h-105v-459q0 -67 -13.5 -107.5t-38 -64.5t-69.5 -49l-17 41q31 19 48 38t25.5 51.5t8.5 88.5v461h-73v46h73v96q0 57 33.5 90.5t90.5 33.5q52 0 103 -28l-19 -41q-40 22 -80 22q-36 0 -54 -18.5z" />
    <glyph glyph-name="uni0193" unicode="&#x193;" horiz-adv-x="473" 
d="M587 791l-24 -36q-15 11 -28.5 17t-30.5 6q-55 0 -55 -73v-77l-29 -31q-34 26 -62.5 37.5t-64.5 11.5q-77 0 -128 -70t-51 -231q0 -163 45 -234.5t130 -71.5q33 0 60 8.5t53 26.5v246h-106l-6 49h168v-324q-78 -56 -168 -56q-113 0 -175 87t-62 269q0 119 33 198t87 116
t119 37q58 0 104 -32v39q0 58 28 89.5t75 31.5q49 0 88 -33z" />
    <glyph glyph-name="uni0194" unicode="&#x194;" horiz-adv-x="462" 
d="M265 59q27 -68 38 -104t11 -73q0 -41 -21 -64t-61 -23t-61.5 22.5t-21.5 63.5q0 33 10.5 69t38.5 109l-181 626h59l156 -584l156 584h57zM256 -61q-7 28 -24 81q-18 -52 -25 -80t-7 -55q0 -43 32 -43q31 0 31 43q0 26 -7 54z" />
    <glyph glyph-name="uni0195" unicode="&#x195;" horiz-adv-x="730" 
d="M664 258q0 -137 -50.5 -203t-129.5 -66q-62 0 -101 39.5t-39 110.5v237q0 112 -75 112q-71 0 -129 -113v-375h-56v736l56 7v-308q29 48 62 73.5t78 25.5q57 0 88.5 -40.5t31.5 -110.5v-242q0 -52 22.5 -78.5t62.5 -26.5q54 0 88.5 51t34.5 172q0 120 -22 264h56
q22 -148 22 -265z" />
    <glyph glyph-name="uni0196" unicode="&#x196;" horiz-adv-x="284" 
d="M273 23q-40 -34 -89 -34q-47 0 -77 30t-30 86v90h1v490h57v-581q0 -67 52 -67q31 0 60 22z" />
    <glyph glyph-name="uni0197" unicode="&#x197;" horiz-adv-x="258" 
d="M240 383v-46h-83v-337h-57v337h-81v46h81v302h57v-302h83z" />
    <glyph glyph-name="uni0198" unicode="&#x198;" horiz-adv-x="486" 
d="M149 367l143 249q23 41 48 60.5t60 19.5q45 0 80 -37l-23 -32q-14 12 -25 17.5t-27 5.5q-20 0 -34 -11.5t-30 -41.5l-130 -227l247 -370h-66zM145 685v-685h-57v685h57z" />
    <glyph glyph-name="uni0199" unicode="&#x199;" horiz-adv-x="406" 
d="M140 614v-614h-56v614q0 60 33 94.5t92 34.5q53 0 101 -28l-19 -40q-44 21 -78 21q-73 0 -73 -82zM205 289l197 -289h-63l-194 286l179 237h60z" />
    <glyph glyph-name="uni019A" unicode="&#x19a;" horiz-adv-x="241" 
d="M149 349v-270q0 -42 34 -42q14 0 28 6l14 -40q-23 -14 -52 -14q-36 0 -58 23.5t-22 64.5v272h-83v46h83v341l56 7v-348h82v-46h-82z" />
    <glyph glyph-name="uni019B" unicode="&#x19b;" horiz-adv-x="389" 
d="M296.5 258q24.5 -93 46.5 -143.5t55 -102.5l-51 -21q-33 56 -55.5 107t-45 139.5t-44.5 229.5l-126 -476l-53 14l145 509h24q-12 72 -30 108l-57 -72l-34 20l69 87q-28 31 -78 44l7 43q68 -17 103 -53l55 70l32 -26l-62 -76q29 -50 48 -153q27 -155 51.5 -248z" />
    <glyph glyph-name="uni019C" unicode="&#x19c;" horiz-adv-x="759" 
d="M672 685v-685h-51l-4 87q-26 -46 -61 -72t-77 -26q-45 0 -77 28t-47 76q-61 -104 -143 -104q-63 0 -98.5 47.5t-35.5 125.5v523h57v-523q0 -58 22.5 -90.5t62.5 -32.5q39 0 69.5 28t56.5 81v16v521h58v-523q0 -56 22.5 -89.5t62.5 -33.5q39 0 69 28.5t56 82.5v535h58z
" />
    <glyph glyph-name="uni019D" unicode="&#x19d;" horiz-adv-x="551" 
d="M464 685v-685h-76l-254 620q8 -94 8 -233v-476q0 -56 -29.5 -86t-75.5 -30q-51 0 -89 34l26 35q15 -11 29 -16.5t32 -5.5q53 0 53 67v776h76l253 -620q-8 120 -8 201v419h55z" />
    <glyph glyph-name="uni019E" unicode="&#x19e;" horiz-adv-x="480" 
d="M368.5 493.5q31.5 -40.5 31.5 -110.5v-588l-56 8v573q0 112 -75 112q-71 0 -129 -113v-375h-56v523h48l6 -90q29 49 62 75t80 26q57 0 88.5 -40.5z" />
    <glyph glyph-name="uni019F" unicode="&#x19f;" horiz-adv-x="570" 
d="M455 607.5q62 -88.5 62 -265.5q0 -174 -61.5 -263.5t-170.5 -89.5q-107 0 -169.5 88.5t-62.5 263.5q0 116 29 196t81 119.5t122 39.5q108 0 170 -88.5zM113 373h345q-5 142 -49.5 207.5t-123.5 65.5q-164 0 -172 -273zM458 327h-346q2 -148 47.5 -218t125.5 -70
q169 0 173 288z" />
    <glyph glyph-name="Ohorn" unicode="&#x1a0;" horiz-adv-x="570" 
d="M513 626q-17 -22 -51 -30q55 -90 55 -254q0 -174 -61.5 -263.5t-170.5 -89.5q-107 0 -169.5 89t-62.5 263t63 264.5t169 90.5q96 0 154 -67q24 4 34.5 17.5t10.5 39.5q0 34 -11 72l41 12q16 -42 16 -84q0 -38 -17 -60zM412 111.5q44 72.5 44 230.5q0 304 -171 304
q-81 0 -126 -74t-45 -231q0 -155 45.5 -228.5t125.5 -73.5q83 0 127 72.5z" />
    <glyph glyph-name="ohorn" unicode="&#x1a1;" horiz-adv-x="483" 
d="M446 460.5q-18 -21.5 -54 -29.5q29 -64 29 -168q0 -131 -49.5 -202.5t-136.5 -71.5t-135.5 71t-48.5 201q0 132 49 202.5t136 70.5q89 0 137 -68q24 4 34.5 17t10.5 39q0 34 -11 72l41 12q16 -42 16 -84q0 -40 -18 -61.5zM362 263q0 115 -32 169t-94 54q-126 0 -126 -225
t125 -225q127 0 127 227z" />
    <glyph glyph-name="uni01A2" unicode="&#x1a2;" horiz-adv-x="746" 
d="M627 662q31 -34 31 -99v-760h-57v761q0 86 -66 86q-43 0 -88 -31q70 -92 70 -277q0 -174 -61.5 -263.5t-170.5 -89.5q-107 0 -169.5 89t-62.5 263t63 264.5t169 90.5q77 0 132 -45q59 45 122 45q57 0 88 -34zM412 111.5q44 72.5 44 230.5q0 304 -171 304q-81 0 -126 -74
t-45 -231q0 -155 45.5 -228.5t125.5 -73.5q83 0 127 72.5z" />
    <glyph glyph-name="uni01A3" unicode="&#x1a3;" horiz-adv-x="636" 
d="M521 499q31 -35 31 -100v-604l-56 8v597q0 87 -67 87q-32 0 -62 -14q54 -69 54 -210q0 -131 -49.5 -202.5t-136.5 -71.5t-135.5 71t-48.5 201q0 132 49 202.5t136 70.5q57 0 98 -29q48 29 99 29q57 0 88 -35zM362 263q0 115 -32 169t-94 54q-126 0 -126 -225t125 -225
q127 0 127 227z" />
    <glyph glyph-name="uni01A4" unicode="&#x1a4;" horiz-adv-x="521" 
d="M432 634q59 -51 59 -154q0 -212 -239 -212h-52v-268h-57v637h-19q-61 0 -61 -63q0 -37 21 -77l-40 -20q-15 24 -23.5 46.5t-8.5 54.5q0 48 28.5 77.5t84.5 29.5h128q120 0 179 -51zM386.5 353q43.5 37 43.5 126q0 84 -42 121t-134 37h-54v-321h53q90 0 133.5 37z" />
    <glyph glyph-name="uni01A5" unicode="&#x1a5;" horiz-adv-x="476" 
d="M385 466q40 -68 40 -202q0 -132 -43.5 -203.5t-121.5 -71.5q-38 0 -68 19t-52 51v-256l-56 -8v819q0 60 33 94.5t92 34.5q53 0 101 -28l-19 -40q-44 21 -78 21q-73 0 -73 -82v-159q51 79 129 79q76 0 116 -68zM365 264q0 116 -26.5 169.5t-79.5 53.5q-68 0 -119 -88v-284
q46 -78 111 -78q114 0 114 227z" />
    <glyph glyph-name="uni01A6" unicode="&#x1a6;" horiz-adv-x="488" 
d="M400 -126l-145 309q-10 -1 -32 -1h-78v-182h-57v685h57v-126h65q223 0 223 -186q0 -68 -32 -114t-92 -65l154 -320h-63zM334 264q38 35 38 109q0 70 -37.5 104t-126.5 34l-63 -1v-281h71q80 0 118 35z" />
    <glyph glyph-name="uni01A7" unicode="&#x1a7;" horiz-adv-x="437" 
d="M349.5 651q44.5 -45 44.5 -117t-37 -113.5t-125 -76.5q-74 -30 -102 -65t-28 -99q0 -67 34.5 -104t89.5 -37q46 0 81 17.5t69 51.5l33 -33q-78 -86 -184 -86q-53 0 -95 24t-65 67.5t-23 99.5q0 82 39.5 128t123.5 79q50 20 77.5 38.5t39 44t11.5 64.5q0 53 -27.5 82.5
t-76.5 29.5q-41 0 -73 -14t-65 -46l-32 34q39 38 79 57t93 19q74 0 118.5 -45z" />
    <glyph glyph-name="uni01A8" unicode="&#x1a8;" horiz-adv-x="377" 
d="M297 497q40 -37 40 -95q0 -56 -29.5 -89t-98.5 -57q-46 -16 -70 -31.5t-33 -36t-9 -53.5q0 -47 27 -73t72 -26q64 0 119 53l31 -33q-65 -67 -154 -67q-66 0 -109.5 39.5t-43.5 107.5q0 62 32.5 97t105.5 60q59 21 81 44.5t22 65.5q0 39 -24 61.5t-65 22.5
q-32 0 -58 -10.5t-54 -33.5l-28 33q33 29 67 43.5t74 14.5q65 0 105 -37z" />
    <glyph glyph-name="uni01A9" unicode="&#x1a9;" horiz-adv-x="406" 
d="M371 685v-49h-268l173 -280v-33l-175 -273h270v-50h-335v42l189 297l-189 304v42h335z" />
    <glyph glyph-name="uni01AA" unicode="&#x1aa;" horiz-adv-x="246" 
d="M301 -171q-38 -34 -89 -34q-47 0 -76.5 30t-29.5 84v604q-24 -12 -49 -12q-44 0 -71.5 30.5t-27.5 88.5q0 59 28 91t74 32q48 0 75 -30t27 -84v-721q0 -66 54 -66q18 0 32 5.5t28 16.5zM106 558v73q0 66 -46 66q-48 0 -48 -75q0 -42 13 -58.5t38 -16.5q23 0 43 11z" />
    <glyph glyph-name="uni01AB" unicode="&#x1ab;" horiz-adv-x="286" 
d="M288 22v-113q0 -54 -29.5 -84t-76.5 -30q-52 0 -90 34l26 35q27 -22 60 -22q25 0 40.5 15.5t15.5 50.5v90q-19 -9 -45 -9q-48 0 -76 31.5t-28 85.5v371h-70v46h70v125l56 7v-132h110l-7 -46h-103v-370q0 -34 15 -52.5t45 -18.5t67 17z" />
    <glyph glyph-name="uni01AC" unicode="&#x1ac;" horiz-adv-x="435" 
d="M421 634h-162v-634h-58v634h-80q-29 0 -43 -16.5t-14 -44.5q0 -37 20 -74l-41 -22q-15 23 -23 45.5t-8 51.5q0 53 30 82t88 29h297z" />
    <glyph glyph-name="uni01AD" unicode="&#x1ad;" horiz-adv-x="286" 
d="M265 58l23 -36q-42 -33 -93 -33t-80.5 32t-29.5 86v370h-70v46h70v100q0 55 30.5 87.5t82.5 32.5q48 0 90 -33l-24 -36q-16 11 -30.5 16.5t-31.5 5.5q-29 0 -45 -18.5t-16 -51.5v-103h110l-7 -46h-103v-370q0 -33 15 -51.5t46 -18.5t63 21z" />
    <glyph glyph-name="uni01AE" unicode="&#x1ae;" horiz-adv-x="409" 
d="M286 -157q31 0 60 22l26 -36q-40 -34 -89 -34q-47 0 -77 30t-30 86v724h-164v50h390l-7 -50h-161v-725q0 -67 52 -67z" />
    <glyph glyph-name="Uhorn" unicode="&#x1af;" horiz-adv-x="531" 
d="M519.5 620.5q-21.5 -22.5 -65.5 -27.5v-415q0 -82 -48.5 -135.5t-139.5 -53.5q-92 0 -140 53t-48 136v507h57v-502q0 -68 32.5 -105.5t98.5 -37.5t98 38t32 105v502h58v-56q22 4 31.5 17.5t9.5 39.5q0 34 -11 72l41 12q16 -42 16 -84q0 -43 -21.5 -65.5z" />
    <glyph glyph-name="uhorn" unicode="&#x1b0;" horiz-adv-x="493" 
d="M458 456q-22 -22 -66 -27v-429h-48l-4 87q-51 -98 -136 -98q-58 0 -91.5 39t-33.5 104v391h56v-386q0 -50 20.5 -76t57.5 -26q39 0 69 28.5t54 78.5v381h56v-57q23 4 32.5 17.5t9.5 38.5q0 34 -11 72l41 12q16 -42 16 -84q0 -44 -22 -66z" />
    <glyph glyph-name="uni01B1" unicode="&#x1b1;" horiz-adv-x="566" 
d="M113 70.5q-62 81.5 -62 238.5q0 124 30.5 199t81.5 128h-94v49h156v-49q-54 -49 -83.5 -125.5t-29.5 -201.5q0 -139 45 -204.5t126 -65.5t126 65.5t45 204.5q0 125 -29.5 201.5t-82.5 125.5v49h156v-49h-94q52 -48 81.5 -123.5t29.5 -203.5q0 -155 -62.5 -237.5
t-169.5 -82.5q-108 0 -170 81.5z" />
    <glyph glyph-name="uni01B2" unicode="&#x1b2;" horiz-adv-x="531" 
d="M431.5 671q22.5 -25 22.5 -72v-336q0 -86 -26 -147.5t-73 -94t-108 -32.5q-77 0 -123 48.5t-46 126.5v521h57v-517q0 -61 29.5 -94.5t82.5 -33.5q69 0 109 58t40 167v333q0 25 -8.5 37.5t-27.5 12.5q-16 0 -32 -7l-15 40q27 15 56 15q40 0 62.5 -25z" />
    <glyph glyph-name="uni01B3" unicode="&#x1b3;" horiz-adv-x="454" 
d="M189 267l-180 418h62l148 -366l106 292q16 44 38.5 64.5t58.5 20.5q44 0 79 -37l-23 -32q-14 12 -25 17.5t-26 5.5q-20 0 -31.5 -12t-24.5 -45l-124 -325v-268h-58v267z" />
    <glyph glyph-name="uni01B4" unicode="&#x1b4;" horiz-adv-x="391" 
d="M46 -160q43 12 68 31.5t40 48.5t30 80h-22l-146 523h57l127 -482l109 452q9 39 28 58.5t52 19.5q24 0 50 -14l-15 -38q-14 7 -28 7q-15 0 -23 -9t-13 -29l-126 -490q-23 -89 -63 -136t-118 -66z" />
    <glyph glyph-name="uni01B5" unicode="&#x1b5;" horiz-adv-x="423" 
d="M388 685v-48l-138 -269h86v-46h-110l-138 -270h296l-7 -52h-349v48l140 274h-85v46h109l136 267h-271v50h331z" />
    <glyph glyph-name="uni01B6" unicode="&#x1b6;" horiz-adv-x="349" 
d="M323 523v-44l-107 -190h75v-46h-101l-110 -194h241l-5 -49h-295v43l113 200h-73v46h99l104 185h-223v49h282z" />
    <glyph glyph-name="uni01B7" unicode="&#x1b7;" horiz-adv-x="406" 
d="M370 189q0 -89 -50 -144.5t-136 -55.5q-57 0 -99.5 21.5t-73.5 64.5l36 30q30 -36 60.5 -51t73.5 -15q63 0 96.5 40.5t33.5 110.5q0 80 -35.5 114.5t-105.5 34.5h-67v45l184 252h-256v49h318v-47l-185 -253h12q194 0 194 -196z" />
    <glyph glyph-name="uni01B8" unicode="&#x1b8;" horiz-adv-x="406" 
d="M395 75q-35 -43 -77 -64.5t-98 -21.5q-86 0 -135.5 53t-49.5 144q0 98 48.5 148.5t145.5 50.5h13l-186 253v47h319v-49h-257l184 -252v-45h-67q-70 0 -105 -36.5t-35 -116.5q0 -71 32 -109t94 -38q42 0 73 15t64 51z" />
    <glyph glyph-name="uni01B9" unicode="&#x1b9;" horiz-adv-x="381" 
d="M375 -119q-33 -43 -72.5 -64.5t-93.5 -21.5q-85 0 -134 54.5t-49 146.5q0 97 49.5 150t146.5 53h5l-181 280v44h309v-48h-249l176 -276v-44h-54q-74 0 -108.5 -38.5t-34.5 -119.5q0 -75 32 -114.5t93 -39.5q40 0 70.5 15.5t60.5 51.5z" />
    <glyph glyph-name="uni01BA" unicode="&#x1ba;" horiz-adv-x="378" 
d="M51 -150.5q-25 29.5 -25 68.5q0 47 33.5 72t107.5 39q70 13 99 36t29 77q0 43 -23 63t-71 20h-108v45l171 205h-240v48h305v-44l-177 -209h51q74 0 112.5 -33t38.5 -95q-1 -71 -41 -106t-120 -50q-64 -13 -87.5 -26.5t-23.5 -44.5q0 -24 14 -42.5t46 -39.5l-17 -39
q-49 26 -74 55.5z" />
    <glyph glyph-name="uni01BB" unicode="&#x1bb;" horiz-adv-x="390" 
d="M241 263q-31 -47 -139 -192l-16 -21h259l-8 -50h-312v47q111 146 157 216h-116v46h145q35 58 48.5 102.5t13.5 94.5q0 58 -27 90t-73 32q-37 0 -65 -18t-55 -56l-37 27q33 49 71.5 72t87.5 23q72 0 113.5 -46.5t41.5 -121.5q0 -51 -14 -97.5t-46 -101.5h83v-46h-112z" />
    <glyph glyph-name="uni01BC" unicode="&#x1bc;" horiz-adv-x="414" 
d="M345 638h-228v-239q24 16 46.5 24t51.5 8q71 0 114.5 -55.5t43.5 -156.5q0 -69 -23 -121t-64.5 -80.5t-96.5 -28.5q-51 0 -89 20t-73 60l35 31q28 -33 57.5 -48t68.5 -15q59 0 93 47.5t34 135.5q0 87 -31 126t-84 39q-27 0 -47.5 -7.5t-46.5 -24.5h-42v332h290z" />
    <glyph glyph-name="uni01BD" unicode="&#x1bd;" horiz-adv-x="360" 
d="M293 475h-179v-164q37 25 81 25q56 0 91 -44t35 -123q0 -84 -42.5 -132t-114.5 -48q-42 0 -74 16.5t-61 48.5l35 33q27 -26 48 -37t51 -11q47 0 73.5 32.5t26.5 98.5q0 118 -83 118q-21 0 -39 -6t-40 -19h-40v260h241z" />
    <glyph glyph-name="uni01BE" unicode="&#x1be;" horiz-adv-x="408" 
d="M317 350.5q40 -45.5 40 -142.5q0 -101 -48 -158t-131 -57q-49 0 -86 20t-73 61l32 31q30 -32 59 -48t67 -16q58 0 89.5 42.5t31.5 125.5q0 78 -31 116t-85 55l-54 16v162h-54v46h54v132l56 7v-139h97v-46h-97v-132l27 -8q66 -22 106 -67.5z" />
    <glyph glyph-name="uni01BF" unicode="&#x1bf;" horiz-adv-x="476" 
d="M385.5 487q39.5 -47 39.5 -129q0 -76 -27 -134.5t-76.5 -105t-127.5 -95.5l-54 -33v-187l-56 -8v728h49l4 -72q32 40 66.5 61.5t78.5 21.5q64 0 103.5 -47zM322 197.5q43 65.5 43 159.5q0 63 -24 96t-68 33q-38 0 -70 -22t-63 -63v-362l43 29q96 64 139 129.5z" />
    <glyph glyph-name="uni01C0" unicode="&#x1c0;" horiz-adv-x="227" 
d="M139 742v-742h-51v736z" />
    <glyph glyph-name="uni01C1" unicode="&#x1c1;" horiz-adv-x="368" 
d="M139 742v-742h-51v736zM280 742v-742h-51v736z" />
    <glyph glyph-name="uni01C2" unicode="&#x1c2;" horiz-adv-x="258" 
d="M240 419h-85v-108h85v-41h-85v-270h-51v270h-85v41h85v108h-85v41h85v276l51 6v-282h85v-41z" />
    <glyph glyph-name="uni01C3" unicode="&#x1c3;" horiz-adv-x="265" 
d="M158 742v-542h-50v536zM164.5 67q12.5 -13 12.5 -32t-12.5 -32.5t-32.5 -13.5t-32 13.5t-12 32.5t12 32t32 13t32.5 -13z" />
    <glyph glyph-name="uni01C4" unicode="&#x1c4;" horiz-adv-x="920" 
d="M396.5 613q72.5 -72 72.5 -265q0 -194 -73 -271t-183 -77h-125v685h116q120 0 192.5 -72zM145 636v-588h72q85 0 138 65t53 235q0 119 -27.5 182.5t-69.5 84.5t-99 21h-67zM885 685v-48l-300 -585h296l-7 -52h-349v48l300 587h-271v50h331zM814 885l23 -25l-107 -104h-35
l-107 104l23 25l102 -80z" />
    <glyph glyph-name="uni01C5" unicode="&#x1c5;" horiz-adv-x="861" 
d="M396.5 613q72.5 -72 72.5 -265q0 -194 -73 -271t-183 -77h-125v685h116q120 0 192.5 -72zM145 636v-588h72q85 0 138 65t53 235q0 119 -27.5 182.5t-69.5 84.5t-99 21h-67zM835 523v-44l-242 -430h240l-5 -49h-295v43l242 431h-222v49h282zM791 767l24 -26l-107 -107h-35
l-107 107l24 26l101 -87z" />
    <glyph glyph-name="uni01C6" unicode="&#x1c6;" horiz-adv-x="828" 
d="M395 736v-736h-49l-5 76q-45 -87 -125 -87q-78 0 -121.5 71t-43.5 199q0 83 21 145.5t59.5 96t89.5 33.5q73 0 118 -68v277zM289 60q28 24 50 70v278q-45 79 -110 79q-55 0 -87 -57.5t-32 -169.5q1 -112 30.5 -168t82.5 -56q38 0 66 24zM802 523v-44l-242 -430h240
l-5 -49h-295v43l242 431h-222v49h282zM758 767l24 -26l-107 -107h-35l-107 107l24 26l101 -87z" />
    <glyph glyph-name="uni01C7" unicode="&#x1c7;" horiz-adv-x="615" 
d="M145 685v-633h233l-7 -52h-283v685h57zM532 91q0 -59 -14 -97t-42 -63.5t-77 -48.5l-16 41q38 22 57.5 43t26.5 50t7 78v591h58v-594z" />
    <glyph glyph-name="uni01C8" unicode="&#x1c8;" horiz-adv-x="601" 
d="M145 685v-633h233l-7 -52h-283v685h57zM517 -8q0 -55 -13.5 -90t-38.5 -58t-69 -47l-19 40q32 19 49.5 37t26 45.5t8.5 72.5v531h56v-531zM517 740q11 -12 11 -30q0 -16 -11 -28t-29 -12q-17 0 -28.5 12t-11.5 28q0 18 11 30t29 12t29 -12z" />
    <glyph glyph-name="uni01C9" unicode="&#x1c9;" horiz-adv-x="459" 
d="M101 12.5q-22 23.5 -22 64.5v659l56 7v-664q0 -42 34 -42q14 0 28 6l14 -40q-23 -14 -52 -14q-36 0 -58 23.5zM375 -8q0 -55 -13.5 -90t-38.5 -58t-69 -47l-19 40q32 19 49.5 37t26 45.5t8.5 72.5v531h56v-531zM374 740q11 -12 11 -30q0 -16 -11 -28t-29 -12
q-17 0 -28.5 12t-11.5 28q0 18 11 30t29 12t29 -12z" />
    <glyph glyph-name="uni01CA" unicode="&#x1ca;" horiz-adv-x="791" 
d="M464 0h-76l-254 620q8 -94 8 -233v-387h-54v685h76l253 -620q-8 120 -8 201v419h55v-685zM708 91q0 -59 -14 -97t-42 -63.5t-77 -48.5l-16 41q38 22 57.5 43t26.5 50t7 78v591h58v-594z" />
    <glyph glyph-name="uni01CB" unicode="&#x1cb;" horiz-adv-x="775" 
d="M464 0h-76l-254 620q8 -94 8 -233v-387h-54v685h76l253 -620q-8 120 -8 201v419h55v-685zM691 -8q0 -55 -13.5 -90t-38.5 -58t-69 -47l-19 40q32 19 49.5 37t26 45.5t8.5 72.5v531h56v-531zM691 740q11 -12 11 -30q0 -16 -11 -28t-29 -12q-17 0 -28.5 12t-11.5 28
q0 18 11 30t29 12t29 -12z" />
    <glyph glyph-name="uni01CC" unicode="&#x1cc;" horiz-adv-x="704" 
d="M368.5 493.5q31.5 -40.5 31.5 -110.5v-383h-56v376q0 112 -75 112q-71 0 -129 -113v-375h-56v523h48l6 -90q29 49 62 75t80 26q57 0 88.5 -40.5zM620 -8q0 -55 -13.5 -90t-38.5 -58t-69 -47l-19 40q32 19 49.5 37t26 45.5t8.5 72.5v531h56v-531zM619 740q11 -12 11 -30
q0 -16 -11 -28t-29 -12q-17 0 -28.5 12t-11.5 28q0 18 11 30t29 12t29 -12z" />
    <glyph glyph-name="uni01CD" unicode="&#x1cd;" horiz-adv-x="478" 
d="M402 0l-48 188h-232l-48 -188h-57l186 685h72l186 -685h-59zM135 236h206l-103 401zM341 885l23 -25l-107 -104h-35l-107 104l23 25l102 -80z" />
    <glyph glyph-name="uni01CE" unicode="&#x1ce;" horiz-adv-x="443" 
d="M367.5 52.5q8.5 -15.5 26.5 -24.5l-12 -39q-32 8 -49 27t-22 55q-47 -82 -131 -82q-62 0 -99 43t-37 113q0 82 49.5 125.5t141.5 43.5h69v60q0 57 -22.5 85t-70.5 28q-55 0 -120 -28l-16 40q75 35 141 35q72 0 107.5 -40.5t35.5 -115.5v-278q0 -32 8.5 -47.5zM304 131
v142h-64q-70 0 -103.5 -31t-33.5 -95q0 -55 22.5 -84t63.5 -29q76 0 115 97zM315 767l24 -26l-107 -107h-35l-107 107l24 26l101 -87z" />
    <glyph glyph-name="uni01CF" unicode="&#x1cf;" horiz-adv-x="233" 
d="M145 685v-685h-57v685h57zM217 885l23 -25l-107 -104h-35l-107 104l23 25l102 -80z" />
    <glyph glyph-name="uni01D0" unicode="&#x1d0;" horiz-adv-x="224" 
d="M140 523v-523h-56v523h56zM212 767l24 -26l-107 -107h-35l-107 107l24 26l101 -87z" />
    <glyph glyph-name="uni01D1" unicode="&#x1d1;" horiz-adv-x="570" 
d="M455 607.5q62 -88.5 62 -265.5q0 -174 -61.5 -263.5t-170.5 -89.5q-107 0 -169.5 89t-62.5 263t63 264.5t169 90.5q108 0 170 -88.5zM159 572q-45 -74 -45 -231q0 -155 45.5 -228.5t125.5 -73.5q83 0 127 72.5t44 230.5q0 304 -171 304q-81 0 -126 -74zM386 885l23 -25
l-107 -104h-35l-107 104l23 25l102 -80z" />
    <glyph glyph-name="uni01D2" unicode="&#x1d2;" horiz-adv-x="472" 
d="M373 465.5q48 -68.5 48 -202.5q0 -131 -49.5 -202.5t-136.5 -71.5t-135.5 71t-48.5 201q0 132 49 202.5t136 70.5q89 0 137 -68.5zM110 261q0 -225 125 -225q127 0 127 227q0 115 -32 169t-94 54q-126 0 -126 -225zM336 767l24 -26l-107 -107h-35l-107 107l24 26l101 -87
z" />
    <glyph glyph-name="uni01D3" unicode="&#x1d3;" horiz-adv-x="531" 
d="M454 178q0 -82 -48.5 -135.5t-139.5 -53.5q-92 0 -140 53t-48 136v507h57v-502q0 -68 32.5 -105.5t98.5 -37.5t98 38t32 105v502h58v-507zM367 885l23 -25l-107 -104h-35l-107 104l23 25l102 -80z" />
    <glyph glyph-name="uni01D4" unicode="&#x1d4;" horiz-adv-x="476" 
d="M392 0h-48l-4 87q-51 -98 -136 -98q-58 0 -91.5 39t-33.5 104v391h56v-386q0 -50 20.5 -76t57.5 -26q39 0 69 28.5t54 78.5v381h56v-523zM336 767l24 -26l-107 -107h-35l-107 107l24 26l101 -87z" />
    <glyph glyph-name="uni01D5" unicode="&#x1d5;" horiz-adv-x="531" 
d="M454 178q0 -82 -48.5 -135.5t-139.5 -53.5q-92 0 -140 53t-48 136v507h57v-502q0 -68 32.5 -105.5t98.5 -37.5t98 38t32 105v502h58v-507zM214.5 810q10.5 -11 10.5 -27q0 -17 -10.5 -28t-27.5 -11q-16 0 -26.5 11t-10.5 28q0 16 10.5 27t26.5 11q17 0 27.5 -11z
M372.5 810q10.5 -11 10.5 -27q0 -17 -10.5 -28t-27.5 -11q-16 0 -26.5 11t-10.5 28q0 16 10.5 27t26.5 11q17 0 27.5 -11zM368 879h-202v44h202v-44z" />
    <glyph glyph-name="uni01D6" unicode="&#x1d6;" horiz-adv-x="476" 
d="M392 0h-48l-4 87q-51 -98 -136 -98q-58 0 -91.5 39t-33.5 104v391h56v-386q0 -50 20.5 -76t57.5 -26q39 0 69 28.5t54 78.5v381h56v-523zM184.5 699q10.5 -11 10.5 -27q0 -17 -10.5 -28t-27.5 -11q-16 0 -26.5 11t-10.5 28q0 16 10.5 27t26.5 11q17 0 27.5 -11z
M342.5 699q10.5 -11 10.5 -27q0 -17 -10.5 -28t-27.5 -11q-16 0 -26.5 11t-10.5 28q0 16 10.5 27t26.5 11q17 0 27.5 -11zM338 773h-202v44h202v-44z" />
    <glyph glyph-name="uni01D7" unicode="&#x1d7;" horiz-adv-x="531" 
d="M454 178q0 -82 -48.5 -135.5t-139.5 -53.5q-92 0 -140 53t-48 136v507h57v-502q0 -68 32.5 -105.5t98.5 -37.5t98 38t32 105v502h58v-507zM337 969l40 -32l-107 -124l-26 22zM214.5 810q10.5 -11 10.5 -28q0 -16 -10.5 -27t-27.5 -11q-16 0 -26.5 11t-10.5 27
q0 17 10.5 28t26.5 11q17 0 27.5 -11zM372.5 810q10.5 -11 10.5 -28q0 -16 -10.5 -27t-27.5 -11q-16 0 -26.5 11t-10.5 27q0 17 10.5 28t26.5 11q17 0 27.5 -11z" />
    <glyph glyph-name="uni01D8" unicode="&#x1d8;" horiz-adv-x="476" 
d="M392 0h-48l-4 87q-51 -98 -136 -98q-58 0 -91.5 39t-33.5 104v391h56v-386q0 -50 20.5 -76t57.5 -26q39 0 69 28.5t54 78.5v381h56v-523zM306 859l40 -32l-107 -124l-26 22zM183.5 699q10.5 -11 10.5 -27q0 -17 -10.5 -28t-27.5 -11q-16 0 -26.5 11t-10.5 28
q0 16 10.5 27t26.5 11q17 0 27.5 -11zM341.5 699q10.5 -11 10.5 -27q0 -17 -10.5 -28t-27.5 -11q-16 0 -26.5 11t-10.5 28q0 16 10.5 27t26.5 11q17 0 27.5 -11z" />
    <glyph glyph-name="uni01D9" unicode="&#x1d9;" horiz-adv-x="531" 
d="M454 178q0 -82 -48.5 -135.5t-139.5 -53.5q-92 0 -140 53t-48 136v507h57v-502q0 -68 32.5 -105.5t98.5 -37.5t98 38t32 105v502h58v-507zM365 956l23 -25l-107 -104h-35l-107 104l23 25l102 -80zM213.5 810q10.5 -11 10.5 -28q0 -16 -10.5 -27t-26.5 -11t-26.5 11
t-10.5 27q0 17 10.5 28t26.5 11t26.5 -11zM372 810q11 -11 11 -28q0 -16 -11 -27t-27 -11t-26.5 11t-10.5 27q0 17 10.5 28t26.5 11t27 -11z" />
    <glyph glyph-name="uni01DA" unicode="&#x1da;" horiz-adv-x="476" 
d="M392 0h-48l-4 87q-51 -98 -136 -98q-58 0 -91.5 39t-33.5 104v391h56v-386q0 -50 20.5 -76t57.5 -26q39 0 69 28.5t54 78.5v381h56v-523zM337 846l23 -25l-107 -104h-35l-107 104l23 25l102 -80zM183 699q10 -11 10 -27q0 -17 -10 -28t-27 -11q-16 0 -26.5 11t-10.5 28
q0 16 10.5 27t26.5 11q17 0 27 -11zM341 699q11 -11 11 -27q0 -17 -11 -28t-27 -11t-26.5 11t-10.5 28q0 16 10.5 27t26.5 11t27 -11z" />
    <glyph glyph-name="uni01DB" unicode="&#x1db;" horiz-adv-x="531" 
d="M454 178q0 -82 -48.5 -135.5t-139.5 -53.5q-92 0 -140 53t-48 136v507h57v-502q0 -68 32.5 -105.5t98.5 -37.5t98 38t32 105v502h58v-507zM205 969l93 -134l-26 -22l-107 124zM213.5 810q10.5 -11 10.5 -28q0 -16 -10.5 -27t-27.5 -11q-16 0 -26.5 11t-10.5 27
q0 17 10.5 28t26.5 11q17 0 27.5 -11zM371.5 810q10.5 -11 10.5 -28q0 -16 -10.5 -27t-27.5 -11q-16 0 -26.5 11t-10.5 27q0 17 10.5 28t26.5 11q17 0 27.5 -11z" />
    <glyph glyph-name="uni01DC" unicode="&#x1dc;" horiz-adv-x="476" 
d="M392 0h-48l-4 87q-51 -98 -136 -98q-58 0 -91.5 39t-33.5 104v391h56v-386q0 -50 20.5 -76t57.5 -26q39 0 69 28.5t54 78.5v381h56v-523zM170 859l93 -134l-26 -22l-107 124zM183.5 699q10.5 -11 10.5 -27q0 -17 -10.5 -28t-27.5 -11q-16 0 -26.5 11t-10.5 28
q0 16 10.5 27t26.5 11q17 0 27.5 -11zM341.5 699q10.5 -11 10.5 -27q0 -17 -10.5 -28t-27.5 -11q-16 0 -26.5 11t-10.5 28q0 16 10.5 27t26.5 11q17 0 27.5 -11z" />
    <glyph glyph-name="uni01DD" unicode="&#x1dd;" horiz-adv-x="447" 
d="M352 468q44 -66 44 -204q0 -142 -46 -208.5t-131 -66.5q-82 0 -127.5 64.5t-45.5 192.5q0 18 2 38h291q-2 108 -32.5 155t-86.5 47q-34 0 -61.5 -11.5t-57.5 -36.5l-26 36q63 60 144 60q89 0 133 -66zM307.5 81.5q29.5 45.5 31.5 158.5h-238v-6q0 -103 30 -150.5
t88 -47.5q59 0 88.5 45.5z" />
    <glyph glyph-name="uni01DE" unicode="&#x1de;" horiz-adv-x="478" 
d="M402 0l-48 188h-232l-48 -188h-57l186 685h72l186 -685h-59zM135 236h206l-103 401zM188.5 810q10.5 -11 10.5 -27q0 -17 -10.5 -28t-27.5 -11q-16 0 -26.5 11t-10.5 28q0 16 10.5 27t26.5 11q17 0 27.5 -11zM346.5 810q10.5 -11 10.5 -27q0 -17 -10.5 -28t-27.5 -11
q-16 0 -26.5 11t-10.5 28q0 16 10.5 27t26.5 11q17 0 27.5 -11zM342 879h-202v44h202v-44z" />
    <glyph glyph-name="uni01DF" unicode="&#x1df;" horiz-adv-x="443" 
d="M367.5 52.5q8.5 -15.5 26.5 -24.5l-12 -39q-32 8 -49 27t-22 55q-47 -82 -131 -82q-62 0 -99 43t-37 113q0 82 49.5 125.5t141.5 43.5h69v60q0 57 -22.5 85t-70.5 28q-55 0 -120 -28l-16 40q75 35 141 35q72 0 107.5 -40.5t35.5 -115.5v-278q0 -32 8.5 -47.5zM304 131
v142h-64q-70 0 -103.5 -31t-33.5 -95q0 -55 22.5 -84t63.5 -29q76 0 115 97zM163.5 699q10.5 -11 10.5 -27q0 -17 -10.5 -28t-27.5 -11q-16 0 -26.5 11t-10.5 28q0 16 10.5 27t26.5 11q17 0 27.5 -11zM321.5 699q10.5 -11 10.5 -27q0 -17 -10.5 -28t-27.5 -11
q-16 0 -26.5 11t-10.5 28q0 16 10.5 27t26.5 11q17 0 27.5 -11zM317 773h-202v44h202v-44z" />
    <glyph glyph-name="uni01E0" unicode="&#x1e0;" horiz-adv-x="478" 
d="M402 0l-48 188h-232l-48 -188h-57l186 685h72l186 -685h-59zM135 236h206l-103 401zM269 813q11 -12 11 -30q0 -16 -11 -28t-29 -12q-17 0 -28.5 12t-11.5 28q0 18 11 30t29 12t29 -12zM341 879h-202v44h202v-44z" />
    <glyph glyph-name="uni01E1" unicode="&#x1e1;" horiz-adv-x="443" 
d="M367.5 52.5q8.5 -15.5 26.5 -24.5l-12 -39q-32 8 -49 27t-22 55q-47 -82 -131 -82q-62 0 -99 43t-37 113q0 82 49.5 125.5t141.5 43.5h69v60q0 57 -22.5 85t-70.5 28q-55 0 -120 -28l-16 40q75 35 141 35q72 0 107.5 -40.5t35.5 -115.5v-278q0 -32 8.5 -47.5zM304 131
v142h-64q-70 0 -103.5 -31t-33.5 -95q0 -55 22.5 -84t63.5 -29q76 0 115 97zM244 690q11 -12 11 -30q0 -16 -11 -28t-29 -12q-17 0 -28.5 12t-11.5 28q0 18 11 30t29 12t29 -12zM316 758h-202v44h202v-44z" />
    <glyph glyph-name="uni01E2" unicode="&#x1e2;" horiz-adv-x="648" 
d="M424 49h187v-49h-234l-36 184h-229l-56 -184h-58l221 685h354l-7 -49h-261l52 -257h209v-48h-199zM127 233h204l-79 406zM477 803h-202v44h202v-44z" />
    <glyph glyph-name="uni01E3" unicode="&#x1e3;" horiz-adv-x="697" 
d="M649 239h-286q4 -103 39 -152.5t92 -49.5q33 0 59 12t54 37l27 -33q-31 -31 -66 -47.5t-78 -16.5q-53 0 -92.5 27t-62.5 78q-33 -56 -69.5 -80.5t-83.5 -24.5q-63 0 -100.5 43t-37.5 113q0 82 50 125.5t140 43.5h71v51q0 63 -22.5 92.5t-74.5 29.5q-47 0 -116 -29l-14 41
q76 35 137 35q56 0 87.5 -25t43.5 -74q47 99 139 99q80 0 123 -65t43 -188q0 -22 -2 -42zM595 299q0 188 -110 188q-53 0 -85.5 -50.5t-36.5 -153.5h232v16zM259.5 59.5q29.5 25.5 59.5 81.5q-14 53 -14 115v17h-67q-66 0 -100.5 -31.5t-34.5 -94.5q0 -54 23.5 -83.5
t64.5 -29.5q39 0 68.5 25.5zM451 677h-202v44h202v-44z" />
    <glyph glyph-name="uni01E4" unicode="&#x1e4;" horiz-adv-x="523" 
d="M518 193h-60v-148q-78 -56 -170 -56q-111 0 -173 88.5t-62 267.5q0 117 33 196t87.5 117t118.5 38q49 0 85.5 -16.5t71.5 -51.5l-33 -36q-29 29 -58 41.5t-65 12.5q-48 0 -88.5 -29.5t-65.5 -96.5t-25 -175q0 -306 175 -306q33 0 60.5 8.5t53.5 27.5v118h-106v48h106v79
h-107l-6 49h168v-128h60v-48z" />
    <glyph glyph-name="uni01E5" unicode="&#x1e5;" horiz-adv-x="417" 
d="M442 -80h-47q-9 -58 -56.5 -91.5t-131.5 -33.5q-97 0 -139.5 37t-42.5 113h51q1 -56 29.5 -79.5t101.5 -23.5q121 0 136 78h-122v44h122q-12 66 -106 66h-44q-63 0 -93.5 25t-30.5 66q0 50 49 88q-74 47 -74 148q0 81 44.5 129t118.5 48q76 0 112.5 7.5t73.5 24.5l17 -53
q-40 -15 -119 -15q75 -42 75 -143q0 -80 -42.5 -126t-116.5 -46q-29 0 -54 11q-33 -25 -33 -61q0 -57 73 -57h54q64 0 103 -31t46 -81h46v-44zM128.5 260q28.5 -35 76.5 -35q105 0 105 131q0 63 -26 98.5t-78 35.5q-106 0 -106 -133q0 -62 28.5 -97z" />
    <glyph glyph-name="Gcaron" unicode="&#x1e6;" horiz-adv-x="513" 
d="M376 679.5q36 -16.5 73 -51.5l-32 -34q-32 28 -60 40t-64 12q-77 0 -128 -70t-51 -231q0 -163 45 -234.5t130 -71.5q33 0 60 8.5t53 26.5v246h-106l-6 49h168v-324q-78 -56 -168 -56q-113 0 -175 87t-62 269q0 119 33 198t87.5 116t119.5 37q47 0 83 -16.5zM391 885
l23 -25l-107 -104h-35l-107 104l23 25l102 -80z" />
    <glyph glyph-name="gcaron" unicode="&#x1e7;" horiz-adv-x="417" 
d="M410 513q-40 -15 -119 -15q75 -42 75 -143q0 -80 -42.5 -126t-116.5 -46q-29 0 -54 11q-33 -25 -33 -61q0 -57 73 -57h54q70 0 110 -36.5t40 -94.5q0 -68 -48.5 -109t-141.5 -41q-97 0 -139.5 37t-42.5 113h51q1 -56 29.5 -79.5t101.5 -23.5q134 0 134 100
q0 43 -26.5 65.5t-77.5 22.5h-44q-63 0 -93.5 25t-30.5 66q0 50 49 88q-74 47 -74 148q0 81 44.5 129t118.5 48q76 0 112.5 7.5t73.5 24.5zM100 357q0 -62 28.5 -97t76.5 -35q105 0 105 131q0 63 -26 98.5t-78 35.5q-106 0 -106 -133zM309 767l24 -26l-107 -107h-35
l-107 107l24 26l101 -87z" />
    <glyph glyph-name="uni01E8" unicode="&#x1e8;" horiz-adv-x="463" 
d="M145 685v-685h-57v685h57zM443 685l-230 -315l245 -370h-66l-243 367l232 318h62zM354 885l23 -25l-107 -104h-35l-107 104l23 25l102 -80z" />
    <glyph glyph-name="uni01E9" unicode="&#x1e9;" horiz-adv-x="406" 
d="M140 743v-743h-56v736zM384 523l-179 -234l197 -289h-63l-194 286l179 237h60zM325 936l23 -25l-107 -104h-35l-107 104l23 25l102 -80z" />
    <glyph glyph-name="uni01EA" unicode="&#x1ea;" horiz-adv-x="570" 
d="M278 -56.5q-22 -26.5 -22 -63.5q0 -51 51 -51q20 0 47 6l-5 -45q-28 -7 -48 -7q-45 0 -69.5 25t-24.5 66q0 35 17.5 63t53.5 52q-104 3 -164.5 92t-60.5 260q0 174 63 264.5t169 90.5q108 0 170 -88.5t62 -265.5q0 -144 -42.5 -230.5t-120.5 -111.5q-54 -30 -76 -56.5z
M159.5 112.5q45.5 -73.5 125.5 -73.5q83 0 127 72.5t44 230.5q0 304 -171 304q-81 0 -126 -74t-45 -231q0 -155 45.5 -228.5z" />
    <glyph glyph-name="uni01EB" unicode="&#x1eb;" horiz-adv-x="472" 
d="M218.5 -57q-21.5 -26 -21.5 -63q0 -51 51 -51q20 0 47 6l-5 -45q-28 -7 -48 -7q-45 0 -69.5 25t-24.5 66q0 69 72 116q-80 6 -124.5 76.5t-44.5 194.5q0 132 49 202.5t136 70.5q89 0 137 -68.5t48 -202.5q0 -107 -33 -174.5t-94 -89.5q-54 -30 -75.5 -56zM235 36
q127 0 127 227q0 115 -32 169t-94 54q-126 0 -126 -225t125 -225z" />
    <glyph glyph-name="uni01EC" unicode="&#x1ec;" horiz-adv-x="570" 
d="M386 847v-44h-202v44h202zM278 -56.5q-22 -26.5 -22 -63.5q0 -51 51 -51q20 0 47 6l-5 -45q-28 -7 -48 -7q-45 0 -69.5 25t-24.5 66q0 35 17.5 63t53.5 52q-104 3 -164.5 92t-60.5 260q0 174 63 264.5t169 90.5q108 0 170 -88.5t62 -265.5q0 -144 -42.5 -230.5
t-120.5 -111.5q-54 -30 -76 -56.5zM159.5 112.5q45.5 -73.5 125.5 -73.5q83 0 127 72.5t44 230.5q0 304 -171 304q-81 0 -126 -74t-45 -231q0 -155 45.5 -228.5z" />
    <glyph glyph-name="uni01ED" unicode="&#x1ed;" horiz-adv-x="472" 
d="M337 721v-44h-202v44h202zM218.5 -57q-21.5 -26 -21.5 -63q0 -51 51 -51q20 0 47 6l-5 -45q-28 -7 -48 -7q-45 0 -69.5 25t-24.5 66q0 69 72 116q-80 6 -124.5 76.5t-44.5 194.5q0 132 49 202.5t136 70.5q89 0 137 -68.5t48 -202.5q0 -107 -33 -174.5t-94 -89.5
q-54 -30 -75.5 -56zM235 36q127 0 127 227q0 115 -32 169t-94 54q-126 0 -126 -225t125 -225z" />
    <glyph glyph-name="uni01EE" unicode="&#x1ee;" horiz-adv-x="406" 
d="M370 189q0 -89 -50 -144.5t-136 -55.5q-57 0 -99.5 21.5t-73.5 64.5l36 30q30 -36 60.5 -51t73.5 -15q63 0 96.5 40.5t33.5 110.5q0 80 -35.5 114.5t-105.5 34.5h-67v45l184 252h-256v49h318v-47l-185 -253h12q194 0 194 -196zM291 885l23 -25l-107 -104h-35l-107 104
l23 25l102 -80z" />
    <glyph glyph-name="uni01EF" unicode="&#x1ef;" horiz-adv-x="381" 
d="M355 4q0 -94 -49.5 -151.5t-134.5 -57.5q-53 0 -92.5 21.5t-72.5 64.5l34 29q30 -36 60 -51.5t69 -15.5q62 0 94.5 43t32.5 119q0 80 -34 115t-109 35h-54v44l176 276h-249v48h309v-44l-181 -280h5q196 0 196 -195zM280 767l24 -26l-107 -107h-35l-107 107l24 26l101 -87
z" />
    <glyph glyph-name="uni01F0" unicode="&#x1f0;" horiz-adv-x="224" 
d="M140 -8q0 -55 -13.5 -90t-38.5 -58t-69 -47l-19 40q32 19 49.5 37t26 45.5t8.5 72.5v531h56v-531zM211 767l24 -26l-107 -107h-35l-107 107l24 26l101 -87z" />
    <glyph glyph-name="uni01F1" unicode="&#x1f1;" horiz-adv-x="920" 
d="M396.5 613q72.5 -72 72.5 -265q0 -194 -73 -271t-183 -77h-125v685h116q120 0 192.5 -72zM145 636v-588h72q85 0 138 65t53 235q0 119 -27.5 182.5t-69.5 84.5t-99 21h-67zM885 685v-48l-300 -585h296l-7 -52h-349v48l300 587h-271v50h331z" />
    <glyph glyph-name="uni01F2" unicode="&#x1f2;" horiz-adv-x="861" 
d="M396.5 613q72.5 -72 72.5 -265q0 -194 -73 -271t-183 -77h-125v685h116q120 0 192.5 -72zM145 636v-588h72q85 0 138 65t53 235q0 119 -27.5 182.5t-69.5 84.5t-99 21h-67zM835 523v-44l-242 -430h240l-5 -49h-295v43l242 431h-222v49h282z" />
    <glyph glyph-name="uni01F3" unicode="&#x1f3;" horiz-adv-x="828" 
d="M395 736v-736h-49l-5 76q-45 -87 -125 -87q-78 0 -121.5 71t-43.5 199q0 83 21 145.5t59.5 96t89.5 33.5q73 0 118 -68v277zM289 60q28 24 50 70v278q-45 79 -110 79q-55 0 -87 -57.5t-32 -169.5q1 -112 30.5 -168t82.5 -56q38 0 66 24zM802 523v-44l-242 -430h240
l-5 -49h-295v43l242 431h-222v49h282z" />
    <glyph glyph-name="uni01F4" unicode="&#x1f4;" horiz-adv-x="513" 
d="M376 679.5q36 -16.5 73 -51.5l-32 -34q-32 28 -60 40t-64 12q-77 0 -128 -70t-51 -231q0 -163 45 -234.5t130 -71.5q33 0 60 8.5t53 26.5v246h-106l-6 49h168v-324q-78 -56 -168 -56q-113 0 -175 87t-62 269q0 119 33 198t87.5 116t119.5 37q47 0 83 -16.5zM356 884
l25 -49l-165 -77l-16 32z" />
    <glyph glyph-name="uni01F5" unicode="&#x1f5;" horiz-adv-x="417" 
d="M410 513q-40 -15 -119 -15q75 -42 75 -143q0 -80 -42.5 -126t-116.5 -46q-29 0 -54 11q-33 -25 -33 -61q0 -57 73 -57h54q70 0 110 -36.5t40 -94.5q0 -68 -48.5 -109t-141.5 -41q-97 0 -139.5 37t-42.5 113h51q1 -56 29.5 -79.5t101.5 -23.5q134 0 134 100
q0 43 -26.5 65.5t-77.5 22.5h-44q-63 0 -93.5 25t-30.5 66q0 50 49 88q-74 47 -74 148q0 81 44.5 129t118.5 48q76 0 112.5 7.5t73.5 24.5zM100 357q0 -62 28.5 -97t76.5 -35q105 0 105 131q0 63 -26 98.5t-78 35.5q-106 0 -106 -133zM268 778l26 -47l-163 -85l-19 30z" />
    <glyph glyph-name="uni01F6" unicode="&#x1f6;" horiz-adv-x="792" 
d="M726 258q0 -137 -50.5 -203t-129.5 -66q-61 0 -101.5 39.5t-40.5 110.5v197h-259v-336h-57v685h57v-300h259v300h58v-542q0 -53 23 -80t62 -27q54 0 88.5 51t34.5 172q0 120 -22 264h56q22 -148 22 -265z" />
    <glyph glyph-name="uni01F7" unicode="&#x1f7;" horiz-adv-x="466" 
d="M393 647.5q43 -48.5 43 -133.5q0 -71 -27.5 -120.5t-73 -82.5t-111.5 -63l-79 -35v-213h-57v685h57v-52q65 63 136 63q69 0 112 -48.5zM335 382.5q40 49.5 40 131.5q0 64 -27.5 98t-75.5 34q-68 0 -127 -62v-322l76 36q74 35 114 84.5z" />
    <glyph glyph-name="uni01F8" unicode="&#x1f8;" horiz-adv-x="551" 
d="M464 0h-76l-254 620q8 -94 8 -233v-387h-54v685h76l253 -620q-8 120 -8 201v419h55v-685zM215 883l155 -93l-17 -32l-164 76z" />
    <glyph glyph-name="uni01F9" unicode="&#x1f9;" horiz-adv-x="480" 
d="M368.5 493.5q31.5 -40.5 31.5 -110.5v-383h-56v376q0 112 -75 112q-71 0 -129 -113v-375h-56v523h48l6 -90q29 49 62 75t80 26q57 0 88.5 -40.5zM184 778l155 -102l-19 -30l-163 85z" />
    <glyph glyph-name="Aringacute" unicode="&#x1fa;" horiz-adv-x="478" 
d="M402 0l-48 188h-232l-48 -188h-57l186 685h72l186 -685h-59zM135 236h206l-103 401zM304 890.5q23 -24.5 23 -68.5q0 -45 -23 -69.5t-61 -24.5t-61 24.5t-23 69.5q0 44 23 68.5t61 24.5t61 -24.5zM210 867.5q-11 -13.5 -11 -45.5t11 -46t33 -14t33.5 14t11.5 46
t-11.5 45.5t-33.5 13.5t-33 -13.5zM309 1053l25 -49l-165 -77l-16 32z" />
    <glyph glyph-name="aringacute" unicode="&#x1fb;" horiz-adv-x="443" 
d="M306 859l-165 -77l-16 32l156 94zM154 749.5q23 24.5 61 24.5t61 -24.5t23 -68.5q0 -45 -23 -69.5t-61 -24.5t-61 24.5t-23 69.5q0 44 23 68.5zM248.5 726.5q-11.5 13.5 -33.5 13.5t-33 -13.5t-11 -45.5t11 -46t33 -14t33.5 14t11.5 46t-11.5 45.5zM367.5 52.5
q8.5 -15.5 26.5 -24.5l-12 -39q-32 8 -49 27t-22 55q-47 -82 -131 -82q-62 0 -99 43t-37 113q0 82 49.5 125.5t141.5 43.5h69v60q0 57 -22.5 85t-70.5 28q-55 0 -120 -28l-16 40q75 35 141 35q72 0 107.5 -40.5t35.5 -115.5v-278q0 -32 8.5 -47.5zM304 131v142h-64
q-70 0 -103.5 -31t-33.5 -95q0 -55 22.5 -84t63.5 -29q76 0 115 97z" />
    <glyph glyph-name="AEacute" unicode="&#x1fc;" horiz-adv-x="648" 
d="M424 49h187v-49h-234l-36 184h-229l-56 -184h-58l221 685h354l-7 -49h-261l52 -257h209v-48h-199zM127 233h204l-79 406zM442 884l25 -49l-165 -77l-16 32z" />
    <glyph glyph-name="aeacute" unicode="&#x1fd;" horiz-adv-x="697" 
d="M649 239h-286q4 -103 39 -152.5t92 -49.5q33 0 59 12t54 37l27 -33q-31 -31 -66 -47.5t-78 -16.5q-53 0 -92.5 27t-62.5 78q-33 -56 -69.5 -80.5t-83.5 -24.5q-63 0 -100.5 43t-37.5 113q0 82 50 125.5t140 43.5h71v51q0 63 -22.5 92.5t-74.5 29.5q-47 0 -116 -29l-14 41
q76 35 137 35q56 0 87.5 -25t43.5 -74q47 99 139 99q80 0 123 -65t43 -188q0 -22 -2 -42zM595 299q0 188 -110 188q-53 0 -85.5 -50.5t-36.5 -153.5h232v16zM259.5 59.5q29.5 25.5 59.5 81.5q-14 53 -14 115v17h-67q-66 0 -100.5 -31.5t-34.5 -94.5q0 -54 23.5 -83.5
t64.5 -29.5q39 0 68.5 25.5zM409 778l26 -47l-163 -85l-19 30z" />
    <glyph glyph-name="Oslashacute" unicode="&#x1fe;" horiz-adv-x="570" 
d="M484 551.5q33 -82.5 33 -209.5q0 -174 -61.5 -263.5t-170.5 -89.5q-30 0 -62 8l-28 -116l-49 13l33 123q-60 35 -93 116.5t-33 207.5q0 116 29 196t81 119.5t122 39.5q31 0 60 -8l30 122l49 -14l-33 -127q60 -35 93 -117.5zM200 65l136 574q-22 7 -51 7q-82 0 -127 -74
t-45 -231q0 -215 87 -276zM412.5 113q43.5 74 43.5 236q0 213 -85 272l-137 -574q21 -8 51 -8q84 0 127.5 74zM346 896l25 -49l-165 -77l-16 32z" />
    <glyph glyph-name="oslashacute" unicode="&#x1ff;" horiz-adv-x="472" 
d="M397.5 418q23.5 -62 23.5 -155q0 -131 -49.5 -202.5t-136.5 -71.5q-25 0 -48 6l-33 -120l-46 13l37 126q-46 30 -70 93t-24 154q0 132 49 202.5t136 70.5q26 0 50 -6l33 120l45 -13l-35 -126q45 -29 68.5 -91zM164 60l112 421q-18 6 -40 6q-127 0 -127 -226
q0 -152 55 -201zM330.5 90.5q32.5 54.5 32.5 172.5q0 80 -13.5 128.5t-41.5 72.5l-111 -423q20 -5 38 -5q63 0 95.5 54.5zM295 778l26 -47l-163 -85l-19 30z" />
    <glyph glyph-name="uni0200" unicode="&#x200;" horiz-adv-x="478" 
d="M402 0l-48 188h-232l-48 -188h-57l186 685h72l186 -685h-59zM135 236h206l-103 401zM139 935l65 -151l-33 -15l-78 141zM248 934l59 -146l-33 -15l-72 137z" />
    <glyph glyph-name="uni0201" unicode="&#x201;" horiz-adv-x="443" 
d="M367.5 52.5q8.5 -15.5 26.5 -24.5l-12 -39q-32 8 -49 27t-22 55q-47 -82 -131 -82q-62 0 -99 43t-37 113q0 82 49.5 125.5t141.5 43.5h69v60q0 57 -22.5 85t-70.5 28q-55 0 -120 -28l-16 40q75 35 141 35q72 0 107.5 -40.5t35.5 -115.5v-278q0 -32 8.5 -47.5zM304 131
v142h-64q-70 0 -103.5 -31t-33.5 -95q0 -55 22.5 -84t63.5 -29q76 0 115 97zM120 809l65 -151l-33 -15l-78 141zM229 808l59 -146l-33 -15l-72 137z" />
    <glyph glyph-name="uni0202" unicode="&#x202;" horiz-adv-x="478" 
d="M402 0l-48 188h-232l-48 -188h-57l186 685h72l186 -685h-59zM135 236h206l-103 401zM315 875q30 -29 35 -81l-37 -8q-15 73 -74 73q-57 0 -73 -73l-36 8q5 52 34.5 81t74.5 29q46 0 76 -29z" />
    <glyph glyph-name="uni0203" unicode="&#x203;" horiz-adv-x="443" 
d="M367.5 52.5q8.5 -15.5 26.5 -24.5l-12 -39q-32 8 -49 27t-22 55q-47 -82 -131 -82q-62 0 -99 43t-37 113q0 82 49.5 125.5t141.5 43.5h69v60q0 57 -22.5 85t-70.5 28q-55 0 -120 -28l-16 40q75 35 141 35q72 0 107.5 -40.5t35.5 -115.5v-278q0 -32 8.5 -47.5zM304 131
v142h-64q-70 0 -103.5 -31t-33.5 -95q0 -55 22.5 -84t63.5 -29q76 0 115 97zM290 713q30 -29 35 -81l-37 -8q-15 73 -74 73q-57 0 -73 -73l-36 8q5 52 34.5 81t74.5 29q46 0 76 -29z" />
    <glyph glyph-name="uni0204" unicode="&#x204;" horiz-adv-x="420" 
d="M379 685l-6 -49h-228v-257h197v-48h-197v-282h239v-49h-296v685h291zM136 935l65 -151l-33 -15l-78 141zM245 934l59 -146l-33 -15l-72 137z" />
    <glyph glyph-name="uni0205" unicode="&#x205;" horiz-adv-x="443" 
d="M395 239h-286q4 -108 37.5 -155t91.5 -47q34 0 60 11.5t54 36.5l28 -33q-31 -31 -65.5 -47t-77.5 -16q-87 0 -136.5 68.5t-49.5 199.5q0 133 47.5 205t130.5 72q82 0 125 -64.5t43 -188.5q0 -22 -2 -42zM342 299q0 94 -28 141t-85 47q-113 0 -120 -204h233v16zM134 809
l65 -151l-33 -15l-78 141zM243 808l59 -146l-33 -15l-72 137z" />
    <glyph glyph-name="uni0206" unicode="&#x206;" horiz-adv-x="420" 
d="M379 685l-6 -49h-228v-257h197v-48h-197v-282h239v-49h-296v685h291zM312 875q30 -29 35 -81l-37 -8q-15 73 -74 73q-57 0 -73 -73l-36 8q5 52 34.5 81t74.5 29q46 0 76 -29z" />
    <glyph glyph-name="uni0207" unicode="&#x207;" horiz-adv-x="443" 
d="M395 239h-286q4 -108 37.5 -155t91.5 -47q34 0 60 11.5t54 36.5l28 -33q-31 -31 -65.5 -47t-77.5 -16q-87 0 -136.5 68.5t-49.5 199.5q0 133 47.5 205t130.5 72q82 0 125 -64.5t43 -188.5q0 -22 -2 -42zM342 299q0 94 -28 141t-85 47q-113 0 -120 -204h233v16zM304 713
q30 -29 35 -81l-37 -8q-15 73 -74 73q-57 0 -73 -73l-36 8q5 52 34.5 81t74.5 29q46 0 76 -29z" />
    <glyph glyph-name="uni0208" unicode="&#x208;" horiz-adv-x="233" 
d="M145 685v-685h-57v685h57zM15 935l65 -151l-33 -15l-78 141zM124 934l59 -146l-33 -15l-72 137z" />
    <glyph glyph-name="uni0209" unicode="&#x209;" horiz-adv-x="224" 
d="M140 523v-523h-56v523h56zM17 809l65 -151l-33 -15l-78 141zM126 808l59 -146l-33 -15l-72 137z" />
    <glyph glyph-name="uni020A" unicode="&#x20a;" horiz-adv-x="233" 
d="M145 685v-685h-57v685h57zM191 875q30 -29 35 -81l-37 -8q-15 73 -74 73q-57 0 -73 -73l-36 8q5 52 34.5 81t74.5 29q46 0 76 -29z" />
    <glyph glyph-name="uni020B" unicode="&#x20b;" horiz-adv-x="224" 
d="M140 523v-523h-56v523h56zM187 713q30 -29 35 -81l-37 -8q-15 73 -74 73q-57 0 -73 -73l-36 8q5 52 34.5 81t74.5 29q46 0 76 -29z" />
    <glyph glyph-name="uni020C" unicode="&#x20c;" horiz-adv-x="570" 
d="M455 607.5q62 -88.5 62 -265.5q0 -174 -61.5 -263.5t-170.5 -89.5q-107 0 -169.5 89t-62.5 263t63 264.5t169 90.5q108 0 170 -88.5zM159 572q-45 -74 -45 -231q0 -155 45.5 -228.5t125.5 -73.5q83 0 127 72.5t44 230.5q0 304 -171 304q-81 0 -126 -74zM184 935l65 -151
l-33 -15l-78 141zM293 934l59 -146l-33 -15l-72 137z" />
    <glyph glyph-name="uni020D" unicode="&#x20d;" horiz-adv-x="472" 
d="M373 465.5q48 -68.5 48 -202.5q0 -131 -49.5 -202.5t-136.5 -71.5t-135.5 71t-48.5 201q0 132 49 202.5t136 70.5q89 0 137 -68.5zM110 261q0 -225 125 -225q127 0 127 227q0 115 -32 169t-94 54q-126 0 -126 -225zM141 809l65 -151l-33 -15l-78 141zM250 808l59 -146
l-33 -15l-72 137z" />
    <glyph glyph-name="uni020E" unicode="&#x20e;" horiz-adv-x="570" 
d="M455 607.5q62 -88.5 62 -265.5q0 -174 -61.5 -263.5t-170.5 -89.5q-107 0 -169.5 89t-62.5 263t63 264.5t169 90.5q108 0 170 -88.5zM159 572q-45 -74 -45 -231q0 -155 45.5 -228.5t125.5 -73.5q83 0 127 72.5t44 230.5q0 304 -171 304q-81 0 -126 -74zM360 875
q30 -29 35 -81l-37 -8q-15 73 -74 73q-57 0 -73 -73l-36 8q5 52 34.5 81t74.5 29q46 0 76 -29z" />
    <glyph glyph-name="uni020F" unicode="&#x20f;" horiz-adv-x="472" 
d="M373 465.5q48 -68.5 48 -202.5q0 -131 -49.5 -202.5t-136.5 -71.5t-135.5 71t-48.5 201q0 132 49 202.5t136 70.5q89 0 137 -68.5zM110 261q0 -225 125 -225q127 0 127 227q0 115 -32 169t-94 54q-126 0 -126 -225zM311 713q30 -29 35 -81l-37 -8q-15 73 -74 73
q-57 0 -73 -73l-36 8q5 52 34.5 81t74.5 29q46 0 76 -29z" />
    <glyph glyph-name="uni0210" unicode="&#x210;" horiz-adv-x="487" 
d="M398 0l-144 309l-32 -1h-77v-308h-57v685h122q223 0 223 -186q0 -67 -32 -113t-92 -66l153 -320h-64zM333.5 390.5q37.5 34.5 37.5 108.5q0 70 -37 104t-127 34h-62v-281h70q81 0 118.5 34.5zM139 935l65 -151l-33 -15l-78 141zM248 934l59 -146l-33 -15l-72 137z" />
    <glyph glyph-name="uni0211" unicode="&#x211;" horiz-adv-x="310" 
d="M300 528l-10 -52q-18 5 -36 5q-43 0 -70 -37.5t-44 -113.5v-330h-56v523h48l5 -105q19 59 49 87.5t74 28.5q18 0 40 -6zM97 809l65 -151l-33 -15l-78 141zM206 808l59 -146l-33 -15l-72 137z" />
    <glyph glyph-name="uni0212" unicode="&#x212;" horiz-adv-x="487" 
d="M398 0l-144 309l-32 -1h-77v-308h-57v685h122q223 0 223 -186q0 -67 -32 -113t-92 -66l153 -320h-64zM333.5 390.5q37.5 34.5 37.5 108.5q0 70 -37 104t-127 34h-62v-281h70q81 0 118.5 34.5zM315 875q30 -29 35 -81l-37 -8q-15 73 -74 73q-57 0 -73 -73l-36 8
q5 52 34.5 81t74.5 29q46 0 76 -29z" />
    <glyph glyph-name="uni0213" unicode="&#x213;" horiz-adv-x="310" 
d="M300 528l-10 -52q-18 5 -36 5q-43 0 -70 -37.5t-44 -113.5v-330h-56v523h48l5 -105q19 59 49 87.5t74 28.5q18 0 40 -6zM267 713q30 -29 35 -81l-37 -8q-15 73 -74 73q-57 0 -73 -73l-36 8q5 52 34.5 81t74.5 29q46 0 76 -29z" />
    <glyph glyph-name="uni0214" unicode="&#x214;" horiz-adv-x="531" 
d="M454 178q0 -82 -48.5 -135.5t-139.5 -53.5q-92 0 -140 53t-48 136v507h57v-502q0 -68 32.5 -105.5t98.5 -37.5t98 38t32 105v502h58v-507zM165 935l65 -151l-33 -15l-78 141zM274 934l59 -146l-33 -15l-72 137z" />
    <glyph glyph-name="uni0215" unicode="&#x215;" horiz-adv-x="476" 
d="M392 0h-48l-4 87q-51 -98 -136 -98q-58 0 -91.5 39t-33.5 104v391h56v-386q0 -50 20.5 -76t57.5 -26q39 0 69 28.5t54 78.5v381h56v-523zM141 809l65 -151l-33 -15l-78 141zM250 808l59 -146l-33 -15l-72 137z" />
    <glyph glyph-name="uni0216" unicode="&#x216;" horiz-adv-x="531" 
d="M454 178q0 -82 -48.5 -135.5t-139.5 -53.5q-92 0 -140 53t-48 136v507h57v-502q0 -68 32.5 -105.5t98.5 -37.5t98 38t32 105v502h58v-507zM341 875q30 -29 35 -81l-37 -8q-15 73 -74 73q-57 0 -73 -73l-36 8q5 52 34.5 81t74.5 29q46 0 76 -29z" />
    <glyph glyph-name="uni0217" unicode="&#x217;" horiz-adv-x="476" 
d="M392 0h-48l-4 87q-51 -98 -136 -98q-58 0 -91.5 39t-33.5 104v391h56v-386q0 -50 20.5 -76t57.5 -26q39 0 69 28.5t54 78.5v381h56v-523zM311 713q30 -29 35 -81l-37 -8q-15 73 -74 73q-57 0 -73 -73l-36 8q5 52 34.5 81t74.5 29q46 0 76 -29z" />
    <glyph glyph-name="Scommaaccent" unicode="&#x218;" horiz-adv-x="444" 
d="M312 677q38 -19 73 -57l-33 -33q-31 31 -61.5 45t-68.5 14q-50 0 -81.5 -32.5t-31.5 -83.5t28.5 -82.5t101.5 -58.5q84 -32 123.5 -77t39.5 -125q0 -55 -24 -100t-67.5 -71.5t-99.5 -26.5t-100.5 22t-82.5 64l33 33q35 -34 69.5 -51.5t79.5 -17.5q60 0 96 40t36 106
q0 59 -28 93t-102 63q-86 33 -123.5 76.5t-37.5 110.5q0 45 22 83.5t61 61.5t88 23q52 0 90 -19zM245 -96.5q11 -11.5 11 -29.5q0 -12 -5 -27.5t-14 -38.5l-33 -86h-33l29 114q-24 13 -24 38q0 18 11 29.5t29 11.5t29 -11.5z" />
    <glyph glyph-name="scommaaccent" unicode="&#x219;" horiz-adv-x="385" 
d="M334 476l-26 -34q-29 24 -54.5 35t-57.5 11q-41 0 -66.5 -24t-25.5 -66q0 -36 22.5 -58t82.5 -44q73 -27 105 -61.5t32 -94.5q0 -69 -45.5 -110t-113.5 -41q-90 0 -157 67l31 32q29 -26 58.5 -39.5t66.5 -13.5q46 0 74.5 27t28.5 76q0 31 -10 50.5t-34 35t-69 32.5
q-69 25 -98.5 58t-29.5 83q0 59 42 98t105 39q78 0 139 -58zM222 -96.5q11 -11.5 11 -29.5q0 -12 -5 -27.5t-14 -38.5l-33 -86h-33l29 114q-24 13 -24 38q0 18 11 29.5t29 11.5t29 -11.5z" />
    <glyph glyph-name="uni021A" unicode="&#x21a;" horiz-adv-x="409" 
d="M402 685l-7 -50h-161v-635h-58v635h-164v50h390zM233 -96.5q11 -11.5 11 -29.5q0 -12 -5 -27.5t-14 -38.5l-33 -86h-33l29 114q-24 13 -24 38q0 18 11 29.5t29 11.5t29 -11.5z" />
    <glyph glyph-name="uni021B" unicode="&#x21b;" horiz-adv-x="286" 
d="M288 22q-42 -33 -93 -33t-80.5 32t-29.5 86v370h-70v46h70v125l56 7v-132h110l-7 -46h-103v-370q0 -33 15 -51.5t45 -18.5q32 0 64 21zM217 -96.5q11 -11.5 11 -29.5q0 -12 -5 -27.5t-14 -38.5l-33 -86h-33l29 114q-24 13 -24 38q0 18 11 29.5t29 11.5t29 -11.5z" />
    <glyph glyph-name="uni021C" unicode="&#x21c;" horiz-adv-x="412" 
d="M308 646.5q45 -49.5 45 -128.5q0 -129 -117 -158q62 -7 98.5 -47t36.5 -112q0 -106 -74 -177.5t-242 -112.5l-5 50q98 26 155 59.5t81 77.5t24 102q0 65 -35.5 99t-103.5 33h-50l8 50h41q57 0 90.5 34.5t33.5 99.5q0 60 -28.5 95t-82.5 35q-38 0 -70 -17t-66 -50l-32 33
q40 42 81 63t90 21q77 0 122 -49.5z" />
    <glyph glyph-name="uni021D" unicode="&#x21d;" horiz-adv-x="383" 
d="M269 496q41 -38 41 -104q0 -52 -23.5 -81t-68.5 -42q53 -2 83.5 -32t30.5 -85q0 -82 -70 -145t-206 -102l-8 43q118 41 171 89t53 114q0 48 -24.5 69.5t-73.5 21.5h-68l4 45h45q45 0 71 25.5t26 77.5q0 48 -24 72.5t-67 24.5q-35 0 -59.5 -10t-55.5 -32l-29 33
q33 28 68.5 42t78.5 14q64 0 105 -38z" />
    <glyph glyph-name="uni021E" unicode="&#x21e;" horiz-adv-x="550" 
d="M404 0v336h-259v-336h-57v685h57v-300h259v300h58v-685h-58zM375 885l23 -25l-107 -104h-35l-107 104l23 25l102 -80z" />
    <glyph glyph-name="uni021F" unicode="&#x21f;" horiz-adv-x="480" 
d="M368.5 493.5q31.5 -40.5 31.5 -110.5v-383h-56v376q0 112 -75 112q-71 0 -129 -113v-375h-56v736l56 7v-308q29 48 62 73.5t78 25.5q57 0 88.5 -40.5zM343 936l23 -25l-107 -104h-35l-107 104l23 25l102 -80z" />
    <glyph glyph-name="uni0220" unicode="&#x220;" horiz-adv-x="542" 
d="M423.5 648.5q38.5 -47.5 38.5 -132.5v-713h-58v703q0 140 -100 140q-49 0 -86 -27.5t-73 -76.5v-542h-57v685h50l5 -89q73 100 171 100q71 0 109.5 -47.5z" />
    <glyph glyph-name="uni0221" unicode="&#x221;" horiz-adv-x="572" 
d="M569.5 174q23.5 -25 23.5 -66q0 -56 -35 -87.5t-90 -31.5q-38 0 -67 16l-29 -70l-36 16l34 79q-19 20 -26 51q-45 -92 -128 -92q-78 0 -121.5 71t-43.5 199q0 83 21 145.5t59.5 96t89.5 33.5q73 0 118 -68v277l56 -7v-619q0 -11 2 -27q21 54 46.5 81.5t64.5 27.5
q38 0 61.5 -25zM289 60q28 24 50 70v278q-45 79 -110 79q-55 0 -87 -57.5t-32 -169.5q1 -112 30.5 -168t82.5 -56q38 0 66 24zM525.5 55.5q19.5 18.5 19.5 52.5q0 23 -11 36t-30 13q-25 0 -41.5 -23t-41.5 -84q17 -13 50 -13q35 0 54.5 18.5z" />
    <glyph glyph-name="uni0222" unicode="&#x222;" horiz-adv-x="529" 
d="M445 317q31 -48 31 -118q0 -58 -24.5 -105.5t-72 -76t-114.5 -28.5t-115 27.5t-72.5 75t-24.5 106.5q0 67 31 115.5t89 70.5q-42 19 -62 55t-20 84v162h58v-160q0 -119 116 -119q63 0 90 33.5t27 85.5v160h58v-162q0 -46 -21 -82t-63 -56q58 -20 89 -68zM415 199
q0 76 -37 117t-113 41q-75 0 -113 -42t-38 -117q0 -76 38 -117.5t113 -41.5q150 0 150 160z" />
    <glyph glyph-name="uni0223" unicode="&#x223;" horiz-adv-x="468" 
d="M390 337q27 -51 27 -130q0 -103 -47.5 -160.5t-135.5 -57.5q-87 0 -135 56.5t-48 160.5q0 77 27.5 129t80.5 73q-77 36 -77 133v195h56v-197q0 -50 23 -80.5t73 -30.5q51 0 75 31t24 80v197h55v-195q0 -46 -20 -80.5t-58 -52.5q53 -20 80 -71zM327.5 77q30.5 41 30.5 130
q0 90 -29.5 133t-94.5 43q-63 0 -93.5 -44t-30.5 -133q0 -88 31.5 -129t92.5 -41q63 0 93.5 41z" />
    <glyph glyph-name="uni0224" unicode="&#x224;" horiz-adv-x="423" 
d="M388 637l-300 -585h292v-141q0 -56 -30 -86t-77 -30q-50 0 -88 34l25 36q17 -11 30 -16.5t32 -5.5q51 0 51 67v90h-295v48l300 587h-271v50h331v-48z" />
    <glyph glyph-name="uni0225" unicode="&#x225;" horiz-adv-x="348" 
d="M323 479l-242 -430h237v-140q0 -54 -29.5 -84t-76.5 -30q-51 0 -89 34l25 35q15 -11 29 -16.5t32 -5.5q55 0 55 66v92h-243v43l242 431h-222v49h282v-44z" />
    <glyph glyph-name="uni0226" unicode="&#x226;" horiz-adv-x="478" 
d="M402 0l-48 188h-232l-48 -188h-57l186 685h72l186 -685h-59zM135 236h206l-103 401zM269 866q11 -12 11 -30q0 -16 -11 -28t-29 -12q-17 0 -28.5 12t-11.5 28q0 18 11 30t29 12t29 -12z" />
    <glyph glyph-name="uni0227" unicode="&#x227;" horiz-adv-x="443" 
d="M367.5 52.5q8.5 -15.5 26.5 -24.5l-12 -39q-32 8 -49 27t-22 55q-47 -82 -131 -82q-62 0 -99 43t-37 113q0 82 49.5 125.5t141.5 43.5h69v60q0 57 -22.5 85t-70.5 28q-55 0 -120 -28l-16 40q75 35 141 35q72 0 107.5 -40.5t35.5 -115.5v-278q0 -32 8.5 -47.5zM304 131
v142h-64q-70 0 -103.5 -31t-33.5 -95q0 -55 22.5 -84t63.5 -29q76 0 115 97zM243 740q11 -12 11 -30q0 -16 -11 -28t-29 -12q-17 0 -28.5 12t-11.5 28q0 18 11 30t29 12t29 -12z" />
    <glyph glyph-name="uni0228" unicode="&#x228;" horiz-adv-x="420" 
d="M249 0v-66q76 -10 76 -76q0 -40 -25.5 -62t-63.5 -22t-69 20l19 33q22 -13 47 -13q20 0 32.5 11t12.5 33q0 24 -17.5 35t-56.5 11l8 96h-124v685h291l-6 -49h-228v-257h197v-48h-197v-282h239v-49h-135z" />
    <glyph glyph-name="uni0229" unicode="&#x229;" horiz-adv-x="443" 
d="M395 239h-286q4 -108 37.5 -155t91.5 -47q34 0 60 11.5t54 36.5l28 -33q-28 -28 -58.5 -43.5t-67.5 -18.5v-56q76 -10 76 -76q0 -40 -25.5 -62t-63.5 -22t-69 20l19 33q22 -13 47 -13q20 0 32.5 11t12.5 33q0 24 -17.5 35t-56.5 11l7 86q-78 8 -121.5 76t-43.5 191
q0 133 47.5 205t130.5 72q82 0 125 -64.5t43 -188.5q0 -22 -2 -42zM342 299q0 94 -28 141t-85 47q-113 0 -120 -204h233v16z" />
    <glyph glyph-name="uni022A" unicode="&#x22a;" horiz-adv-x="570" 
d="M455 607.5q62 -88.5 62 -265.5q0 -174 -61.5 -263.5t-170.5 -89.5q-107 0 -169.5 89t-62.5 263t63 264.5t169 90.5q108 0 170 -88.5zM159 572q-45 -74 -45 -231q0 -155 45.5 -228.5t125.5 -73.5q83 0 127 72.5t44 230.5q0 304 -171 304q-81 0 -126 -74zM233.5 810
q10.5 -11 10.5 -27q0 -17 -10.5 -28t-27.5 -11q-16 0 -26.5 11t-10.5 28q0 16 10.5 27t26.5 11q17 0 27.5 -11zM391.5 810q10.5 -11 10.5 -27q0 -17 -10.5 -28t-27.5 -11q-16 0 -26.5 11t-10.5 28q0 16 10.5 27t26.5 11q17 0 27.5 -11zM387 879h-202v44h202v-44z" />
    <glyph glyph-name="uni022B" unicode="&#x22b;" horiz-adv-x="472" 
d="M373 465.5q48 -68.5 48 -202.5q0 -131 -49.5 -202.5t-136.5 -71.5t-135.5 71t-48.5 201q0 132 49 202.5t136 70.5q89 0 137 -68.5zM110 261q0 -225 125 -225q127 0 127 227q0 115 -32 169t-94 54q-126 0 -126 -225zM184.5 699q10.5 -11 10.5 -27q0 -17 -10.5 -28
t-27.5 -11q-16 0 -26.5 11t-10.5 28q0 16 10.5 27t26.5 11q17 0 27.5 -11zM342.5 699q10.5 -11 10.5 -27q0 -17 -10.5 -28t-27.5 -11q-16 0 -26.5 11t-10.5 28q0 16 10.5 27t26.5 11q17 0 27.5 -11zM338 773h-202v44h202v-44z" />
    <glyph glyph-name="uni022C" unicode="&#x22c;" horiz-adv-x="570" 
d="M455 607.5q62 -88.5 62 -265.5q0 -174 -61.5 -263.5t-170.5 -89.5q-107 0 -169.5 89t-62.5 263t63 264.5t169 90.5q108 0 170 -88.5zM159 572q-45 -74 -45 -231q0 -155 45.5 -228.5t125.5 -73.5q83 0 127 72.5t44 230.5q0 304 -171 304q-81 0 -126 -74zM306.5 766.5
q-12.5 6.5 -30.5 18.5q-25 19 -39 19q-13 0 -23 -9t-23 -31l-32 16q31 66 77 66q14 0 27 -6.5t28 -17.5t23.5 -15.5t18.5 -4.5q13 0 23.5 10t22.5 33l32 -15q-27 -70 -76 -70q-16 0 -28.5 6.5zM383 895h-202v44h202v-44z" />
    <glyph glyph-name="uni022D" unicode="&#x22d;" horiz-adv-x="472" 
d="M373 465.5q48 -68.5 48 -202.5q0 -131 -49.5 -202.5t-136.5 -71.5t-135.5 71t-48.5 201q0 132 49 202.5t136 70.5q89 0 137 -68.5zM110 261q0 -225 125 -225q127 0 127 227q0 115 -32 169t-94 54q-126 0 -126 -225zM257.5 609.5q-12.5 6.5 -30.5 18.5q-25 19 -39 19
q-13 0 -23 -9t-23 -31l-32 16q31 66 77 66q14 0 27 -6.5t28 -17.5t23.5 -15.5t18.5 -4.5q13 0 23.5 10t22.5 33l32 -15q-27 -70 -76 -70q-16 0 -28.5 6.5zM337 739h-202v44h202v-44z" />
    <glyph glyph-name="uni022E" unicode="&#x22e;" horiz-adv-x="570" 
d="M455 607.5q62 -88.5 62 -265.5q0 -174 -61.5 -263.5t-170.5 -89.5q-107 0 -169.5 89t-62.5 263t63 264.5t169 90.5q108 0 170 -88.5zM159 572q-45 -74 -45 -231q0 -155 45.5 -228.5t125.5 -73.5q83 0 127 72.5t44 230.5q0 304 -171 304q-81 0 -126 -74zM314 866
q11 -12 11 -30q0 -16 -11 -28t-29 -12q-17 0 -28.5 12t-11.5 28q0 18 11 30t29 12t29 -12z" />
    <glyph glyph-name="uni022F" unicode="&#x22f;" horiz-adv-x="472" 
d="M373 465.5q48 -68.5 48 -202.5q0 -131 -49.5 -202.5t-136.5 -71.5t-135.5 71t-48.5 201q0 132 49 202.5t136 70.5q89 0 137 -68.5zM110 261q0 -225 125 -225q127 0 127 227q0 115 -32 169t-94 54q-126 0 -126 -225zM264 740q11 -12 11 -30q0 -16 -11 -28t-29 -12
q-17 0 -28.5 12t-11.5 28q0 18 11 30t29 12t29 -12z" />
    <glyph glyph-name="uni0230" unicode="&#x230;" horiz-adv-x="570" 
d="M455 607.5q62 -88.5 62 -265.5q0 -174 -61.5 -263.5t-170.5 -89.5q-107 0 -169.5 89t-62.5 263t63 264.5t169 90.5q108 0 170 -88.5zM159 572q-45 -74 -45 -231q0 -155 45.5 -228.5t125.5 -73.5q83 0 127 72.5t44 230.5q0 304 -171 304q-81 0 -126 -74zM314 813
q11 -12 11 -30q0 -16 -11 -28t-29 -12q-17 0 -28.5 12t-11.5 28q0 18 11 30t29 12t29 -12zM386 879h-202v44h202v-44z" />
    <glyph glyph-name="uni0231" unicode="&#x231;" horiz-adv-x="472" 
d="M373 465.5q48 -68.5 48 -202.5q0 -131 -49.5 -202.5t-136.5 -71.5t-135.5 71t-48.5 201q0 132 49 202.5t136 70.5q89 0 137 -68.5zM110 261q0 -225 125 -225q127 0 127 227q0 115 -32 169t-94 54q-126 0 -126 -225zM265 690q11 -12 11 -30q0 -16 -11 -28t-29 -12
q-17 0 -28.5 12t-11.5 28q0 18 11 30t29 12t29 -12zM337 758h-202v44h202v-44z" />
    <glyph glyph-name="uni0232" unicode="&#x232;" horiz-adv-x="434" 
d="M425 685l-178 -417v-268h-58v267l-180 418h62l148 -365l147 365h59zM318 803h-202v44h202v-44z" />
    <glyph glyph-name="uni0233" unicode="&#x233;" horiz-adv-x="396" 
d="M234 -2q-24 -90 -64 -136.5t-117 -65.5l-7 44q43 12 68 31.5t40 48.5t30 80h-21l-147 523h57l127 -481l124 481h57zM301 677h-202v44h202v-44z" />
    <glyph glyph-name="uni0234" unicode="&#x234;" horiz-adv-x="312" 
d="M309.5 174q23.5 -25 23.5 -66q0 -56 -35 -87.5t-90 -31.5q-40 0 -68 17l-29 -71l-35 16l34 79q-31 36 -31 91v615l56 7v-626q0 -9 2 -25q21 54 46.5 80.5t64.5 26.5q38 0 61.5 -25zM265 55.5q20 18.5 20 52.5q0 23 -11 36t-30 13q-25 0 -41.5 -23t-41.5 -84
q16 -13 49 -13q35 0 55 18.5z" />
    <glyph glyph-name="uni0235" unicode="&#x235;" horiz-adv-x="577" 
d="M574.5 174q23.5 -25 23.5 -66q0 -56 -35 -87.5t-90 -31.5q-38 0 -67 16l-29 -70l-36 16l34 79q-31 36 -31 91v255q0 112 -75 112q-71 0 -129 -113v-375h-56v523h48l6 -90q29 49 62 75t80 26q57 0 88.5 -40.5t31.5 -110.5v-266q0 -11 2 -27q21 54 46.5 81.5t64.5 27.5
q38 0 61.5 -25zM530.5 55.5q19.5 18.5 19.5 52.5q0 23 -11 36t-30 13q-25 0 -41.5 -23t-41.5 -84q17 -13 50 -13q35 0 54.5 18.5z" />
    <glyph glyph-name="uni0236" unicode="&#x236;" horiz-adv-x="318" 
d="M315.5 174q23.5 -25 23.5 -66q0 -56 -35 -87.5t-90 -31.5q-38 0 -67 16l-29 -70l-36 16l34 79q-31 34 -31 91v356h-70v46h70v125l56 7v-132h110l-7 -46h-103v-365q0 -9 2 -23q21 55 46.5 82.5t64.5 27.5q38 0 61.5 -25zM271.5 55.5q19.5 18.5 19.5 52.5q0 23 -10.5 36
t-29.5 13q-26 0 -42.5 -22.5t-41.5 -84.5q16 -13 50 -13q35 0 54.5 18.5z" />
    <glyph glyph-name="uni0237" unicode="&#x237;" horiz-adv-x="224" 
d="M140 -8q0 -55 -13.5 -90t-38.5 -58t-69 -47l-19 40q32 19 49.5 37t26 45.5t8.5 72.5v531h56v-531z" />
    <glyph glyph-name="uni0238" unicode="&#x238;" horiz-adv-x="698" 
d="M608 468q39 -66 39 -204q0 -134 -41.5 -204.5t-113.5 -70.5q-37 0 -66.5 23t-47.5 57l-6 -69h-42l-6 71q-20 -36 -50 -59t-67 -23q-71 0 -113.5 69t-42.5 201q0 131 43.5 203t118.5 72q65 0 110 -70v272l56 7v-283q48 74 119 74t110 -66zM274 59q26 23 49 66v284
q-24 38 -48 58t-54 20q-50 0 -80.5 -55.5t-30.5 -171.5q1 -115 28.5 -169.5t75.5 -54.5q34 0 60 23zM560 90q28 54 28 174q0 121 -26 172t-75 51q-33 0 -58.5 -21t-49.5 -58v-281q21 -44 46 -67.5t59 -23.5q48 0 76 54z" />
    <glyph glyph-name="uni0239" unicode="&#x239;" horiz-adv-x="698" 
d="M610 467q37 -67 37 -203q0 -134 -41.5 -204.5t-115.5 -70.5q-33 0 -61.5 19.5t-49.5 54.5v-260l-56 -8v269q-20 -34 -49.5 -54.5t-67.5 -20.5q-72 0 -113.5 69t-41.5 201q0 130 44.5 202.5t118.5 72.5q68 0 113 -80l3 69h41l5 -71q51 82 125 82q72 0 109 -67zM274.5 58
q25.5 22 48.5 67v276q-45 86 -103 86q-50 0 -80 -55.5t-30 -171.5q1 -115 28.5 -169.5t75.5 -54.5q35 0 60.5 22zM588 264q0 118 -25 170.5t-72 52.5q-34 0 -60.5 -22t-51.5 -61v-281q41 -86 102 -86q107 0 107 227z" />
    <glyph glyph-name="uni023A" unicode="&#x23a;" horiz-adv-x="478" 
d="M402 0l-48 188h-119l-56 -258l-31 7l54 251h-81l-48 -188h-56l186 685h72l20 -72l28 131l31 -7l-41 -191l148 -546h-59zM134 236h79l59 273l-34 133zM245 236h97l-52 204z" />
    <glyph glyph-name="uni023B" unicode="&#x23b;" horiz-adv-x="455" 
d="M438 58q-65 -69 -153 -69q-41 0 -74 13l-16 -72l-30 7l17 79q-61 35 -95 117t-34 210q0 119 30.5 198t82.5 117t118 38q17 0 45 -4l11 52l30 -7l-12 -54q38 -15 74 -50l-31 -36q-27 24 -53 37l-126 -580q31 -14 64 -14q38 0 64 14t55 40zM194 73l124 570q-15 3 -32 3
q-78 0 -125 -71t-47 -232q0 -201 80 -270z" />
    <glyph glyph-name="uni023C" unicode="&#x23c;" horiz-adv-x="382" 
d="M238 -11q-31 0 -58 9l-15 -68l-28 6l16 73q-49 27 -75.5 89.5t-26.5 159.5q0 133 50 204.5t137 71.5q17 0 32 -3l14 61l29 -7l-14 -62q31 -12 61 -42l-27 -34q-22 20 -45 29l-97 -429q23 -9 47 -9q51 0 97 41l28 -34q-56 -56 -125 -56zM166 64l94 420q-14 2 -21 2
q-60 0 -94 -55t-34 -172q0 -146 55 -195z" />
    <glyph glyph-name="uni023D" unicode="&#x23d;" horiz-adv-x="404" 
d="M157 52h233l-7 -52h-283v339h-81v48h81v298h57v-298h83v-48h-83v-287z" />
    <glyph glyph-name="uni023E" unicode="&#x23e;" horiz-adv-x="409" 
d="M395 634h-85l-78 -275v-359h-55v165l-67 -235l-29 9l96 339v356h-165v51h280l18 62l30 -9l-15 -53h77zM232 472l46 162h-46v-162z" />
    <glyph glyph-name="uni023F" unicode="&#x23f;" horiz-adv-x="386" 
d="M303 -154.5q10 3.5 21 11.5l22 -34q-32 -28 -71 -28q-26 0 -44.5 12t-32 30.5t-34.5 54.5q-31 53 -59.5 91t-74.5 73l27 32q34 -27 63.5 -40t65.5 -13q46 0 74.5 27t28.5 76q0 31 -10 50.5t-34 35t-69 32.5q-69 25 -98.5 58t-29.5 83q0 59 42 98t105 39q78 0 139 -58
l-26 -34q-29 24 -54.5 35t-57.5 11q-41 0 -66.5 -24t-25.5 -66q0 -36 22.5 -58t82.5 -44q73 -27 105 -61.5t32 -94.5q0 -46 -20.5 -80t-55 -52.5t-74.5 -18.5q-22 0 -48 7q18 -18 30.5 -37t31.5 -50q20 -36 33.5 -51.5t34.5 -15.5q15 0 25 3.5z" />
    <glyph glyph-name="uni0240" unicode="&#x240;" horiz-adv-x="349" 
d="M233 -184.5q-23 20.5 -52 64.5q-24 35 -42 57t-47.5 39.5t-70.5 23.5v43l242 431h-222v49h282v-44l-248 -445q49 -12 78.5 -41t61.5 -79q24 -38 41 -55t41 -17t46 15l19 -35q-27 -27 -69 -27q-37 0 -60 20.5z" />
    <glyph glyph-name="uni0241" unicode="&#x241;" horiz-adv-x="377" 
d="M124 304l58 18q56 18 84 55.5t28 112.5q0 71 -31.5 113.5t-87.5 42.5q-38 0 -70 -17t-65 -50l-32 33q39 43 79.5 63.5t90.5 20.5q80 0 128 -57t48 -147q0 -96 -38 -141t-106 -66l-28 -10v-275h-58v304z" />
    <glyph glyph-name="uni0242" unicode="&#x242;" horiz-adv-x="351" 
d="M101 185l57 18q99 31 99 146q0 65 -28.5 100.5t-79.5 35.5q-36 0 -62 -14t-53 -41l-31 33q32 34 67 52.5t82 18.5q74 0 118.5 -50.5t44.5 -133.5q0 -81 -35.5 -123t-92.5 -61l-30 -10v-156h-56v185z" />
    <glyph glyph-name="uni0243" unicode="&#x243;" horiz-adv-x="497" 
d="M456 189q0 -92 -56.5 -140.5t-157.5 -48.5h-149v175h-73v46h73v464h122q104 0 159.5 -44.5t55.5 -126.5q0 -121 -120 -151q146 -23 146 -174zM150 637v-253h88q65 0 98.5 33.5t33.5 92.5q0 127 -149 127h-71zM396 189q0 76 -38 112t-114 36h-94v-116h138v-46h-138v-126
h93q153 0 153 140z" />
    <glyph glyph-name="uni0244" unicode="&#x244;" horiz-adv-x="554" 
d="M518 514h-53v-336q0 -82 -48.5 -135.5t-139.5 -53.5q-92 0 -140 53t-48 136v336h-53v43h53v128h57v-128h261v128h58v-128h53v-43zM407 514h-261v-331q0 -68 32.5 -105.5t98.5 -37.5t98 38t32 105v331z" />
    <glyph glyph-name="uni0245" unicode="&#x245;" horiz-adv-x="478" 
d="M275 685l186 -685h-59l-164 637l-163 -637h-58l186 685h72z" />
    <glyph glyph-name="uni0246" unicode="&#x246;" horiz-adv-x="420" 
d="M384 49v-49h-198l-15 -70l-30 6l14 64h-67v685h215l13 59l28 -6l-11 -53h46l-6 -49h-51l-55 -257h75v-48h-85l-61 -282h188zM145 636v-257h92l56 257h-148zM145 49h20l62 282h-82v-282z" />
    <glyph glyph-name="uni0247" unicode="&#x247;" horiz-adv-x="443" 
d="M229 239l-43 -190q22 -12 52 -12q34 0 60 11.5t55 37.5l27 -33q-32 -32 -66 -48t-77 -16q-35 0 -62 10l-16 -69l-28 6l17 76q-47 28 -72 90t-25 155q0 132 47.5 204.5t130.5 72.5q21 0 36 -4l14 62l28 -7l-14 -63q51 -23 77.5 -84t26.5 -157q0 -22 -2 -42h-166zM109 283
h100l46 201q-12 3 -26 3q-113 0 -120 -204zM282 474l-43 -191h103v16q0 138 -60 175zM199 239h-90q4 -124 52 -172z" />
    <glyph glyph-name="uni0248" unicode="&#x248;" horiz-adv-x="257" 
d="M239 319h-82v-228q0 -59 -14 -97t-42 -63.5t-77 -48.5l-16 41q38 22 57.5 43t26.5 50t7 78v225h-81v48h81v318h58v-318h82v-48z" />
    <glyph glyph-name="uni0249" unicode="&#x249;" horiz-adv-x="246" 
d="M236 224h-82v-232q0 -55 -13.5 -90t-38.5 -58t-69 -47l-19 40q32 19 49.5 37t26 45.5t8.5 72.5v232h-83v46h83v253h56v-253h82v-46zM153 740q11 -12 11 -30q0 -16 -11 -28t-29 -12q-17 0 -28.5 12t-11.5 28q0 18 11 30t29 12t29 -12z" />
    <glyph glyph-name="uni024A" unicode="&#x24a;" horiz-adv-x="546" 
d="M595 -171q-40 -34 -89 -34q-47 0 -77 30t-30 86v141q-50 -63 -131 -63q-96 0 -155.5 84.5t-59.5 255.5q0 122 28.5 204.5t78 122.5t111.5 40q79 0 131 -61l4 50h51v-775q0 -67 52 -67q31 0 60 22zM399 110v471q-46 65 -121 65t-119.5 -76t-44.5 -241q0 -153 43 -221.5
t116 -68.5q76 0 126 71z" />
    <glyph glyph-name="uni024B" unicode="&#x24b;" horiz-adv-x="479" 
d="M472 -191q-28 -14 -52 -14q-37 0 -59 23.5t-22 64.5v188q-21 -37 -51.5 -59.5t-71.5 -22.5q-77 0 -121 71t-44 199q0 84 21 146t59 95.5t90 33.5q74 0 123 -73l3 62h48v-638q0 -42 34 -42q13 0 29 6zM288.5 59.5q27.5 23.5 50.5 68.5v280q-44 79 -111 79
q-53 0 -85.5 -57.5t-32.5 -169.5q1 -112 31 -168t83 -56q37 0 64.5 23.5z" />
    <glyph glyph-name="uni024C" unicode="&#x24c;" horiz-adv-x="492" 
d="M403 0l-144 309l-32 -1h-77v-308h-57v308h-73v48h73v329h122q223 0 223 -186q0 -67 -32 -113t-92 -66l153 -320h-64zM338.5 390.5q37.5 34.5 37.5 108.5q0 70 -37 104t-127 34h-62v-281h70q81 0 118.5 34.5z" />
    <glyph glyph-name="uni024D" unicode="&#x24d;" horiz-adv-x="319" 
d="M309 528l-10 -52q-18 5 -36 5q-43 0 -70 -37.5t-44 -113.5v-27h82v-43h-82v-260h-56v260h-83v43h83v220h48l5 -105q19 59 49 87.5t74 28.5q18 0 40 -6z" />
    <glyph glyph-name="uni024E" unicode="&#x24e;" horiz-adv-x="435" 
d="M425 685l-39 -91h39v-43h-57l-121 -283v-268h-58v267l-122 284h-56v43h37l-39 91h62l37 -91h221l37 91h59zM219 320l93 231h-187z" />
    <glyph glyph-name="uni024F" unicode="&#x24f;" horiz-adv-x="386" 
d="M336 384h39v-42h-51l-96 -344q-24 -90 -64 -136.5t-117 -65.5l-7 44q43 12 68 31.5t40 48.5t30 80h-21l-96 342h-50v42h38l-39 139h57l37 -139h178l36 139h57zM194 42l77 300h-156z" />
    <glyph glyph-name="uni0250" unicode="&#x250;" horiz-adv-x="443" 
d="M352 64l16 -40q-75 -35 -141 -35q-72 0 -107.5 40.5t-35.5 115.5v278q0 32 -8.5 47.5t-26.5 24.5l12 39q32 -8 49 -27t22 -55q47 82 131 82q62 0 99 -43t37 -113q0 -82 -49.5 -125.5t-141.5 -43.5h-69v-60q0 -57 22.5 -85t70.5 -28q55 0 120 28zM139 392v-142h64
q70 0 103.5 31t33.5 95q0 55 -22.5 84t-63.5 29q-76 0 -115 -97z" />
    <glyph glyph-name="uni0251" unicode="&#x251;" horiz-adv-x="481" 
d="M403.5 63q8.5 -16 29.5 -27l-17 -44q-33 11 -50 29.5t-23 48.5q-20 -37 -52 -59t-75 -22q-77 0 -121 68.5t-44 201.5q0 130 46.5 202.5t125.5 72.5q77 0 119 -71l5 60h48v-412q0 -32 8.5 -48zM289.5 58.5q27.5 22.5 49.5 67.5v283q-42 78 -107 78q-57 0 -89.5 -55
t-32.5 -172q1 -224 114 -224q38 0 65.5 22.5z" />
    <glyph glyph-name="uni0252" unicode="&#x252;" horiz-adv-x="481" 
d="M386 465.5q44 -68.5 44 -201.5q0 -130 -46.5 -202.5t-125.5 -72.5q-77 0 -119 71l-5 -60h-48v412q0 32 -8.5 48t-29.5 27l17 44q33 -11 50 -29.5t23 -48.5q20 37 52 59t75 22q77 0 121 -68.5zM338.5 91q32.5 55 32.5 172q-1 224 -114 224q-38 0 -65.5 -22.5t-49.5 -67.5
v-283q42 -78 107 -78q57 0 89.5 55z" />
    <glyph glyph-name="uni0253" unicode="&#x253;" horiz-adv-x="476" 
d="M384 466.5q41 -67.5 41 -202.5q0 -131 -44 -203t-121 -72q-38 0 -69 21t-53 55l-5 -65h-49v614q0 60 33 94.5t92 34.5q53 0 101 -28l-19 -40q-44 21 -78 21q-73 0 -73 -82v-161q51 81 128 81q75 0 116 -67.5zM365 264q0 119 -27 171t-80 52q-37 0 -65.5 -23.5
t-52.5 -65.5v-281q48 -81 111 -81q114 0 114 228z" />
    <glyph glyph-name="uni0254" unicode="&#x254;" horiz-adv-x="381" 
d="M77.5 4q-31.5 15 -58.5 43l29 33q26 -22 48 -33t51 -11q60 0 92 54t32 173q0 118 -30 170.5t-89 52.5q-31 0 -54.5 -9.5t-47.5 -30.5l-28 33q55 55 132 55q85 0 130.5 -67t45.5 -204q0 -135 -48 -204.5t-133 -69.5q-40 0 -71.5 15z" />
    <glyph glyph-name="uni0255" unicode="&#x255;" horiz-adv-x="397" 
d="M351.5 187q24.5 -27 24.5 -71q0 -59 -37.5 -93t-98.5 -34q-39 0 -73 17l-25 -71l-37 15l28 77q-39 33 -60.5 92t-21.5 139q0 133 50 204.5t137 71.5q36 0 65 -12.5t57 -40.5l-27 -34q-22 20 -44.5 29.5t-49.5 9.5q-60 0 -94 -55t-34 -172q0 -126 44 -181q25 72 56 104
t74 32q42 0 66.5 -27zM305.5 56.5q23.5 18.5 23.5 59.5q0 27 -12 42t-36 15q-29 0 -49.5 -26t-45.5 -96q27 -13 59 -13q37 0 60.5 18.5z" />
    <glyph glyph-name="uni0256" unicode="&#x256;" horiz-adv-x="479" 
d="M535 -171q-38 -34 -89 -34q-47 0 -76.5 30t-29.5 84v91h-1v72q-45 -83 -123 -83t-121.5 71t-43.5 199q0 83 21 145.5t59.5 96t89.5 33.5q73 0 118 -68v277l56 -7v-735h1v-93q0 -66 54 -66q18 0 32 5.5t28 16.5zM289 60q28 24 50 70v278q-45 79 -110 79q-55 0 -87 -57.5
t-32 -169.5q1 -112 30.5 -168t82.5 -56q38 0 66 24z" />
    <glyph glyph-name="uni0257" unicode="&#x257;" horiz-adv-x="479" 
d="M533 709l-24 -35q-15 11 -28.5 16.5t-31.5 5.5q-54 0 -54 -72v-624h-49l-5 76q-45 -87 -125 -87q-78 0 -121.5 71t-43.5 199q0 83 21 145.5t59.5 96t89.5 33.5q73 0 118 -68v156q0 59 28.5 90t77.5 31q50 0 88 -34zM289 60q28 24 50 70v278q-45 79 -110 79
q-55 0 -87 -57.5t-32 -169.5q1 -112 30.5 -168t82.5 -56q38 0 66 24z" />
    <glyph glyph-name="uni0258" unicode="&#x258;" horiz-adv-x="443" 
d="M347.5 465q44.5 -69 44.5 -208q0 -131 -50 -199.5t-137 -68.5q-80 0 -143 63l29 33q26 -25 52 -36.5t62 -11.5q58 0 91.5 47t37.5 155h-286q-2 20 -2 42q0 122 45 187.5t127 65.5q85 0 129.5 -69zM101 283h233q-3 113 -32.5 158.5t-83.5 45.5q-57 0 -87 -48t-30 -140v-16
z" />
    <glyph glyph-name="uni0259" unicode="&#x259;" horiz-adv-x="447" 
d="M352 468q44 -66 44 -204q0 -142 -46 -208.5t-131 -66.5q-82 0 -127.5 64.5t-45.5 192.5q0 18 2 38h291q-2 108 -32.5 155t-86.5 47q-34 0 -61.5 -11.5t-57.5 -36.5l-26 36q63 60 144 60q89 0 133 -66zM307.5 81.5q29.5 45.5 31.5 158.5h-238v-6q0 -103 30 -150.5
t88 -47.5q59 0 88.5 45.5z" />
    <glyph glyph-name="uni025A" unicode="&#x25a;" horiz-adv-x="608" 
d="M634 358q-39 -35 -86 -35q-48 0 -75 29.5t-27 82.5v40l-74 -45q24 -63 24 -166q0 -142 -46 -208.5t-131 -66.5q-82 0 -127.5 64.5t-45.5 192.5q0 18 2 38h291q-2 108 -32.5 155t-86.5 47q-34 0 -61.5 -11.5t-57.5 -36.5l-26 36q63 60 144 60q89 0 134 -67l92 56h52v-84
q0 -69 55 -69q28 0 57 21zM307.5 81.5q29.5 45.5 31.5 158.5h-238v-6q0 -103 30 -150.5t88 -47.5q59 0 88.5 45.5z" />
    <glyph glyph-name="uni025B" unicode="&#x25b;" horiz-adv-x="380" 
d="M290 521.5q32 -12.5 60 -34.5l-25 -35q-26 17 -50 26t-55 9q-45 0 -69.5 -25t-24.5 -69q0 -43 26.5 -70t70.5 -27h49l-6 -46h-47q-56 0 -82.5 -26.5t-26.5 -82.5q0 -49 28 -77t78 -28q36 0 62.5 12.5t54.5 36.5l29 -33q-61 -63 -150 -63q-71 0 -116 41t-45 112
q0 61 30 93.5t83 41.5q-46 11 -71 41.5t-25 77.5q0 63 41.5 100.5t106.5 37.5q42 0 74 -12.5z" />
    <glyph glyph-name="uni025C" unicode="&#x25c;" horiz-adv-x="397" 
d="M283 496.5q41 -37.5 41 -100.5q0 -49 -23.5 -77t-71.5 -40q58 -9 87.5 -38.5t29.5 -89.5q0 -77 -46.5 -119.5t-121.5 -42.5q-93 0 -161 68l31 32q31 -27 60 -40t69 -13q50 0 80 27.5t30 87.5q0 55 -31 78t-94 23h-48l4 45h38q110 0 110 98q0 45 -24 68.5t-67 23.5
q-35 0 -60.5 -10.5t-56.5 -32.5l-27 34q33 28 68.5 42t79.5 14q63 0 104 -37.5z" />
    <glyph glyph-name="uni025D" unicode="&#x25d;" horiz-adv-x="562" 
d="M587 358q-39 -35 -86 -35q-48 0 -75 29.5t-27 82.5v40l-78 -48q3 -15 3 -31q0 -49 -23.5 -77t-71.5 -40q58 -9 87.5 -38.5t29.5 -89.5q0 -77 -46.5 -119.5t-121.5 -42.5q-93 0 -161 68l31 32q31 -27 60 -40t69 -13q50 0 80 27.5t30 87.5q0 55 -31 78t-94 23h-48l4 45h38
q110 0 110 98q0 45 -24 68.5t-67 23.5q-35 0 -60.5 -10.5t-56.5 -32.5l-27 34q33 28 68.5 42t79.5 14q42 0 75.5 -17.5t51.5 -49.5l92 56h52v-84q0 -69 55 -69q28 0 57 21z" />
    <glyph glyph-name="uni025E" unicode="&#x25e;" horiz-adv-x="461" 
d="M99.5 58q-48.5 69 -48.5 203q0 133 50 203t140 70q65 0 106 -38.5t41 -101.5q0 -48 -23 -76t-70 -39q56 -8 85.5 -38t29.5 -90q0 -77 -46 -119.5t-123 -42.5q-93 0 -141.5 69zM352 151q0 55 -30.5 78t-86.5 23h-30l3 45h21q48 0 75 25t27 72q0 43 -24 68t-67 25
q-64 0 -97.5 -54.5t-33.5 -171.5t32 -171t99 -54q112 0 112 115z" />
    <glyph glyph-name="uni025F" unicode="&#x25f;" horiz-adv-x="246" 
d="M236 224h-82v-232q0 -55 -13.5 -90t-38.5 -58t-69 -47l-19 40q32 19 49.5 37t26 45.5t8.5 72.5v232h-83v46h83v253h56v-253h82v-46z" />
    <glyph glyph-name="uni0260" unicode="&#x260;" horiz-adv-x="479" 
d="M533 709l-24 -35q-15 11 -28.5 16.5t-31.5 5.5q-54 0 -54 -72v-646q0 -85 -42 -134t-127 -49q-71 0 -127 38l22 37q22 -13 45.5 -20.5t56.5 -7.5q63 0 89.5 34t26.5 101v113q-43 -81 -122 -81q-78 0 -122 68t-44 192q0 122 45.5 193.5t127.5 71.5q37 0 66 -18t49 -46v152
q0 59 28.5 90t77.5 31q50 0 88 -34zM289 80q27 24 50 72v256q-45 79 -108 79q-56 0 -88.5 -55t-32.5 -162q1 -107 30.5 -160.5t82.5 -53.5q39 0 66 24z" />
    <glyph glyph-name="uni0261" unicode="&#x261;" horiz-adv-x="479" 
d="M395 523v-545q0 -85 -42 -134t-127 -49q-71 0 -127 38l22 37q22 -13 45.5 -20.5t56.5 -7.5q63 0 89.5 34t26.5 101v113q-43 -81 -122 -81q-78 0 -122 68t-44 192q0 122 45.5 193.5t127.5 71.5q39 0 69 -19.5t50 -49.5l4 58h48zM289 80q27 24 50 72v256q-45 79 -108 79
q-56 0 -88.5 -55t-32.5 -162q1 -107 30.5 -160.5t82.5 -53.5q39 0 66 24z" />
    <glyph glyph-name="uni0262" unicode="&#x262;" horiz-adv-x="459" 
d="M323 521q33 -14 63 -43l-31 -34q-26 22 -51 32.5t-55 10.5q-61 0 -100.5 -51.5t-39.5 -170.5q0 -125 35 -176.5t101 -51.5q48 0 93 26v176h-88l-6 47h148v-249q-66 -46 -147 -46q-94 0 -144 65t-50 209q0 91 26.5 151.5t71.5 89.5t100 29q41 0 74 -14z" />
    <glyph glyph-name="uni0263" unicode="&#x263;" horiz-adv-x="397" 
d="M229 53q26 -56 38 -95.5t12 -77.5q0 -40 -21 -62.5t-59 -22.5t-59 22.5t-21 62.5q0 34 12 73.5t38 98.5l-153 471h58l125 -430l126 430h56zM222.5 -59q-7.5 29 -23.5 72q-16 -44 -23.5 -72.5t-7.5 -57.5q0 -43 31 -43q16 0 23.5 10.5t7.5 32.5q0 29 -7.5 58z" />
    <glyph glyph-name="uni0264" unicode="&#x264;" horiz-adv-x="433" 
d="M430 508l-20 -34q-10 8 -18 11.5t-19 3.5q-12 0 -21.5 -10.5t-19.5 -36.5l-86 -223l1 -1q26 -51 37 -82.5t11 -63.5q0 -37 -20 -60t-57 -23t-57.5 22.5t-20.5 60.5q0 30 11 63.5t36 81.5l-1 1l-86 224q-10 27 -19 37t-23 10q-10 0 -17.5 -3.5t-17.5 -11.5l-20 34
q14 12 28 19t32 7q31 0 50.5 -19.5t34.5 -62.5l69 -199l69 199q15 43 33.5 62.5t50.5 19.5q30 0 60 -26zM241.5 115q-6.5 19 -24.5 64q-17 -42 -23.5 -62.5t-6.5 -42.5q0 -40 31 -40q30 0 30 40q0 22 -6.5 41z" />
    <glyph glyph-name="uni0265" unicode="&#x265;" horiz-adv-x="480" 
d="M396 523v-728l-56 8v286q-27 -48 -60.5 -73.5t-79.5 -25.5q-57 0 -89 40t-32 110v383h56v-375q0 -113 76 -113q71 0 129 113v375h56z" />
    <glyph glyph-name="uni0266" unicode="&#x266;" horiz-adv-x="480" 
d="M369 492q31 -42 31 -119v-373h-56v366q0 64 -18.5 93t-56.5 29q-71 0 -129 -113v-375h-56v614q0 60 33 94.5t92 34.5q53 0 101 -28l-19 -40q-44 21 -78 21q-73 0 -73 -82v-178q28 48 61.5 73t78.5 25q58 0 89 -42z" />
    <glyph glyph-name="uni0267" unicode="&#x267;" horiz-adv-x="480" 
d="M369 492q31 -42 31 -119v-464q0 -54 -29.5 -84t-76.5 -30q-51 0 -89 34l25 35q14 -11 28 -16.5t32 -5.5q54 0 54 66v458q0 64 -18.5 93t-56.5 29q-71 0 -129 -113v-375h-56v614q0 60 33 94.5t92 34.5q53 0 101 -28l-19 -40q-44 21 -78 21q-73 0 -73 -82v-178
q28 48 61.5 73t78.5 25q58 0 89 -42z" />
    <glyph glyph-name="uni0268" unicode="&#x268;" horiz-adv-x="241" 
d="M92.5 682q-11.5 12 -11.5 28q0 18 11 30t29 12t29 -12t11 -30q0 -16 -11 -28t-29 -12q-17 0 -28.5 12zM231 305v-46h-81v-259h-56v259h-84v46h84v218h56v-218h81z" />
    <glyph glyph-name="uni0269" unicode="&#x269;" horiz-adv-x="235" 
d="M101 12.5q-22 23.5 -22 64.5v446h56v-444q0 -42 34 -42q14 0 28 6l14 -40q-23 -14 -52 -14q-36 0 -58 23.5z" />
    <glyph glyph-name="uni026A" unicode="&#x26a;" horiz-adv-x="266" 
d="M243 477h-83v-431h83v-46h-220v46h81v431h-81v46h220v-46z" />
    <glyph glyph-name="uni026B" unicode="&#x26b;" horiz-adv-x="276" 
d="M164 322v-243q0 -42 34 -42q14 0 28 6l14 -40q-23 -14 -52 -14q-36 0 -58 23.5t-22 64.5v279q-22 11 -34 11q-18 0 -30 -11.5t-26 -34.5l-34 19q38 73 93 73q16 0 31 -6v329l56 7v-369q27 -16 43 -16q17 0 29 11t25 32l34 -19q-17 -33 -38.5 -51.5t-51.5 -18.5
q-19 0 -41 10z" />
    <glyph glyph-name="uni026C" unicode="&#x26c;" horiz-adv-x="275" 
d="M247 3q-23 -14 -52 -14q-36 0 -58 23.5t-22 64.5v190q-54 1 -81.5 25.5t-27.5 71.5q0 41 24 65t60 24q7 0 25 -3v286l56 7v-435q30 1 64 9l8 -37q-37 -9 -72 -12v-189q0 -42 34 -42q14 0 28 6zM115 308v105q-12 2 -22 2q-20 0 -31.5 -12.5t-11.5 -37.5q0 -57 65 -57z" />
    <glyph glyph-name="uni026D" unicode="&#x26d;" horiz-adv-x="224" 
d="M279 -171q-38 -34 -89 -34q-47 0 -76.5 30t-29.5 84v827l56 7v-835q0 -66 54 -66q18 0 32 5.5t28 16.5z" />
    <glyph glyph-name="uni026E" unicode="&#x26e;" horiz-adv-x="522" 
d="M496 4q0 -93 -50 -151t-134 -58q-49 0 -87 19t-69 56l33 30q29 -30 57 -43.5t64 -13.5q61 0 94 43t33 119q0 80 -34 115t-109 35h-55v44l177 276h-281v-396q0 -42 34 -42q14 0 28 6l14 -40q-23 -14 -52 -14q-36 0 -58 23.5t-22 64.5v659l56 7v-220h341v-44l-181 -280h5
q196 0 196 -195z" />
    <glyph glyph-name="uni026F" unicode="&#x26f;" horiz-adv-x="700" 
d="M616 523v-523h-48l-5 86q-54 -97 -130 -97q-41 0 -69 27t-38 75q-55 -102 -133 -102q-53 0 -83 41.5t-30 109.5v383h55v-376q0 -56 17.5 -84t50.5 -28q65 0 117 108v380h55v-376q0 -56 18 -84t51 -28q65 0 117 108v380h55z" />
    <glyph glyph-name="uni0270" unicode="&#x270;" horiz-adv-x="700" 
d="M616 523v-728l-56 8v277q-53 -91 -127 -91q-41 0 -69 27t-38 75q-55 -102 -133 -102q-53 0 -83 41.5t-30 109.5v383h55v-376q0 -56 17.5 -84t50.5 -28q65 0 117 108v380h55v-376q0 -56 18 -84t51 -28q65 0 117 108v380h55z" />
    <glyph glyph-name="uni0271" unicode="&#x271;" horiz-adv-x="700" 
d="M590 492.5q30 -41.5 30 -109.5v-471q0 -56 -29.5 -86.5t-76.5 -30.5q-50 0 -88 34l25 35q15 -11 28.5 -16.5t31.5 -5.5q54 0 54 66v468q0 56 -17.5 84t-50.5 28q-65 0 -117 -108v-380h-55v376q0 56 -18 84t-51 28q-65 0 -117 -108v-380h-55v523h48l5 -86q54 97 130 97
q41 0 69 -27t38 -75q55 102 133 102q53 0 83 -41.5z" />
    <glyph glyph-name="uni0272" unicode="&#x272;" horiz-adv-x="480" 
d="M368.5 493.5q31.5 -40.5 31.5 -110.5v-383h-56v376q0 112 -75 112q-71 0 -129 -113v-466q0 -54 -29.5 -84t-76.5 -30q-51 0 -89 34l25 35q14 -11 28 -16.5t32 -5.5q54 0 54 66v615h48l6 -90q29 49 62 75t80 26q57 0 88.5 -40.5z" />
    <glyph glyph-name="uni0273" unicode="&#x273;" horiz-adv-x="478" 
d="M540 -171q-38 -34 -89 -34q-47 0 -76.5 30t-29.5 84v91h-1v376q0 112 -75 112q-71 0 -129 -113v-375h-56v523h48l6 -90q29 49 62 75t80 26q57 0 88.5 -40.5t31.5 -110.5v-382h1v-93q0 -66 54 -66q18 0 32 5.5t28 16.5z" />
    <glyph glyph-name="uni0274" unicode="&#x274;" horiz-adv-x="485" 
d="M401 0h-72l-200 466q7 -84 7 -205v-261h-52v523h72l200 -467q-6 78 -6 173v294h51v-523z" />
    <glyph glyph-name="uni0275" unicode="&#x275;" horiz-adv-x="472" 
d="M373 465.5q48 -68.5 48 -202.5q0 -131 -49.5 -202.5t-136.5 -71.5t-135.5 71t-48.5 201q0 132 49 202.5t136 70.5q89 0 137 -68.5zM109 288h254q-4 103 -36 151t-91 48q-119 0 -127 -199zM327.5 86q32.5 50 35.5 157h-254q6 -207 126 -207q60 0 92.5 50z" />
    <glyph glyph-name="uni0276" unicode="&#x276;" horiz-adv-x="601" 
d="M571 0h-278q-28 -11 -58 -11q-87 0 -135.5 70t-48.5 202q0 135 49 204t136 69q33 0 61 -11h270l-6 -46h-208q29 -25 46.5 -71t20.5 -112h115v-45h-114q-2 -78 -20.5 -126t-50.5 -77h221v-46zM142 90q32 -54 93 -54q60 0 94 56t34 173q0 113 -34 167t-93 54
q-61 0 -93.5 -53.5t-32.5 -171.5q0 -117 32 -171z" />
    <glyph glyph-name="uni0277" unicode="&#x277;" horiz-adv-x="619" 
d="M503.5 457q64.5 -77 64.5 -220q0 -248 -147 -248q-47 0 -75.5 26.5t-35.5 75.5q-10 -49 -38.5 -75.5t-75.5 -26.5q-145 0 -145 249q0 142 65 219t194 77t193.5 -77zM486 79.5q25 43.5 25 156.5q0 126 -48 188.5t-153 62.5t-153.5 -62.5t-48.5 -188.5q0 -108 23.5 -154
t69.5 -46q81 0 81 133v135l54 8v-143q0 -133 79 -133q46 0 71 43.5z" />
    <glyph glyph-name="uni0278" unicode="&#x278;" horiz-adv-x="518" 
d="M427.5 73.5q-49.5 -63.5 -141.5 -68.5v-202l-56 -8v211q-91 6 -140 69.5t-49 186.5q0 122 49.5 186t139.5 69v219l56 7v-226q93 -6 142 -69t49 -185q0 -126 -49.5 -189.5zM132.5 105q33.5 -50 100.5 -54v421q-68 -5 -101 -54.5t-33 -155.5q0 -107 33.5 -157zM385.5 105
q33.5 49 33.5 158q0 106 -34 155t-101 54v-421q68 5 101.5 54z" />
    <glyph glyph-name="uni0279" unicode="&#x279;" horiz-adv-x="310" 
d="M226 523v-523h-48l-5 105q-19 -59 -49 -87.5t-74 -28.5q-18 0 -40 6l10 52q18 -5 36 -5q43 0 70 37.5t44 113.5v330h56z" />
    <glyph glyph-name="uni027A" unicode="&#x27a;" horiz-adv-x="310" 
d="M226 523v-523h-48l-5 105q-19 -59 -49 -87.5t-74 -28.5q-18 0 -40 6l10 52q18 -5 36 -5q43 0 70 37.5t44 113.5v329h-1v221l56 -7v-213h1z" />
    <glyph glyph-name="uni027B" unicode="&#x27b;" horiz-adv-x="310" 
d="M366 -171q-38 -34 -89 -34q-47 0 -76.5 30t-29.5 84v91h-1v94q-19 -53 -48 -78.5t-71 -25.5q-24 0 -41 6l10 51q20 -5 36 -5q43 0 70 37.5t44 113.5v330h56v-522h1v-93q0 -66 54 -66q18 0 32 5.5t28 16.5z" />
    <glyph glyph-name="uni027C" unicode="&#x27c;" horiz-adv-x="310" 
d="M300 528l-10 -52q-18 5 -36 5q-43 0 -70 -37.5t-44 -113.5v-527l-56 -8v728h48l5 -105q19 59 49 87.5t74 28.5q18 0 40 -6z" />
    <glyph glyph-name="uni027D" unicode="&#x27d;" horiz-adv-x="310" 
d="M194 -158q18 0 32 5.5t28 16.5l25 -35q-38 -34 -89 -34q-47 0 -76.5 30t-29.5 84v614h48l5 -105q19 59 49 87.5t74 28.5q18 0 40 -6l-10 -52q-18 5 -36 5q-43 0 -70 -37.5t-44 -113.5v-422q0 -66 54 -66z" />
    <glyph glyph-name="uni027E" unicode="&#x27e;" horiz-adv-x="287" 
d="M275 500l-25 -35q-14 11 -28 16.5t-32 5.5q-54 0 -54 -66v-93h-1v-328h-56v329h1v91q0 54 29.5 84t76.5 30q51 0 89 -34z" />
    <glyph glyph-name="uni027F" unicode="&#x27f;" horiz-adv-x="287" 
d="M208 329v-329h-56v328h-1v93q0 66 -54 66q-18 0 -32 -5.5t-28 -16.5l-25 35q38 34 89 34q47 0 76.5 -30t29.5 -84v-91h1z" />
    <glyph glyph-name="uni0280" unicode="&#x280;" horiz-adv-x="435" 
d="M334 0l-114 218q-7 -1 -23 -1h-58v-217h-55v523h107q90 0 134.5 -39.5t44.5 -113.5q0 -53 -25 -90t-74 -53l122 -227h-59zM203 262q110 0 110 108q0 54 -29 80.5t-93 26.5h-52v-215h64z" />
    <glyph glyph-name="uni0281" unicode="&#x281;" horiz-adv-x="435" 
d="M345 245.5q25 -36.5 25 -90.5q0 -75 -44.5 -115t-134.5 -40h-107v523h55v-217h63q12 0 18 -1l114 218h59l-121 -226q48 -15 73 -51.5zM284 72.5q29 26.5 29 82.5q0 55 -27.5 80.5t-82.5 25.5h-64v-215h52q64 0 93 26.5z" />
    <glyph glyph-name="uni0282" unicode="&#x282;" horiz-adv-x="385" 
d="M84 21v-106q0 -73 58 -73q19 0 32.5 5.5t27.5 17.5l24 -36q-40 -34 -87 -34q-50 0 -79.5 32t-29.5 90v139l29 28q32 -25 61 -37t66 -12q46 0 74.5 27t28.5 76q0 31 -10 50.5t-34 35t-69 32.5q-69 25 -98.5 58t-29.5 83q0 59 42 98t105 39q78 0 139 -58l-26 -34
q-29 24 -54.5 35t-57.5 11q-41 0 -66.5 -24t-25.5 -66q0 -36 22.5 -58t82.5 -44q73 -27 105 -61.5t32 -94.5q0 -69 -45.5 -110t-113.5 -41q-59 0 -103 32z" />
    <glyph glyph-name="uni0283" unicode="&#x283;" horiz-adv-x="224" 
d="M278 709l-24 -35q-15 11 -28.5 16.5t-31.5 5.5q-54 0 -54 -72v-715q0 -54 -29.5 -84t-76.5 -30q-51 0 -89 34l25 35q14 -11 28 -16.5t32 -5.5q54 0 54 66v714q0 59 28.5 90t77.5 31q50 0 88 -34z" />
    <glyph glyph-name="uni0284" unicode="&#x284;" horiz-adv-x="251" 
d="M237 44v-44h-83v-8q0 -55 -13.5 -90t-38.5 -58t-69 -47l-19 40q32 19 49.5 37t26 45.5t8.5 72.5v8h-82v44h82v578q0 59 28.5 90t77.5 31q50 0 88 -34l-24 -35q-15 11 -28.5 16.5t-31.5 5.5q-54 0 -54 -72v-580h83z" />
    <glyph glyph-name="uni0285" unicode="&#x285;" horiz-adv-x="334" 
d="M333 23q-38 -34 -89 -34q-47 0 -76.5 30t-29.5 84v312q0 72 -54 72q-18 0 -31.5 -5.5t-28.5 -16.5l-24 35q38 34 88 34q49 0 77.5 -31t28.5 -90v-311q0 -66 54 -66q18 0 32 5.5t28 16.5z" />
    <glyph glyph-name="uni0286" unicode="&#x286;" horiz-adv-x="241" 
d="M156 -18q46 -15 87 -38l-14 -33q-29 15 -73 31q-2 -69 -34.5 -108t-90.5 -39q-46 0 -72.5 26.5t-26.5 70.5q0 50 31 78t84 28q24 0 54 -6v630q0 59 28.5 90t77.5 31q50 0 88 -34l-24 -35q-15 11 -28.5 16.5t-31.5 5.5q-54 0 -54 -72v-102zM84 -136q17 28 17 86v3
q-25 6 -54 6q-35 0 -53 -17t-18 -48q0 -27 14 -42.5t40 -15.5q37 0 54 28z" />
    <glyph glyph-name="uni0287" unicode="&#x287;" horiz-adv-x="286" 
d="M271 0h-70v-125l-56 -7v132h-110l7 46h103v370q0 33 -15 51.5t-45 18.5q-32 0 -64 -21l-23 36q42 33 93 33t80.5 -32t29.5 -86v-370h70v-46z" />
    <glyph glyph-name="uni0288" unicode="&#x288;" horiz-adv-x="312" 
d="M281 -171q-38 -34 -89 -34q-47 0 -76.5 30t-29.5 84v91h-1v477h-70v46h70v125l56 7v-132h110l-7 -46h-103v-476h1v-93q0 -66 54 -66q18 0 32 5.5t28 16.5z" />
    <glyph glyph-name="uni0289" unicode="&#x289;" horiz-adv-x="496" 
d="M471 340h-70v-340h-48l-4 87q-51 -98 -136 -98q-58 0 -91.5 39t-33.5 104v208h-70v44h70v139h56v-139h201v139h56v-139h70v-44zM345 340h-201v-203q0 -50 20.5 -76t57.5 -26q39 0 69 28.5t54 78.5v198z" />
    <glyph glyph-name="uni028A" unicode="&#x28a;" horiz-adv-x="471" 
d="M100 51.5q-49 62.5 -49 179.5q0 87 22 143.5t63 103.5h-76v45h123v-44q-36 -52 -55 -105.5t-19 -141.5q0 -196 126 -196q62 0 94 47t32 149q0 89 -19 143.5t-54 103.5v44h122v-45h-74q40 -45 62 -102.5t22 -144.5q0 -117 -49 -179.5t-136 -62.5q-86 0 -135 62.5z" />
    <glyph glyph-name="uni028B" unicode="&#x28b;" horiz-adv-x="471" 
d="M119 28.5q-40 39.5 -40 110.5v384h56v-380q0 -54 23 -80.5t66 -26.5q53 0 86.5 47t33.5 151v209q0 43 -33 43q-15 0 -29 -6l-14 40q24 14 53 14q39 0 59 -23t20 -68v-208q0 -122 -49.5 -184t-128.5 -62q-63 0 -103 39.5z" />
    <glyph glyph-name="uni028C" unicode="&#x28c;" horiz-adv-x="398" 
d="M16 0l146 523h68l152 -523h-58l-128 474l-124 -474h-56z" />
    <glyph glyph-name="uni028D" unicode="&#x28d;" horiz-adv-x="590" 
d="M26 0l103 523h75l91 -470l90 470h74l105 -523h-55l-88 477l-94 -477h-68l-92 477l-88 -477h-53z" />
    <glyph glyph-name="uni028E" unicode="&#x28e;" horiz-adv-x="396" 
d="M162 526q25 90 65 136.5t117 64.5l6 -43q-42 -13 -67 -32.5t-40 -49t-30 -79.5h21l147 -523h-57l-128 482l-123 -482h-57z" />
    <glyph glyph-name="uni028F" unicode="&#x28f;" horiz-adv-x="355" 
d="M352 523l-145 -317v-206h-56v205l-148 318h57l119 -277l118 277h55z" />
    <glyph glyph-name="uni0290" unicode="&#x290;" horiz-adv-x="348" 
d="M458 -171q-38 -34 -89 -34q-47 0 -76 29.5t-29 84.5v91h-243v43l242 431h-222v49h282v-44l-242 -430h237v-141q0 -66 55 -66q18 0 31.5 5.5t28.5 16.5z" />
    <glyph glyph-name="uni0291" unicode="&#x291;" horiz-adv-x="369" 
d="M347.5 28q-37.5 -26 -117.5 -28q-3 -36 -3 -71l1 -40h-41v30q0 27 2 81h-168v43l242 431h-222v49h282v-44l-242 -430h114q8 77 36 115.5t72 38.5q36 0 59 -24.5t23 -66.5q0 -58 -37.5 -84zM258.5 136.5q-16.5 -25.5 -22.5 -87.5q57 1 80 14.5t23 48.5q0 24 -10 37t-28 13
q-26 0 -42.5 -25.5z" />
    <glyph glyph-name="uni0292" unicode="&#x292;" horiz-adv-x="381" 
d="M355 4q0 -94 -49.5 -151.5t-134.5 -57.5q-53 0 -92.5 21.5t-72.5 64.5l34 29q30 -36 60 -51.5t69 -15.5q62 0 94.5 43t32.5 119q0 80 -34 115t-109 35h-54v44l176 276h-249v48h309v-44l-181 -280h5q196 0 196 -195z" />
    <glyph glyph-name="uni0293" unicode="&#x293;" horiz-adv-x="381" 
d="M324 -115q-31 -51 -90 -73l21 -56l-38 -16l-22 60q-30 -5 -57 -5q-75 0 -114 31.5t-39 89.5q0 46 25.5 74.5t66.5 28.5q31 0 53 -14t42.5 -49t43.5 -99q80 33 80 150q0 78 -34.5 113t-109.5 35h-53v44l176 276h-249v48h309v-44l-181 -280h6q195 0 195 -192
q0 -71 -31 -122zM59 -140q27 -17 80 -17q21 0 39 3q-29 77 -49.5 104.5t-48.5 27.5q-23 0 -35.5 -16t-12.5 -45q0 -40 27 -57z" />
    <glyph glyph-name="uni0294" unicode="&#x294;" horiz-adv-x="359" 
d="M109 340l50 16q54 18 85 55.5t31 115.5q0 83 -31 125.5t-89 42.5q-39 0 -68 -15.5t-60 -48.5l-31 31q36 41 74 61t87 20q82 0 129.5 -57t47.5 -158q0 -97 -40 -142.5t-106 -68.5l-23 -7v-310h-56v340z" />
    <glyph glyph-name="uni0295" unicode="&#x295;" horiz-adv-x="359" 
d="M194 0v310l-23 7q-66 23 -105.5 68.5t-39.5 142.5q0 101 48 158t130 57q49 0 86 -20t74 -61l-32 -31q-31 33 -59.5 48.5t-66.5 15.5q-59 0 -90.5 -42.5t-31.5 -125.5q0 -78 31 -115.5t85 -55.5l50 -16v-340h-56z" />
    <glyph glyph-name="uni0296" unicode="&#x296;" horiz-adv-x="408" 
d="M184 743v-317l27 -8q66 -22 106 -67.5t40 -142.5q0 -101 -48 -158t-131 -57q-49 0 -86 20t-73 61l32 31q30 -32 59 -48t67 -16q58 0 89.5 42.5t31.5 125.5q0 78 -31 116t-85 55l-54 16v340z" />
    <glyph glyph-name="uni0297" unicode="&#x297;" horiz-adv-x="399" 
d="M320 521.5q29 -12.5 57 -40.5l-27 -35q-23 20 -44.5 30t-49.5 10q-60 0 -94.5 -80t-34.5 -246q0 -164 34.5 -241.5t95.5 -77.5q26 0 48.5 10t46.5 30l27 -33q-54 -56 -124 -56q-89 0 -138.5 92.5t-49.5 274.5t50 278.5t138 96.5q36 0 65 -12.5z" />
    <glyph glyph-name="uni0298" unicode="&#x298;" horiz-adv-x="653" 
d="M470.5 656.5q61.5 -39.5 95.5 -119t34 -195.5q0 -113 -34 -192.5t-95.5 -120t-143.5 -40.5t-143.5 40t-96 119t-34.5 193q0 113 34.5 193t96.5 121t143 41q82 0 143.5 -39.5zM166.5 572q-58.5 -76 -58.5 -231q0 -153 59 -229t160 -76q103 0 160.5 75.5t57.5 230.5
t-58 230.5t-160 75.5t-160.5 -76zM355 371q11 -12 11 -30q0 -16 -11 -28t-29 -12q-17 0 -28.5 12t-11.5 28q0 18 11 30t29 12t29 -12z" />
    <glyph glyph-name="uni0299" unicode="&#x299;" horiz-adv-x="453" 
d="M373.5 245.5q28.5 -32.5 28.5 -91.5q0 -77 -48 -115.5t-128 -38.5h-142v519q33 6 69.5 10.5t66.5 4.5q74 0 116.5 -37t42.5 -99q0 -46 -21 -74t-66 -41q53 -5 81.5 -37.5zM140 481v-180h94q42 0 65.5 24t23.5 71q0 45 -25.5 68.5t-76.5 23.5q-37 0 -81 -7zM345 154
q0 55 -27 79t-78 24h-100v-212h85q120 0 120 109z" />
    <glyph glyph-name="uni029A" unicode="&#x29a;" horiz-adv-x="461" 
d="M97 31.5q-46 42.5 -46 119.5q0 60 29.5 90t85.5 38q-47 11 -70 39t-23 76q0 63 41 101.5t106 38.5q90 0 140 -70t50 -203q0 -134 -48.5 -203t-141.5 -69q-77 0 -123 42.5zM320 90q32 54 32 171t-33.5 171.5t-97.5 54.5q-43 0 -67 -25t-24 -68q0 -47 27 -72t75 -25h21
l3 -45h-30q-56 0 -86.5 -23t-30.5 -78q0 -115 112 -115q67 0 99 54z" />
    <glyph glyph-name="uni029B" unicode="&#x29b;" horiz-adv-x="456" 
d="M523 709l-24 -35q-14 11 -28 16.5t-31 5.5q-54 0 -54 -72v-146l-29 -31q-28 21 -53.5 30.5t-54.5 9.5q-61 0 -100.5 -51.5t-39.5 -170.5q0 -125 35 -176.5t101 -51.5q48 0 93 26v176h-88l-6 47h148v-249q-66 -46 -147 -46q-94 0 -144 65t-50 209q0 91 26.5 151.5t71 89.5
t98.5 29q50 0 85 -23v110q0 58 28 89.5t75 31.5q50 0 88 -34z" />
    <glyph glyph-name="uni029C" unicode="&#x29c;" horiz-adv-x="484" 
d="M344 0v247h-204v-247h-56v523h56v-228h204v228h56v-523h-56z" />
    <glyph glyph-name="uni029D" unicode="&#x29d;" horiz-adv-x="241" 
d="M229 -89q-29 15 -73 31q-2 -69 -34.5 -108t-90.5 -39q-46 0 -72.5 26.5t-26.5 70.5q0 50 31 78t84 28q24 0 54 -6v531h56l-1 -541q46 -15 87 -38zM84 -136q17 28 17 86v3q-25 6 -54 6q-35 0 -53 -17t-18 -48q0 -27 14 -42.5t40 -15.5q37 0 54 28zM157 740q11 -12 11 -30
q0 -16 -11 -28t-29 -12q-17 0 -28.5 12t-11.5 28q0 18 11 30t29 12t29 -12z" />
    <glyph glyph-name="uni029E" unicode="&#x29e;" horiz-adv-x="406" 
d="M22 0l179 235l-197 288h63l194 -286l-179 -237h-60zM266 -197v720h56v-728z" />
    <glyph glyph-name="uni029F" unicode="&#x29f;" horiz-adv-x="345" 
d="M140 523v-474h195l-7 -49h-244v523h56z" />
    <glyph glyph-name="uni02A0" unicode="&#x2a0;" horiz-adv-x="479" 
d="M533 709l-24 -35q-15 11 -28.5 16.5t-31.5 5.5q-54 0 -54 -72v-829l-56 8v268q-21 -37 -51.5 -59.5t-71.5 -22.5q-77 0 -121 71t-44 199q0 84 21 146t59 95.5t90 33.5q72 0 118 -66v154q0 59 28.5 90t77.5 31q50 0 88 -34zM288.5 59.5q27.5 23.5 50.5 68.5v280
q-44 79 -111 79q-53 0 -85.5 -57.5t-32.5 -169.5q1 -112 31 -168t83 -56q37 0 64.5 23.5z" />
    <glyph glyph-name="uni02A1" unicode="&#x2a1;" horiz-adv-x="359" 
d="M165 310v-101h92v-45h-92v-164h-56v164h-56v45h56v131l50 16q54 18 85 55.5t31 115.5q0 83 -31 125.5t-89 42.5q-39 0 -68 -15.5t-60 -48.5l-31 31q36 41 74 61t87 20q82 0 129.5 -57t47.5 -158q0 -97 -40 -142.5t-106 -68.5z" />
    <glyph glyph-name="uni02A2" unicode="&#x2a2;" horiz-adv-x="359" 
d="M290 723q37 -20 74 -61l-32 -31q-31 33 -59.5 48.5t-66.5 15.5q-59 0 -90.5 -42.5t-31.5 -125.5q0 -78 31 -115.5t85 -55.5l50 -16v-131h56v-45h-56v-164h-56v164h-92v45h92v101l-23 7q-66 23 -105.5 68.5t-39.5 142.5q0 101 48 158t130 57q49 0 86 -20z" />
    <glyph glyph-name="uni02A3" unicode="&#x2a3;" horiz-adv-x="729" 
d="M702 479l-247 -430h246l-6 -49h-349l-5 76q-45 -87 -125 -87q-78 0 -121.5 71t-43.5 199q0 83 21 145.5t59.5 96t89.5 33.5q73 0 118 -68v277l56 -7v-213h307v-44zM289 60q28 24 50 70v278q-45 79 -110 79q-55 0 -87 -57.5t-32 -169.5q1 -112 30.5 -168t82.5 -56
q38 0 66 24zM395 43l247 431h-247v-431z" />
    <glyph glyph-name="uni02A4" unicode="&#x2a4;" horiz-adv-x="749" 
d="M723 4q0 -94 -49.5 -151.5t-134.5 -57.5q-53 0 -92.5 21.5t-72.5 64.5l34 29q30 -36 60 -51.5t69 -15.5q62 0 94.5 43t32.5 119q0 80 -34 115t-109 35h-54v44l176 276h-248v-475h-49l-5 76q-45 -87 -125 -87q-78 0 -121.5 71t-43.5 199q0 83 21 145.5t59.5 96t89.5 33.5
q73 0 118 -68v277l56 -7v-213h308v-44l-181 -280h5q196 0 196 -195zM289 60q28 24 50 70v278q-45 79 -110 79q-55 0 -87 -57.5t-32 -169.5q1 -112 30.5 -168t82.5 -56q38 0 66 24z" />
    <glyph glyph-name="uni02A5" unicode="&#x2a5;" horiz-adv-x="745" 
d="M723.5 28q-37.5 -26 -118.5 -28q-2 -44 -2 -65l1 -46h-41v30q0 27 2 81h-219l-5 76q-45 -87 -125 -87q-78 0 -121.5 71t-43.5 199q0 83 21 145.5t59.5 96t89.5 33.5q73 0 118 -68v277l56 -7v-213h307v-44l-248 -430h116q18 154 109 154q36 0 59 -24.5t23 -66.5
q0 -58 -37.5 -84zM289 60q28 24 50 70v278q-45 79 -110 79q-55 0 -87 -57.5t-32 -169.5q1 -112 30.5 -168t82.5 -56q38 0 66 24zM395 474v-429l247 429h-247zM634 136.5q-17 -25.5 -23 -87.5q57 1 80.5 14.5t23.5 48.5q0 24 -10 37t-28 13q-26 0 -43 -25.5z" />
    <glyph glyph-name="uni02A6" unicode="&#x2a6;" horiz-adv-x="556" 
d="M486 235.5q31 -34.5 31 -91.5q-1 -76 -57.5 -115.5t-159.5 -39.5q-108 0 -161.5 45.5t-53.5 126.5v316h-70v46h70v125l56 7v-132h94l-8 -46h-86v-314q0 -126 160 -126q159 0 159 106q0 42 -22 65t-82 46q-67 25 -92.5 57.5t-25.5 84.5q0 60 40 99t100 39q39 0 71.5 -14.5
t63.5 -43.5l-26 -34q-29 24 -53.5 35t-54.5 11q-38 0 -61.5 -24t-23.5 -65q0 -40 19 -63.5t76 -42.5q66 -23 97 -57.5z" />
    <glyph glyph-name="uni02A7" unicode="&#x2a7;" horiz-adv-x="463" 
d="M517 709l-24 -35q-15 11 -28.5 16.5t-31.5 5.5q-54 0 -54 -72v-715q0 -54 -29.5 -84t-76.5 -30q-51 0 -89 34l25 35q14 -11 28 -16.5t32 -5.5q54 0 54 66v99q-52 -18 -106 -18q-66 0 -99 35.5t-33 103.5v349h-70v46h70v125l56 7v-132h182v99q0 59 28.5 90t77.5 31
q50 0 88 -34zM323 53v424h-182v-348q0 -47 18.5 -69.5t62.5 -22.5q54 0 101 16z" />
    <glyph glyph-name="uni02A8" unicode="&#x2a8;" horiz-adv-x="616" 
d="M570 188q25 -27 25 -72q0 -59 -37.5 -93t-98.5 -34q-78 0 -126 56q-34 -28 -65 -42t-69 -14q-55 0 -84.5 32.5t-29.5 91.5v364h-70v46h70v125l56 7v-132h110l-7 -46h-103v-363q0 -38 16 -57.5t51 -19.5q28 0 52 9.5t50 31.5q-40 68 -40 180q0 133 50 204.5t137 71.5
q36 0 65 -12.5t57 -40.5l-27 -34q-22 20 -44.5 29.5t-49.5 9.5q-60 0 -94 -55t-34 -172q0 -88 23 -143q42 53 76.5 76t72.5 23q43 0 68 -27zM524 56.5q24 18.5 24 59.5q0 27 -12.5 42t-36.5 15q-28 0 -55 -20t-71 -72q32 -43 89 -43q38 0 62 18.5z" />
    <glyph glyph-name="uni02A9" unicode="&#x2a9;" horiz-adv-x="715" 
d="M603.5 493.5q31.5 -40.5 31.5 -110.5v-474q0 -54 -29.5 -84t-76.5 -30q-51 0 -89 34l25 35q14 -11 28 -16.5t32 -5.5q54 0 54 66v468q0 112 -75 112q-71 0 -129 -113v-375h-56v477h-173v-477h-56v477h-73v46h73v96q0 57 33.5 90.5t90.5 33.5q51 0 102 -28l-19 -41
q-40 22 -78 22q-36 0 -54.5 -18.5t-18.5 -59.5v-95h221l6 -90q29 49 62 75t80 26q57 0 88.5 -40.5z" />
    <glyph glyph-name="uni02AA" unicode="&#x2aa;" horiz-adv-x="534" 
d="M131 36q-52 47 -52 127v573l56 7v-580q0 -59 37 -92.5t111 -33.5q155 0 155 107q0 41 -20 65t-79 46q-67 25 -94 57.5t-27 86.5q0 59 40 97t99 38q37 0 70 -14.5t64 -43.5l-26 -35q-28 24 -53 35t-54 11q-37 0 -60 -23.5t-23 -64.5q0 -39 19.5 -60t75.5 -42
q67 -25 96 -60t29 -90q0 -77 -55.5 -117.5t-158.5 -40.5q-98 0 -150 47z" />
    <glyph glyph-name="uni02AB" unicode="&#x2ab;" horiz-adv-x="525" 
d="M498 479l-242 -430h240l-5 -49h-285q-24 -11 -47 -11q-36 0 -58 23.5t-22 64.5v659l56 7v-664q0 -42 34 -42q12 0 28 6l241 431h-222v49h282v-44z" />
    <glyph glyph-name="uni02AC" unicode="&#x2ac;" horiz-adv-x="379" 
d="M346 663l-57 -263h-52l-46 218l-47 -218h-53l-58 263h44l42 -223l50 223h46l47 -224l44 224h40zM346 263l-57 -263h-52l-46 218l-47 -218h-53l-58 263h44l42 -223l50 223h46l47 -224l44 224h40z" />
    <glyph glyph-name="uni02AD" unicode="&#x2ad;" horiz-adv-x="280" 
d="M30 399v131h220v-131h-40v90h-140v-90h-40zM30 -1v131h220v-131h-40v90h-140v-90h-40z" />
    <glyph glyph-name="uni02AE" unicode="&#x2ae;" horiz-adv-x="552" 
d="M468 523v-728l-56 8v284q-27 -48 -60.5 -72.5t-79.5 -24.5q-57 0 -88.5 40t-31.5 110v187h-1v93q0 66 -54 66q-18 0 -32 -5.5t-28 -16.5l-25 35q38 34 89 34q47 0 76.5 -30t29.5 -84v-90h1v-181q0 -113 75 -113q71 0 129 113v375h56z" />
    <glyph glyph-name="uni02AF" unicode="&#x2af;" horiz-adv-x="552" 
d="M608 -171q-38 -34 -89 -34q-47 0 -76.5 30t-29.5 84v91h-1v87q-27 -48 -60.5 -72.5t-79.5 -24.5q-57 0 -88.5 40t-31.5 110v187h-1v93q0 66 -54 66q-18 0 -32 -5.5t-28 -16.5l-25 35q38 34 89 34q47 0 76.5 -30t29.5 -84v-90h1v-181q0 -113 75 -113q71 0 129 113v375h56
v-522h1v-93q0 -66 54 -66q18 0 32 5.5t28 16.5z" />
    <glyph glyph-name="uni02B0" unicode="&#x2b0;" horiz-adv-x="253" 
d="M202 648.5q18 -21.5 18 -58.5v-190h-42v180q0 50 -37 50q-19 0 -34 -11t-31 -33v-186h-43v370l43 5v-149q33 44 76 44q32 0 50 -21.5z" />
    <glyph glyph-name="uni02B1" unicode="&#x2b1;" horiz-adv-x="253" 
d="M202 648.5q18 -21.5 18 -58.5v-190h-42v180q0 50 -37 50q-20 0 -34.5 -11t-30.5 -33v-186h-43v300q0 34 20.5 54t55.5 20q34 0 60 -14l-12 -33q-21 9 -44 9q-19 0 -28 -9t-9 -31v-70q33 44 76 44q32 0 50 -21.5z" />
    <glyph glyph-name="uni02B2" unicode="&#x2b2;" horiz-adv-x="164" 
d="M122.5 778.5q8.5 -8.5 8.5 -21.5q0 -12 -8.5 -21t-21.5 -9t-21.5 9t-8.5 21q0 13 8.5 21.5t21.5 8.5t21.5 -8.5zM122 406q0 -47 -17.5 -69t-57.5 -41l-14 33q26 14 36 29.5t10 46.5v258h43v-257z" />
    <glyph glyph-name="uni02B4" unicode="&#x2b4;" horiz-adv-x="198" 
d="M165 663v-263h-34l-6 49q-10 -27 -25 -41t-41 -14q-14 0 -26 4l8 43q10 -2 20 -2q23 0 36.5 19t23.5 57v148h44z" />
    <glyph glyph-name="uni02B7" unicode="&#x2b7;" horiz-adv-x="379" 
d="M346 663l-57 -263h-52l-46 218l-47 -218h-53l-58 263h44l42 -223l50 223h46l47 -224l44 224h40z" />
    <glyph glyph-name="uni02B8" unicode="&#x2b8;" horiz-adv-x="281" 
d="M166 399q-15 -49 -39 -72t-71 -33l-4 34q34 9 48.5 24t25.5 48h-13l-80 263h45l63 -231l64 231h43z" />
    <glyph glyph-name="uni02B9" unicode="&#x2b9;" horiz-adv-x="251" 
d="M62 434l68 251h58l-85 -251h-41z" />
    <glyph glyph-name="uni02BA" unicode="&#x2ba;" horiz-adv-x="390" 
d="M62 434l68 251h58l-85 -251h-41zM201 434l68 251h58l-85 -251h-41z" />
    <glyph glyph-name="uni02BB" unicode="&#x2bb;" horiz-adv-x="154" 
d="M40.5 601q-10.5 12 -10.5 30q0 8 3.5 19.5t9.5 27.5l47 122h34l-33 -133q20 -12 20 -35q0 -19 -11 -31t-30 -12t-29.5 12z" />
    <glyph glyph-name="uni02BC" unicode="&#x2bc;" horiz-adv-x="192" 
d="M127.5 728q10.5 -12 10.5 -30q0 -8 -3.5 -19.5t-9.5 -27.5l-47 -122h-34l33 133q-20 12 -20 35q0 19 11 31t30 12t29.5 -12z" />
    <glyph glyph-name="uni02BF" unicode="&#x2bf;" horiz-adv-x="144" 
d="M114 668q-21 0 -32.5 15.5t-11.5 43.5q0 27 11.5 42.5t32.5 15.5v35q-37 0 -60.5 -26t-23.5 -67q0 -43 23 -68.5t61 -25.5v35z" />
    <glyph glyph-name="uni02C0" unicode="&#x2c0;" horiz-adv-x="207" 
d="M72 699q29 2 43 12.5t14 34.5q0 42 -38 42q-13 0 -23 -3t-23 -10l-15 32q30 22 69 22q36 0 57 -21.5t21 -57.5q0 -67 -62 -77v-56h-43v82z" />
    <glyph glyph-name="circumflex" unicode="&#x2c6;" horiz-adv-x="309" 
d="M59 646l-24 25l107 108h35l107 -108l-25 -25l-100 84z" />
    <glyph glyph-name="caron" unicode="&#x2c7;" horiz-adv-x="309" 
d="M260 767l24 -26l-107 -107h-35l-107 107l24 26l101 -87z" />
    <glyph glyph-name="uni02C8" unicode="&#x2c8;" horiz-adv-x="113" 
d="M30 633v216h53v-216h-53z" />
    <glyph glyph-name="uni02CA" unicode="&#x2ca;" horiz-adv-x="242" 
d="M186 778l26 -47l-163 -85l-19 30z" />
    <glyph glyph-name="uni02CB" unicode="&#x2cb;" horiz-adv-x="242" 
d="M57 778l155 -102l-19 -30l-163 85z" />
    <glyph glyph-name="uni02CC" unicode="&#x2cc;" horiz-adv-x="113" 
d="M30 -291v216h53v-216h-53z" />
    <glyph glyph-name="uni02CE" unicode="&#x2ce;" horiz-adv-x="241" 
d="M56 -60l155 -93l-17 -32l-164 76z" />
    <glyph glyph-name="uni02CF" unicode="&#x2cf;" horiz-adv-x="241" 
d="M186 -59l25 -49l-165 -77l-16 32z" />
    <glyph glyph-name="uni02D0" unicode="&#x2d0;" horiz-adv-x="188" 
d="M86 356l-38 114h92l-38 -114h-16zM86 113h16l38 -113h-92z" />
    <glyph glyph-name="uni02D1" unicode="&#x2d1;" horiz-adv-x="188" 
d="M86 356l-38 114h92l-38 -114h-16z" />
    <glyph glyph-name="uni02D4" unicode="&#x2d4;" horiz-adv-x="344" 
d="M289 237v-41h-234v41h96v148h41v-148h97z" />
    <glyph glyph-name="uni02D6" unicode="&#x2d6;" horiz-adv-x="377" 
d="M212 454v-135h112v-44h-112v-133h-45v133h-112v44h112v135h45z" />
    <glyph glyph-name="uni02D7" unicode="&#x2d7;" horiz-adv-x="376" 
d="M55 277v42h267v-42h-267z" />
    <glyph glyph-name="breve" unicode="&#x2d8;" horiz-adv-x="280" 
d="M69.5 682q-29.5 29 -34.5 81l36 8q16 -73 73 -73q59 0 74 73l37 -8q-5 -52 -35 -81t-76 -29q-45 0 -74.5 29z" />
    <glyph glyph-name="dotaccent" unicode="&#x2d9;" horiz-adv-x="140" 
d="M105 740q11 -12 11 -30q0 -16 -11 -28t-29 -12q-17 0 -28.5 12t-11.5 28q0 18 11 30t29 12t29 -12z" />
    <glyph glyph-name="ring" unicode="&#x2da;" horiz-adv-x="228" 
d="M180 795.5q23 -24.5 23 -68.5q0 -45 -23 -69.5t-61 -24.5t-61 24.5t-23 69.5q0 44 23 68.5t61 24.5t61 -24.5zM86 772.5q-11 -13.5 -11 -45.5t11 -46t33 -14t33.5 14t11.5 46t-11.5 45.5t-33.5 13.5t-33 -13.5z" />
    <glyph glyph-name="ogonek" unicode="&#x2db;" horiz-adv-x="209" 
d="M210 0q-55 -30 -77 -56.5t-22 -63.5q0 -51 51 -51q20 0 47 6l-5 -45q-28 -7 -48 -7q-45 0 -69.5 25t-24.5 66q0 49 33.5 84.5t103.5 65.5z" />
    <glyph glyph-name="tilde" unicode="&#x2dc;" horiz-adv-x="312" 
d="M177.5 675.5q-12.5 6.5 -30.5 18.5q-25 19 -39 19q-13 0 -23 -9t-23 -31l-32 16q31 66 77 66q14 0 27 -6.5t28 -17.5t23.5 -15.5t18.5 -4.5q13 0 23.5 10t22.5 33l32 -15q-27 -70 -76 -70q-16 0 -28.5 6.5z" />
    <glyph glyph-name="hungarumlaut" unicode="&#x2dd;" horiz-adv-x="274" 
d="M202 809l46 -25l-78 -141l-33 15zM93 808l46 -24l-72 -137l-33 15z" />
    <glyph glyph-name="uni02DE" unicode="&#x2de;" horiz-adv-x="283" 
d="M148 352.5q-27 29.5 -27 82.5v40l-95 -58v49l94 57h52v-84q0 -69 55 -69q28 0 57 21l25 -33q-39 -35 -86 -35q-48 0 -75 29.5z" />
    <glyph glyph-name="uni02E0" unicode="&#x2e0;" horiz-adv-x="283" 
d="M164 431q14 -28 20.5 -48t6.5 -38q0 -22 -13 -36t-36 -14q-24 0 -37.5 13.5t-13.5 36.5q0 31 29 86l-86 232h45l63 -201l63 201h44zM152.5 374q-4.5 14 -10.5 30q-9 -22 -12.5 -33t-3.5 -23q0 -19 16 -19q15 0 15 19q0 12 -4.5 26z" />
    <glyph glyph-name="uni02E1" unicode="&#x2e1;" horiz-adv-x="150" 
d="M47 406.5q-14 13.5 -14 40.5v323l43 5v-323q0 -20 17 -20q5 0 15 2l9 -33q-16 -8 -32 -8q-24 0 -38 13.5z" />
    <glyph glyph-name="uni02E2" unicode="&#x2e2;" horiz-adv-x="252" 
d="M211 638l-20 -27q-15 11 -29 16.5t-31 5.5q-19 0 -30.5 -9t-11.5 -25q0 -17 10.5 -25t42.5 -19q42 -14 59.5 -31.5t17.5 -50.5q0 -36 -26 -58t-68 -22q-51 0 -92 36l23 26q17 -13 32.5 -19t36.5 -6q23 0 35 10.5t12 29.5q0 20 -11 30t-45 20q-38 12 -55.5 30t-17.5 46
q0 32 24.5 53t62.5 21q46 0 81 -32z" />
    <glyph glyph-name="uni02E3" unicode="&#x2e3;" horiz-adv-x="282" 
d="M166 541l83 -141h-49l-60 113l-61 -113h-46l82 139l-73 124h48l51 -97l51 97h46z" />
    <glyph glyph-name="uni02E4" unicode="&#x2e4;" horiz-adv-x="266" 
d="M125 400v150l-13 4q-38 13 -58.5 36.5t-20.5 70.5q0 51 30.5 82t80.5 31q26 0 47 -10t42 -31l-23 -27q-33 30 -66 30q-30 0 -47.5 -20t-17.5 -55q0 -36 14.5 -52t48.5 -27l26 -8v-174h-43z" />
    <glyph glyph-name="uni02E5" unicode="&#x2e5;" horiz-adv-x="271" 
d="M201 0v641h-176v44h221v-685h-45z" />
    <glyph glyph-name="uni02E6" unicode="&#x2e6;" horiz-adv-x="271" 
d="M201 685h45v-685h-45v471h-176v45h176v169z" />
    <glyph glyph-name="uni02E7" unicode="&#x2e7;" horiz-adv-x="271" 
d="M201 685h45v-685h-45v321h-176v45h176v319z" />
    <glyph glyph-name="uni02E8" unicode="&#x2e8;" horiz-adv-x="271" 
d="M201 685h45v-685h-45v171h-176v45h176v469z" />
    <glyph glyph-name="uni02E9" unicode="&#x2e9;" horiz-adv-x="271" 
d="M201 685h45v-685h-221v44h176v641z" />
    <glyph glyph-name="uni02EE" unicode="&#x2ee;" horiz-adv-x="319" 
d="M119.5 725.5q9.5 -10.5 9.5 -27.5q0 -14 -12 -42l-42 -110h-30l29 120q-18 11 -18 31q0 17 10 28t27 11t26.5 -10.5zM256.5 725.5q9.5 -10.5 9.5 -27.5q0 -14 -12 -42l-42 -110h-30l29 120q-18 11 -18 31q0 17 10 28t27 11t26.5 -10.5z" />
    <glyph glyph-name="gravecomb" unicode="&#x300;" horiz-adv-x="0" 
d="M-184 778l155 -102l-19 -30l-163 85z" />
    <glyph glyph-name="acutecomb" unicode="&#x301;" horiz-adv-x="0" 
d="M-56 778l26 -47l-163 -85l-19 30z" />
    <glyph glyph-name="uni0302" unicode="&#x302;" horiz-adv-x="0" 
d="M-255 646l-24 25l107 108h35l107 -108l-25 -25l-100 84z" />
    <glyph glyph-name="tildecomb" unicode="&#x303;" horiz-adv-x="0" 
d="M-134.5 675.5q-12.5 6.5 -30.5 18.5q-25 19 -39 19q-13 0 -23 -9t-23 -31l-32 16q31 66 77 66q14 0 27 -6.5t28 -17.5t23.5 -15.5t18.5 -4.5q13 0 23.5 10t22.5 33l32 -15q-27 -70 -76 -70q-16 0 -28.5 6.5z" />
    <glyph glyph-name="uni0304" unicode="&#x304;" horiz-adv-x="0" 
d="M-30 677h-202v44h202v-44z" />
    <glyph glyph-name="uni0306" unicode="&#x306;" horiz-adv-x="0" 
d="M-215.5 682q-29.5 29 -34.5 81l36 8q16 -73 73 -73q59 0 74 73l37 -8q-5 -52 -35 -81t-76 -29q-45 0 -74.5 29z" />
    <glyph glyph-name="uni0307" unicode="&#x307;" horiz-adv-x="0" 
d="M-41 740q11 -12 11 -30q0 -16 -11 -28t-29 -12q-17 0 -28.5 12t-11.5 28q0 18 11 30t29 12t29 -12z" />
    <glyph glyph-name="uni0308" unicode="&#x308;" horiz-adv-x="0" 
d="M-198.5 729q10.5 -11 10.5 -27q0 -17 -10.5 -28t-27.5 -11q-16 0 -26.5 11t-10.5 28q0 16 10.5 27t26.5 11q17 0 27.5 -11zM-40.5 729q10.5 -11 10.5 -27q0 -17 -10.5 -28t-27.5 -11q-16 0 -26.5 11t-10.5 28q0 16 10.5 27t26.5 11q17 0 27.5 -11z" />
    <glyph glyph-name="hookabovecomb" unicode="&#x309;" horiz-adv-x="0" 
d="M-135 699q29 2 43 12.5t14 34.5q0 42 -38 42q-13 0 -23 -3t-23 -10l-15 32q30 22 69 22q36 0 57 -21.5t21 -57.5q0 -67 -62 -77v-56h-43v82z" />
    </font>
</defs>
</svg>
